<svg width="30" height="30" viewBox="0 0 30 30" fill="none" xmlns="http://www.w3.org/2000/svg">
<path d="M16.8932 15.7582H13.1068C11.7849 15.7597 10.2551 16.2839 9.32039 17.2089C8.38566 18.1338 7.86557 19.3825 7.86408 20.6906V22.7215C7.86437 22.9736 7.97518 23.1236 8.15534 23.3018C8.3355 23.48 8.77439 23.5917 9.02913 23.5919H20.9709C21.2256 23.5917 21.6645 23.48 21.8447 23.3018C22.0248 23.1236 22.1356 22.9736 22.1359 22.7215V20.6906C22.1344 19.3824 21.6144 18.1339 20.6796 17.2089C19.7448 16.2839 18.2152 15.7596 16.8932 15.7582ZM20.6796 22.1412H9.32039V20.6906C9.32144 19.766 9.82479 18.733 10.4854 18.0793C11.1461 17.4256 12.1725 17.2099 13.1068 17.2089H16.8932C17.8275 17.2099 18.8539 17.4256 19.5146 18.0793C20.1752 18.733 20.6786 19.766 20.6796 20.6906V22.1412ZM15.1456 14.5976C15.9747 14.5976 16.4951 14.183 17.1845 13.7272C17.8738 13.2714 18.6148 12.7444 18.932 11.9864C19.2493 11.2284 19.3851 10.4699 19.2233 9.66528C19.0616 8.8606 18.6445 7.9243 18.0583 7.34416C17.472 6.76403 16.5413 6.34367 15.7282 6.18361C14.915 6.02355 14.1641 6.15978 13.3981 6.47375C12.6321 6.78772 12.1111 7.24227 11.6505 7.92444C11.1899 8.60661 10.7767 9.42512 10.7767 10.2456C10.778 11.3453 11.1559 12.3693 11.9417 13.1469C12.7276 13.9246 14.0342 14.5964 15.1456 14.5976ZM15.1456 7.6343C15.6856 7.6343 16.153 7.91773 16.6019 8.21458C17.0509 8.51143 17.2691 8.8815 17.4757 9.37514C17.6824 9.86878 17.8723 10.3018 17.767 10.8258C17.6616 11.3499 17.275 11.8987 16.8932 12.2765C16.5114 12.6543 15.9665 12.7526 15.4369 12.8568C14.9073 12.961 14.4794 13.0613 13.9806 12.8568C13.4817 12.6523 13.1155 12.1405 12.8155 11.6962C12.5156 11.252 12.233 10.7799 12.233 10.2456C12.2338 9.52933 12.595 9.01116 13.1068 8.50472C13.6186 7.99828 14.4218 7.63512 15.1456 7.6343ZM4.66019 16.3385H6.99029C7.38572 16.3378 7.78595 16.489 8.15534 16.6286C8.3356 16.6937 8.56328 16.7074 8.73786 16.6286C8.91245 16.5498 9.25183 16.2257 9.32039 16.0483C9.38895 15.871 9.39725 15.642 9.32039 15.4681C9.24352 15.2941 8.91598 15.2485 8.73786 15.1779C8.20177 14.975 7.56427 14.887 6.99029 14.8878H4.66019C3.41372 14.8892 2.33772 15.4663 1.45631 16.3385C0.574898 17.2106 0.00147327 18.2966 0 19.53V20.1103C0.000294656 20.3675 0.107467 20.7988 0.291262 20.9807C0.475057 21.1626 0.613861 21.2705 0.873786 21.2708H6.11651C6.21305 21.2717 6.31832 21.3068 6.40777 21.2708C6.49721 21.2349 6.63045 21.0479 6.69903 20.9807C6.7676 20.9134 6.95314 20.7787 6.99029 20.6906C7.02744 20.6024 6.99029 20.496 6.99029 20.4004C6.99029 20.3049 7.02744 20.1985 6.99029 20.1103C6.95314 20.0221 6.7676 20.1775 6.69903 20.1103C6.63045 20.043 6.49721 19.8561 6.40777 19.8201C6.31832 19.7842 6.21305 19.8193 6.11651 19.8201H1.45631V19.53C1.45733 18.6801 1.72276 17.8098 2.3301 17.2089C2.93743 16.6079 3.80132 16.3394 4.66019 16.3385ZM5.82524 14.3075C6.48861 14.3075 7.31251 14.0919 7.86408 13.7272C8.41564 13.3625 8.77527 12.883 9.02913 12.2765C9.28298 11.6701 9.4498 10.8894 9.32039 10.2456C9.19097 9.60174 8.62441 8.96889 8.15534 8.50472C7.68627 8.04056 7.34965 7.76237 6.69903 7.6343C6.04841 7.50624 5.27306 7.67324 4.66019 7.92444C4.04733 8.17565 3.57243 8.5392 3.20388 9.085C2.83534 9.6308 2.62136 10.4595 2.62136 11.116C2.62237 11.9959 2.86636 12.8149 3.49515 13.4371C4.12393 14.0593 4.93601 14.3065 5.82524 14.3075ZM5.82524 9.085C6.19946 9.085 6.67914 9.16941 6.99029 9.37514C7.30144 9.58087 7.42961 9.90344 7.57282 10.2456C7.71602 10.5877 7.93709 11.0429 7.86408 11.4061C7.79107 11.7693 7.54617 12.0147 7.28155 12.2765C7.01694 12.5384 6.77479 12.7846 6.40777 12.8568C6.04074 12.929 5.58844 12.7084 5.24272 12.5667C4.89699 12.4249 4.57683 12.2943 4.36893 11.9864C4.16104 11.6785 4.07766 11.4863 4.07767 11.116C4.07821 10.6196 4.30548 10.0163 4.66019 9.66528C5.0149 9.31427 5.32361 9.08554 5.82524 9.085ZM25.3398 14.8878H23.0097C22.4357 14.887 21.7982 14.975 21.2621 15.1779C21.084 15.2485 20.7565 15.2941 20.6796 15.4681C20.6027 15.642 20.6111 15.871 20.6796 16.0483C20.7482 16.2257 21.0876 16.5498 21.2621 16.6286C21.4367 16.7074 21.6644 16.6937 21.8447 16.6286C22.214 16.489 22.6143 16.3378 23.0097 16.3385H25.3398C26.1987 16.3394 27.0626 16.6079 27.6699 17.2089C28.2772 17.8099 28.5427 18.6801 28.5437 19.53V19.8201H23.8835C23.787 19.8193 23.6817 19.7842 23.5922 19.8201C23.5028 19.8561 23.3695 20.043 23.301 20.1103C23.2324 20.1775 23.0469 20.0221 23.0097 20.1103C22.9726 20.1985 23.0097 20.3049 23.0097 20.4004C23.0097 20.496 22.9726 20.6024 23.0097 20.6906C23.0469 20.7787 23.2324 20.9134 23.301 20.9807C23.3695 21.0479 23.5028 21.2349 23.5922 21.2708C23.6817 21.3068 23.787 21.2717 23.8835 21.2708H29.1262C29.3861 21.2705 29.525 21.1625 29.7087 20.9807C29.8925 20.7988 29.9997 20.3674 30 20.1103V19.53C29.9986 18.2965 29.4251 17.2107 28.5437 16.3385C27.6623 15.4663 26.5863 14.8892 25.3398 14.8878ZM24.1748 14.3075C24.8381 14.3075 25.3708 14.0919 25.9223 13.7272C26.4739 13.3625 26.8335 12.883 27.0874 12.2765C27.3412 11.6701 27.5081 10.8894 27.3786 10.2456C27.2492 9.60174 26.9739 8.96889 26.5049 8.50472C26.0358 8.04056 25.4079 7.76237 24.7573 7.6343C24.1067 7.50624 23.3313 7.67324 22.7184 7.92444C22.1056 8.17565 21.6307 8.5392 21.2621 9.085C20.8936 9.6308 20.6796 10.4595 20.6796 11.116C20.6806 11.9959 21.2159 12.8149 21.8447 13.4371C22.4734 14.0593 23.2855 14.3065 24.1748 14.3075ZM24.1748 9.085C24.549 9.08499 24.7374 9.16941 25.0485 9.37514C25.3597 9.58086 25.7791 9.90344 25.9223 10.2456C26.0655 10.5877 25.9953 11.0429 25.9223 11.4061C25.8493 11.7693 25.6044 12.0147 25.3398 12.2765C25.0752 12.5384 24.833 12.7846 24.466 12.8568C24.099 12.929 23.6467 12.7084 23.301 12.5667C22.9552 12.4249 22.6351 12.2943 22.4272 11.9864C22.2193 11.6785 22.1359 11.4863 22.1359 11.116C22.1365 10.6196 22.3638 10.0163 22.7184 9.66528C23.0731 9.31427 23.6731 9.08555 24.1748 9.085Z" fill="#6430E8"/>
</svg>
