<svg width="30" height="30" viewBox="0 0 30 30" fill="none" xmlns="http://www.w3.org/2000/svg">
<mask id="mask0_193_226" style="mask-type:luminance" maskUnits="userSpaceOnUse" x="0" y="0" width="30" height="30">
<path d="M0 -1.90735e-06H30V30H0V-1.90735e-06Z" fill="white"/>
<path d="M29.25 29.25V0.749998H0.75V29.25H29.25Z" stroke="white" stroke-width="1.5"/>
</mask>
<g mask="url(#mask0_193_226)">
<path d="M16.8929 11.0676C16.8929 12.1127 16.1903 13.1064 15.1453 13.1064C14.1002 13.1064 13.1064 12.1127 13.1064 11.0676C13.1064 10.0225 14.1002 9.32004 15.1453 9.32004C16.1903 9.32004 16.8929 10.0225 16.8929 11.0676Z" stroke="#6430E8" stroke-width="1.5" stroke-miterlimit="10" stroke-linecap="round" stroke-linejoin="round"/>
<path d="M13.1064 18.6409C13.1064 17.5958 13.809 16.8933 14.854 16.8933C15.8991 16.8933 16.8929 17.5958 16.8929 18.6409C16.8929 19.6859 15.8991 20.6797 14.854 20.6797C13.809 20.6797 13.1064 19.6859 13.1064 18.6409Z" stroke="#6430E8" stroke-width="1.5" stroke-miterlimit="10" stroke-linecap="round" stroke-linejoin="round"/>
<path d="M15.1453 6.1168C20.0481 6.1168 23.8832 9.95194 23.8832 14.8547C23.8832 19.7574 20.0481 23.8838 15.1453 23.8838C10.2426 23.8838 6.11621 19.7574 6.11621 14.8547C6.11621 9.95194 10.2426 6.1168 15.1453 6.1168Z" stroke="#6430E8" stroke-width="1.5" stroke-miterlimit="10" stroke-linecap="round" stroke-linejoin="round"/>
<path d="M16.8934 2.32986C17.843 2.47104 18.6217 2.85168 19.5148 3.20365L20.3886 1.74733L23.5925 3.78617L23.0099 4.95122C23.76 5.54922 24.4508 6.23997 25.0488 6.99005L26.2138 6.40753L28.2527 9.61141L26.7964 10.4852C27.1485 11.3783 27.5291 12.157 27.6701 13.1066H29.1265V16.893H27.6701C27.529 17.8425 27.1483 18.6212 26.7964 19.5143L28.2527 20.3881L26.2138 23.592L25.0488 23.0095C24.4508 23.7595 23.76 24.4503 23.0099 25.0483L23.5925 26.2134L20.3886 28.2522L19.5148 26.7959C18.6217 27.1479 17.843 27.5286 16.8934 27.6697V29.126H13.107V27.6697C12.1575 27.5284 11.3788 27.1478 10.4857 26.7959L9.61189 28.2522L6.408 26.2134L6.99053 25.0483C6.24045 24.4503 5.54966 23.7595 4.95169 23.0095L3.78664 23.592L1.74781 20.3881L3.20412 19.5143C2.85205 18.6213 2.4714 17.8425 2.33033 16.893H0.874023V13.1066H2.33033C2.47157 12.157 2.85221 11.3783 3.20412 10.4852L1.74781 9.61141L3.78664 6.40753L4.95169 6.99005C5.54966 6.23996 6.24045 5.54921 6.99053 4.95122L6.408 3.78617L9.61189 1.74733L10.4857 3.20365C11.3787 2.85152 12.1575 2.47087 13.107 2.32986V0.873548H16.8934V2.32986Z" stroke="#6430E8" stroke-width="1.5" stroke-miterlimit="10" stroke-linecap="round" stroke-linejoin="round"/>
<path d="M13.689 12.5244L11.3589 14.8545H6.11621" stroke="#6430E8" stroke-width="1.5" stroke-miterlimit="10" stroke-linecap="round" stroke-linejoin="round"/>
<path d="M16.3105 17.4756L18.6406 15.1455H23.8834" stroke="#6430E8" stroke-width="1.5" stroke-miterlimit="10" stroke-linecap="round" stroke-linejoin="round"/>
</g>
</svg>
