<svg width="30" height="30" viewBox="0 0 30 30" fill="none" xmlns="http://www.w3.org/2000/svg">
<g clip-path="url(#clip0_193_220)">
<path d="M20.407 7.1604L15.302 0.248416C15.0703 -0.0824531 14.6332 -0.0831574 14.4011 0.248416L9.29609 7.1604C9.0246 7.54826 9.42476 8.36248 9.89668 8.36248H12.299V29.399C12.299 29.7231 12.5779 30 12.8996 30H16.8034C17.1251 30 17.404 29.7231 17.404 29.399V8.36248H19.8064C20.2774 8.36248 20.6789 7.54903 20.407 7.1604ZM16.8034 7.1604C16.4818 7.1604 16.2029 7.43726 16.2029 7.76144V28.7979H13.5002V7.76144C13.5002 7.43726 13.2213 7.1604 12.8996 7.1604H11.0979L14.7014 1.4505L18.6052 7.1604H16.8034Z" fill="#6430E8"/>
<path d="M6.05315 8.95353C5.82105 8.62107 5.39011 8.62166 5.15847 8.95353L0.0886101 15.8689C-0.182868 16.2579 0.213166 17.0716 0.685064 17.0716H3.07088V29.3991C3.07088 29.7241 3.34565 30.0004 3.66733 30.0004H7.54429C7.86597 30.0004 8.14074 29.7241 8.14074 29.3991V17.0716H10.5266C10.9976 17.0716 11.3951 16.2586 11.123 15.8689L6.05315 8.95353ZM7.54429 15.8689C7.2226 15.8689 7.24606 16.1452 7.24606 16.4703V28.7977H4.26379V16.4703C4.26379 16.1452 3.98902 15.8689 3.66733 15.8689H1.87797L5.75492 10.1562L9.63187 15.8689H7.54429ZM29.9113 14.3656L24.8415 7.14951C24.6098 6.8177 24.179 6.817 23.9468 7.14951L18.8769 14.3656C18.6055 14.7546 19.0015 15.2676 19.4734 15.2676H21.8592V29.3991C21.8592 29.7241 22.134 30.0004 22.4556 30.0004H26.3326C26.6542 30.0004 26.929 29.7241 26.929 29.3991V15.2676H29.3149C29.7858 15.2676 30.1833 14.7553 29.9113 14.3656ZM26.3326 14.0649C26.011 14.0649 25.7361 14.3411 25.7361 14.6662V28.7977H22.7539V14.6662C22.7539 14.3411 22.7773 14.0649 22.4556 14.0649H20.368L24.245 8.35219L28.122 14.0649H26.3326Z" fill="#6430E8"/>
</g>
<defs>
<clipPath id="clip0_193_220">
<rect width="30" height="30" fill="white"/>
</clipPath>
</defs>
</svg>
