<svg width="188" height="73" fill="none" xmlns="http://www.w3.org/2000/svg"><g clip-path="url(#clip0_193_2029)" fill="#000"><path d="M29.462 26.146C38.724 13.51 64.118 4.442 94.01 4.442c29.892 0 54.969 8.955 64.374 21.468h25.649C172.338 10.92 136.466 0 94.01 0 51.554 0 15.304 11.032 3.803 26.146h25.66zm130.568 2.273c1.227 2.19 1.983 4.462 2.208 6.806h25.752c-.205-2.334-.972-4.606-2.26-6.806h-25.71.01zM188 37.724h-25.731c-.163 2.508-.92 4.945-2.239 7.29h25.455c1.442-2.345 2.311-4.782 2.515-7.29zm-29.616 9.798C148.979 60.035 123.707 68.99 94.01 68.99c-29.698 0-54.662-8.842-64.21-21.231H4.527C16.755 62.408 52.198 73 94.01 73s77.643-10.714 89.686-25.478h-25.312zM25.762 37.97H.041c.256 2.499 1.155 4.936 2.648 7.29h25.445c-1.35-2.334-2.168-4.77-2.372-7.29zM0 35.462h25.762c.194-2.345.89-4.617 2.085-6.807h-25.7C.9 30.855.164 33.128 0 35.461z"/><path d="M46.126 56.19l46.259-43.112h34.022c4.242 0 8.403 1.666 11.245 4.833 2.137 2.385 3.844 5.84 3.65 10.744-.174 4.452-1.871 7.752-3.977 10.148-3.282 3.732-8.117 5.707-13.065 5.707h-5.5l7.156 11.68h-20.078L92.824 33.487l29.279-.277c1.738.02 3.149-2.828 3.149-4.452 0-2.056-1.104-4.688-3.619-4.71l-21.285-.092L66.428 56.2H46.127v-.01z"/><path d="M97.67 48.972l-6.216-10.303-10.55 10.303H97.67zm1.227 2.015H78.839l-6.185 6.046h29.892l-3.65-6.046z"/></g><defs><clipPath id="clip0_193_2029"><path fill="#fff" d="M0 0h188v73H0z"/></clipPath></defs></svg>