<svg width="215" height="108" fill="none" xmlns="http://www.w3.org/2000/svg"><g clip-path="url(#clip0_193_1992)"><path d="M22.242 44.276H11.12A3.716 3.716 0 007.414 48a3.716 3.716 0 003.707 3.724h11.12v3.724a3.716 3.716 0 003.707 3.724 3.715 3.715 0 003.707-3.724V33.103a3.716 3.716 0 00-3.707-3.724 3.716 3.716 0 00-3.706 3.724v11.173zM0 33.103v7.449a3.716 3.716 0 003.707 3.724 3.716 3.716 0 003.707-3.724v-7.449a3.716 3.716 0 00-3.707-3.724A3.716 3.716 0 000 33.103zm41.377-3.723c-2.38 0-4.308 1.937-4.308 4.327V48a3.716 3.716 0 003.707 3.724A3.715 3.715 0 0044.483 48h18.535a3.716 3.716 0 003.707-3.724 3.716 3.716 0 00-3.707-3.724H44.483v-3.724h18.535a3.716 3.716 0 003.707-3.724 3.716 3.716 0 00-3.707-3.725H41.377zm88.365 0h-14.228c-2.379 0-4.307 1.937-4.307 4.327v21.741a3.716 3.716 0 003.707 3.724 3.716 3.716 0 003.707-3.724v-18.62h3.707v18.62a3.715 3.715 0 003.707 3.724 3.716 3.716 0 003.707-3.724v-18.62a3.715 3.715 0 003.706-3.725 3.715 3.715 0 00-3.706-3.724zM66.724 55.448a3.716 3.716 0 00-3.707-3.724H48.189a3.716 3.716 0 00-3.707 3.724 3.716 3.716 0 003.707 3.724h14.828a3.716 3.716 0 003.707-3.724zm85.859-26.068c-2.379 0-4.308 1.937-4.308 4.327V48a3.716 3.716 0 003.707 3.724A3.715 3.715 0 00155.689 48h18.535a3.716 3.716 0 003.707-3.724 3.716 3.716 0 00-3.707-3.724h-18.535v-3.724h18.535a3.716 3.716 0 003.707-3.724 3.716 3.716 0 00-3.707-3.725h-21.641zm51.296 0h-14.827a3.715 3.715 0 00-3.707 3.723 3.715 3.715 0 003.707 3.725h7.413v18.62a3.716 3.716 0 003.707 3.724 3.715 3.715 0 003.707-3.724v-18.62h7.414A3.716 3.716 0 00215 33.103a3.716 3.716 0 00-3.707-3.724h-7.414zm-25.948 26.068a3.716 3.716 0 00-3.707-3.724h-14.828a3.716 3.716 0 00-3.707 3.724 3.716 3.716 0 003.707 3.724h14.828a3.716 3.716 0 003.707-3.724zm-77.845 3.724a3.716 3.716 0 003.707-3.724V40.552a3.716 3.716 0 00-3.707-3.724 3.716 3.716 0 00-3.707 3.724v14.896a3.716 3.716 0 003.707 3.724zm37.069 0a3.716 3.716 0 003.707-3.724V40.552a3.716 3.716 0 00-3.707-3.724 3.716 3.716 0 00-3.707 3.724v14.896a3.716 3.716 0 003.707 3.724zM83.57 30.437l-8.38 8.418a3.617 3.617 0 00-1.052 2.553v14.04a3.716 3.716 0 003.707 3.724 3.716 3.716 0 003.707-3.724V44.156c0-.741.292-1.453.815-1.977l4.511-4.532a2.775 2.775 0 011.968-.82h3.826a3.716 3.716 0 003.707-3.724 3.716 3.716 0 00-3.707-3.724h-6.561c-.953 0-1.867.38-2.541 1.058z" fill="#012D6C"/><path d="M211.293 78.62H3.707A3.715 3.715 0 010 74.898v-4.552a3.716 3.716 0 013.707-3.724h207.586A3.716 3.716 0 01215 70.345v4.552a3.716 3.716 0 01-3.707 3.724z" fill="#E0DA00"/><path d="M83.117 70.386c-.447-.013-.67.267-.67.84v5.166c.02.58-.26.867-.84.859-.584-.013-.876-.303-.876-.872v-6.636c0-.712.32-1.077.962-1.093l2.79.012.565.012c.52-.004.78.28.78.853 0 .577-.247.867-.743.871l-1.968-.012zm5.972-.661c0-.721.32-1.084.96-1.088h4.181c1.46.008 2.464.402 3.014 1.18.27.396.406.868.406 1.415 0 .84-.3 1.487-.898 1.94-.594.425-1.2.635-1.814.63h-1.765c-.603.017-.904-.265-.904-.846 0-.556.288-.842.867-.859h1.802c.488 0 .795-.131.922-.395.058-.14.086-.296.086-.47 0-.218-.036-.376-.11-.476-.07-.107-.214-.193-.43-.259-.243-.074-.643-.12-1.2-.136h-2.81c-.394 0-.591.21-.591.63v5.394c.024.585-.259.874-.849.866-.578 0-.867-.289-.867-.866v-6.66zm15.597 2.131c.127.149.26.196.4.142l2.097-2.817c.209-.363.537-.544.984-.544h.75c.537.025.681.206.431.544l-5.695 7.526c-.279.37-.656.552-1.132.544h-.547c-.447-.087-.527-.334-.24-.742l1.943-2.614c.123-.25.097-.496-.08-.735l-2.773-3.787c-.291-.408-.212-.654.239-.736h.548c.479-.008.857.173 1.131.544l1.944 2.675zm7.331-2.336c0-.568.291-.858.873-.87h6.777c.583.012.874.302.874.87v6.86c0 .568-.291.858-.874.87-.582.005-.863-.282-.842-.858V70.36l-4.613-.012c-.32 0-.48.169-.48.507v5.536c.021.576-.26.863-.842.859-.582-.013-.873-.303-.873-.872V69.52zm11.79 0c0-.568.291-.858.873-.87h6.777c.583.012.874.302.874.87v6.86c0 .568-.291.858-.874.87-.582.005-.863-.282-.842-.858V70.36l-4.613-.012c-.32 0-.479.169-.479.507v5.536c.02.576-.261.863-.843.859-.582-.013-.873-.303-.873-.872V69.52z" fill="#fff"/></g><defs><clipPath id="clip0_193_1992"><path fill="#fff" d="M0 0h215v108H0z"/></clipPath></defs></svg>