<svg width="167" height="79" fill="none" xmlns="http://www.w3.org/2000/svg"><path fill-rule="evenodd" clip-rule="evenodd" d="M72.58 7.424c6.166 0 11.37 2.42 15.534 7.263l4.884-4.358V.969h-7.606v1.21c0 .404.08 1.533.16 1.775C82.83 1.291 76.584 0 72.662 0 56.967 0 43.676 12.911 43.676 28.888c0 16.139 12.97 29.547 28.984 29.547 8.647 0 15.933-3.483 21.779-10.019l-6.085-4.842c-4.245 4.923-9.529 7.424-15.774 7.424-11.61 0-20.818-10.49-20.818-22.029 0-11.377 9.208-21.545 20.818-21.545zm-.079 26.79c-2.883 0-5.204-2.34-5.204-5.245 0-2.905 2.321-5.245 5.204-5.245 1.521 0 2.882.565 3.923 1.775l5.525-4.841c-2.482-2.825-5.605-4.277-9.368-4.277-6.806 0-12.49 5.649-12.49 12.588 0 6.617 5.604 12.91 12.41 12.588v-7.343zM149.526.968L131.11 20.335 112.535.968H96.281v7.424h5.365v32.762h8.087V17.511c0-2.502-.161-5.487-.481-8.877 2.162 2.663 4.083 4.842 5.844 6.698l16.014 16.703 15.935-16.703c1.841-1.856 3.762-4.116 5.843-6.698-.32 3.39-.479 6.375-.479 8.877v23.643h8.086V8.392h5.365V.968h-16.334zM166.02 50.03v7.424h-30.266V39.055l8.087-9.037V50.03h22.179zm-69.9 0v7.424h30.267V39.055l-8.088-9.037V50.03H96.121zM32.29 1.823v58.645h2.315V1.823H32.29zm-8.491 0v58.645h3.472V1.823H23.8zm-10.021 0v58.645h4.63V1.823h-4.63zm-12.642 0v58.645H8.08V1.823H1.136z" fill="#00A868"/><path d="M9.134 70.742v1.796l2.181-.349v-.934c0-.403 0-1.282-.509-1.777-.454-.44-1.218-.458-1.817-.458H3.39c-.6 0-1.363.019-1.818.458-.509.495-.509 1.374-.509 1.777v4.983c0 .403 0 1.282.51 1.777.454.44 1.217.458 1.817.458h5.6c.6 0 1.363-.018 1.817-.458.51-.495.51-1.374.51-1.777v-1.08l-2.182-.459v2.052h-5.89v-6.009h5.89zm10.575 1.356h3.726v-1.374H14.13v1.374h3.726v6.375h1.854v-6.375zm7.818-1.374l-4.562 7.749h1.872l.963-1.704h5.09l.963 1.704h2.109l-4.635-7.749h-1.8zm-1 4.671l1.818-3.224 1.8 3.224h-3.617zm12.133-4.671l-4.29 7.749h1.945l3.163-6.155 3.163 6.155h2.181l-4.362-7.749h-1.8zm9.919 0h-1.854v7.749h6.398c.764 0 1.218-.11 1.527-.238.745-.33.854-.861.854-1.283v-1.941c0-.513-.2-.825-.4-1.026-.508-.513-1.181-.458-1.763-.458H48.58v-2.803zm4.344 4.085c.182 0 .473 0 .655.165.163.147.181.33.181.476v.99c0 .164-.018.348-.181.494-.164.147-.455.165-.71.165H48.58v-2.29h4.344zm4.433-.275h4.235v-1.887h-4.235v1.887zm18.033-5.514l-4.326 5.716-4.417-5.716h-1.782v9.453h1.782v-5.844l-.055-1.007c.11.274.236.53.564.97l3.526 4.745h.436l3.526-4.726c.091-.11.364-.531.546-.99-.073.55-.073.862-.073 1.008v5.844h2V69.02h-1.727zm9.03 1.704l-4.563 7.749h1.873l.963-1.704h5.09l.963 1.704h2.108l-4.635-7.749h-1.8zm-1 4.671l1.818-3.224 1.8 3.224h-3.618zm11.206-4.671H92.77v7.749h1.854v-3.499l4.835 3.499h2.962l-5.907-4.159 5.308-3.59h-2.709l-4.49 3.133v-3.133zm18.016 5.02l-1.854-.385v1.648h-5.108V72.19h5.108v1.43l1.854-.275v-.788c0-.495-.018-1.1-.436-1.466-.237-.22-.691-.366-1.582-.366h-4.798c-.782 0-1.273.11-1.564.366-.418.367-.436.971-.436 1.466v4.085c0 .476.037 1.08.418 1.447.346.312.945.385 1.582.385h4.798c.891 0 1.345-.147 1.582-.367.418-.366.436-.97.436-1.465v-.898zm3.064-5.02v7.749h1.491l6.634-5.642v5.642h1.854v-7.749h-1.49l-6.635 5.642v-5.642h-1.854zm14.928 0h-1.509v7.749h1.509V73.27l3.472 4.269h.363l3.436-4.397v5.33h1.744v-7.748h-1.508l-3.745 4.598-3.762-4.598zm14.08 5.313l-1.854.31v.422c0 .733.218 1.136.436 1.337.182.165.564.367 1.582.367h5.18c.636 0 1.236-.073 1.581-.385.4-.366.418-.97.418-1.447v-5.917h-1.854v3.206h-5.489v-3.206h-1.854v2.913c0 .568.164 1.062.436 1.3.182.165.564.367 1.582.367h5.325v1.703h-5.489v-.97zm12.28-5.313h-1.509v7.749h1.509V73.27l3.471 4.269h.364l3.435-4.397v5.33h1.745v-7.748H164.5l-3.745 4.598-3.762-4.598z" fill="#000"/></svg>