<svg width="226" height="59" fill="none" xmlns="http://www.w3.org/2000/svg"><path d="M226 31.04v.455c0 .81-.067 1.504-.202 2.056-.147.596-.399 1.087-.754 1.455-.356.374-.822.638-1.386.792-.522.14-1.172.215-1.92.215-.724 0-1.343-.056-1.846-.172-.546-.123-.994-.338-1.343-.639-.356-.307-.613-.724-.761-1.227-.141-.46-.208-1.044-.208-1.72v-9.36h2.429v3.05h3.82v2.174h-3.82v4.13c0 .467.03.817.098 1.05.049.178.116.295.202.363.098.073.245.116.435.135.27.018 1.577.024 1.822.012a2.29 2.29 0 00.552-.08.803.803 0 00.313-.166.807.807 0 00.196-.307 2.62 2.62 0 00.147-.669c.037-.294.055-.669.055-1.11v-.455H226v.019zM117.186 24.7a3.08 3.08 0 00-.767-.927 3.876 3.876 0 00-1.165-.626 8.066 8.066 0 00-1.57-.35 16.87 16.87 0 00-2.054-.11h-4.079c-.95 0-1.772.06-2.434.177-.687.123-1.264.314-1.718.565a3.053 3.053 0 00-1.116 1.02 4.16 4.16 0 00-.552 1.38 9.16 9.16 0 00-.19 1.682 66.846 66.846 0 00-.024 1.983c0 .724.006 1.387.024 1.982.019.62.08 1.185.19 1.682.117.522.301.989.552 1.381.264.412.638.755 1.116 1.02.454.25 1.031.441 1.718.564.662.117 1.478.178 2.434.178h4.091c.779 0 1.472-.037 2.054-.11a7.303 7.303 0 001.576-.357 3.94 3.94 0 001.166-.656c.312-.27.57-.596.754-.97a3.97 3.97 0 00.38-1.234c.068-.43.098-.92.098-1.448v-2.419h-8.543v2.173h6.115v.245c0 .406-.019.762-.055 1.056-.031.27-.092.497-.172.675a1.02 1.02 0 01-.307.393c-.135.11-.331.203-.57.27-.27.074-.607.13-1.006.16-.417.03-.92.05-1.496.05h-4.091c-.662 0-1.226-.02-1.674-.056-.417-.037-.761-.105-1.018-.209-.221-.092-.387-.209-.497-.368-.123-.172-.215-.418-.276-.73a8.24 8.24 0 01-.123-1.308 90.851 90.851 0 01-.018-1.958c0-.761.006-1.412.018-1.958a8.25 8.25 0 01.117-1.308c.061-.313.153-.552.282-.73.117-.16.276-.282.503-.368.258-.105.601-.178 1.018-.209a21.094 21.094 0 011.674-.055h4.079c.742 0 1.373.024 1.876.08.448.042.81.147 1.067.3.227.135.393.338.491.614.116.32.178.774.178 1.35v.283h2.428v-.282c0-.492-.036-.94-.104-1.345a3.698 3.698 0 00-.38-1.172zm2.913 11.355h2.429v-13.11h-2.429v13.11zm16.007-7.58c.214.65.325 1.48.325 2.449 0 .988-.111 1.83-.325 2.492-.227.706-.601 1.277-1.11 1.7-.497.412-1.147.706-1.926.878-.736.16-1.638.24-2.68.24-1.043 0-1.944-.08-2.68-.24-.779-.166-1.423-.46-1.926-.878-.509-.423-.883-.994-1.11-1.7-.215-.669-.325-1.504-.325-2.492 0-.976.11-1.799.325-2.45.227-.687.601-1.251 1.116-1.663.497-.399 1.147-.687 1.926-.84.736-.148 1.637-.228 2.68-.228 1.043 0 1.944.074 2.68.227.779.16 1.423.442 1.926.841.503.412.877.97 1.104 1.664zm-2.104 2.449c0-.516-.031-.951-.086-1.308a2.851 2.851 0 00-.245-.822 1.15 1.15 0 00-.368-.442 1.858 1.858 0 00-.619-.27 5.09 5.09 0 00-.963-.129 28.627 28.627 0 00-2.674 0 5.09 5.09 0 00-.963.129 1.863 1.863 0 00-.62.27 1.147 1.147 0 00-.367.442 2.819 2.819 0 00-.246.822 8.698 8.698 0 00-.086 1.308c0 .485.019.915.056 1.264.03.332.092.614.184.841.079.203.184.356.312.48.135.122.331.226.571.306.263.086.601.147.993.184.417.037.92.055 1.497.055.496 0 .944-.012 1.337-.036a4.38 4.38 0 00.95-.148c.245-.067.454-.165.62-.288.153-.11.276-.264.374-.467.11-.227.19-.515.245-.86.074-.355.098-.803.098-1.331zm16.013-2.382c.214.663.325 1.486.325 2.462 0 .976-.111 1.798-.325 2.461-.227.694-.601 1.258-1.11 1.676-.497.405-1.147.7-1.926.86-.736.153-1.637.232-2.68.232-.76 0-1.404-.055-1.913-.165a7.664 7.664 0 01-1.258-.356 2.175 2.175 0 01-.441-.234v.577h-2.429v-13.11h2.429v3.406a3.53 3.53 0 01.448-.19c.343-.123.76-.221 1.281-.301.509-.08 1.141-.117 1.883-.117 1.043 0 1.944.08 2.68.24.779.165 1.423.46 1.926.871.509.424.883.989 1.11 1.688zm-2.104 2.456c0-.48-.018-.897-.049-1.246a3.018 3.018 0 00-.178-.817 1.327 1.327 0 00-.319-.479 1.566 1.566 0 00-.57-.306 4.45 4.45 0 00-1-.178 17.398 17.398 0 00-1.496-.056c-.497 0-.944.012-1.331.037a4.958 4.958 0 00-.956.147 1.781 1.781 0 00-.614.289c-.153.117-.276.27-.38.473-.11.22-.196.503-.245.84a8.86 8.86 0 00-.086 1.32c0 .51.03.945.086 1.301.055.332.135.608.245.823.098.196.227.35.38.46.16.117.368.215.614.276.269.074.594.117.962.142.387.024.834.036 1.331.036.577 0 1.08-.018 1.497-.055a4.878 4.878 0 001.005-.178c.24-.073.43-.178.571-.3a1.27 1.27 0 00.319-.473c.085-.221.147-.491.177-.81.019-.35.037-.768.037-1.246zm15.541-2.32c.184.687.282 1.565.282 2.602v4.775h-2.429v-.534a2.39 2.39 0 01-.325.203c-.313.172-.699.3-1.196.393-.466.086-1.079.129-1.827.129-.975 0-1.822-.05-2.521-.154-.717-.104-1.318-.27-1.791-.49-.502-.24-.883-.56-1.128-.952-.245-.387-.368-.853-.368-1.375 0-.51.061-.952.184-1.32a2.64 2.64 0 01.576-.976c.252-.264.559-.466.914-.614a5.006 5.006 0 011.11-.306 9.158 9.158 0 011.3-.123c.454-.019.939-.025 1.454-.025.742 0 1.368.03 1.877.092a7.9 7.9 0 011.269.246c.166.049.313.098.442.153a14.839 14.839 0 00-.049-.595 3.689 3.689 0 00-.215-.933 1.361 1.361 0 00-.331-.51 1.266 1.266 0 00-.497-.276 3.252 3.252 0 00-.81-.141 16.34 16.34 0 00-1.165-.037c-.68 0-1.257.018-1.705.05-.417.03-.742.091-.969.177-.116.043-.276.123-.349.233-.068.105-.098.258-.098.455v.282h-2.429v-.282c0-.553.104-1.031.307-1.43.214-.418.57-.755 1.048-1.007.442-.233 1.025-.4 1.718-.504.668-.098 1.502-.147 2.471-.147.963 0 1.791.08 2.472.246.723.172 1.318.485 1.778.927.466.442.804 1.037 1 1.767zm-2.147 4.339a.564.564 0 00-.11-.362c-.055-.074-.178-.178-.466-.276-.276-.098-.663-.172-1.147-.215a19.962 19.962 0 00-1.877-.074c-.748 0-1.361.012-1.821.037-.528.03-.81.098-.951.154-.141.049-.227.116-.263.184-.037.086-.086.245-.086.552 0 .24.03.436.098.57.049.111.202.185.319.228.245.092.613.16 1.104.196.521.037 1.232.056 2.109.056.65 0 1.196-.031 1.626-.092.404-.056.729-.142.969-.246.19-.086.325-.184.392-.295a.789.789 0 00.104-.417zm4.857 3.038h2.429v-13.11h-2.429v13.11zm14.86-2.792l-6.862-10.319h-1.595l-.024-.043v.043h-1.527v13.111h2.428V25.927l6.654 10.128h2.03l6.544-9.962v9.962h2.428v-13.11h-3.207l-6.869 10.318zm34.497-6.562c-.331-.325-.785-.571-1.355-.73-.534-.154-1.227-.228-2.061-.228-.729 0-1.349.062-1.846.19-.503.13-.926.29-1.251.486-.092.055-.184.11-.263.171v-.589h-2.429v10.06h2.429v-6.12c0-.325.036-.625.11-.883.061-.221.184-.405.362-.565.19-.172.466-.307.828-.405.386-.11.907-.16 1.545-.16.675 0 1.208.031 1.589.087.41.06.619.159.717.233.117.086.184.19.221.337.049.221.073.504.073.854v.454h2.172v-.454c0-.56-.056-1.062-.16-1.498a2.462 2.462 0 00-.681-1.24zm-11.302 1.976c.184.688.282 1.566.282 2.603v4.775h-2.429v-.534a2.39 2.39 0 01-.325.203c-.313.172-.699.3-1.196.393-.466.086-1.079.129-1.827.129-.976 0-1.822-.05-2.521-.154-.718-.104-1.319-.27-1.791-.49-.503-.24-.883-.56-1.128-.952-.246-.387-.368-.853-.368-1.375 0-.51.061-.952.184-1.32a2.64 2.64 0 01.576-.976c.252-.264.558-.466.914-.614a5.006 5.006 0 011.11-.306 9.158 9.158 0 011.3-.123c.454-.019.939-.025 1.454-.025.742 0 1.367.03 1.876.092.509.062.939.148 1.27.246.165.049.313.098.441.153a11.88 11.88 0 00-.049-.595 3.692 3.692 0 00-.214-.933 1.373 1.373 0 00-.331-.51 1.266 1.266 0 00-.497-.276 3.252 3.252 0 00-.81-.141 16.36 16.36 0 00-1.165-.037c-.681 0-1.257.018-1.705.05-.417.03-.742.091-.969.177-.116.043-.276.123-.349.233-.068.105-.099.258-.099.455v.282h-2.428v-.282c0-.553.104-1.031.306-1.43.215-.418.571-.755 1.049-1.007.442-.233 1.024-.4 1.717-.504.669-.098 1.503-.147 2.472-.147.963 0 1.791.08 2.471.246.724.172 1.319.485 1.779.927.466.442.797 1.037 1 1.767zm-2.147 4.34a.57.57 0 00-.11-.362c-.056-.074-.178-.178-.466-.276-.276-.098-.663-.172-1.147-.215a19.962 19.962 0 00-1.877-.074c-.748 0-1.361.012-1.821.037-.528.03-.81.098-.951.154-.141.049-.227.116-.264.184-.036.086-.085.245-.085.552 0 .24.03.436.098.57.049.111.202.185.319.228.245.092.613.16 1.103.196.522.037 1.233.056 2.11.056.65 0 1.196-.031 1.625-.092a3.74 3.74 0 00.969-.246c.19-.086.325-.184.393-.295a.798.798 0 00.104-.417z" fill="#252734"/><path d="M58.949 59c16.278 0 29.474-13.208 29.474-29.5S75.227 0 58.95 0 29.475 13.208 29.475 29.5 42.67 59 58.949 59z" fill="url(#paint0_linear_357_224)"/><mask id="a" style="mask-type:luminance" maskUnits="userSpaceOnUse" x="39" y="6" width="20" height="47"><path d="M58.948 29.5a6.551 6.551 0 01-6.55 6.556 6.551 6.551 0 01-6.55-6.556 6.552 6.552 0 016.55-6.555 6.551 6.551 0 016.55 6.555zM41.053 41.09a6.558 6.558 0 000 9.269 6.544 6.544 0 009.26 0 6.558 6.558 0 000-9.27 6.544 6.544 0 00-9.26 0zm9.26-23.178a6.558 6.558 0 000-9.268 6.544 6.544 0 00-9.26 0 6.558 6.558 0 000 9.268 6.533 6.533 0 009.26 0z" fill="#fff"/></mask><g mask="url(#a)"><path d="M58.948 59c16.278 0 29.474-13.208 29.474-29.5S75.226 0 58.948 0 29.474 13.208 29.474 29.5 42.67 59 58.948 59z" fill="url(#paint1_linear_357_224)"/></g><path d="M22.924 6.562a6.551 6.551 0 016.55-6.556 6.551 6.551 0 016.55 6.556 6.551 6.551 0 01-6.55 6.555 6.555 6.555 0 01-6.55-6.555zm6.55 39.327a6.551 6.551 0 00-6.55 6.555A6.552 6.552 0 0029.474 59a6.551 6.551 0 006.55-6.556 6.551 6.551 0 00-6.55-6.555zM13.1 29.5a6.552 6.552 0 00-6.55-6.556A6.551 6.551 0 000 29.5a6.551 6.551 0 006.55 6.556A6.551 6.551 0 0013.1 29.5zM8.635 41.089a6.558 6.558 0 000 9.268 6.544 6.544 0 009.26 0 6.558 6.558 0 000-9.268 6.544 6.544 0 00-9.26 0zm0-32.447a6.558 6.558 0 000 9.27 6.544 6.544 0 009.26 0 6.558 6.558 0 000-9.27 6.544 6.544 0 00-9.26 0z" fill="url(#paint2_linear_357_224)"/><defs><linearGradient id="paint0_linear_357_224" x1="79.787" y1="8.644" x2="38.071" y2="50.323" gradientUnits="userSpaceOnUse"><stop stop-color="#B0EFFF"/><stop offset=".5" stop-color="#138FF5"/><stop offset="1" stop-color="#B04FFF"/></linearGradient><linearGradient id="paint1_linear_357_224" x1="79.786" y1="8.644" x2="38.07" y2="50.323" gradientUnits="userSpaceOnUse"><stop stop-color="#D7F7FF"/><stop offset=".5" stop-color="#89C7FA"/><stop offset="1" stop-color="#D7A7FF"/></linearGradient><linearGradient id="paint2_linear_357_224" x1="18.014" y1="58.999" x2="18.014" y2=".004" gradientUnits="userSpaceOnUse"><stop offset=".5" stop-color="#138FF5"/><stop offset="1" stop-color="#136EF5"/></linearGradient></defs></svg>