<svg width="237" height="52" fill="none" xmlns="http://www.w3.org/2000/svg"><path d="M69.134 39l-6.895-24.312H67l4.4 17.866h.227l4.7-17.866h4.33l4.711 17.878h.215l4.402-17.878h4.76L87.85 39h-4.366l-4.89-17.059h-.192L73.5 39h-4.366zm34.73.356c-1.837 0-3.424-.38-4.76-1.14-1.328-.767-2.35-1.851-3.066-3.252-.715-1.409-1.073-3.067-1.073-4.974 0-1.876.358-3.522 1.073-4.938.724-1.425 1.734-2.533 3.03-3.324 1.297-.8 2.819-1.2 4.569-1.2 1.129 0 2.195.183 3.197.547 1.01.356 1.9.91 2.672 1.662.779.752 1.391 1.71 1.837 2.873.445 1.155.668 2.532.668 4.13v1.318H96.993v-2.896h10.878c-.007-.823-.186-1.555-.536-2.196a3.893 3.893 0 00-1.467-1.532c-.621-.372-1.344-.558-2.171-.558-.883 0-1.659.214-2.326.641a4.423 4.423 0 00-1.563 1.662 4.763 4.763 0 00-.56 2.244v2.528c0 1.06.194 1.971.584 2.73a4.15 4.15 0 001.634 1.734c.7.396 1.519.593 2.457.593a5.28 5.28 0 001.706-.26 3.79 3.79 0 001.324-.796 3.31 3.31 0 00.847-1.294l4.032.451a6.257 6.257 0 01-1.455 2.778c-.708.783-1.615 1.393-2.72 1.828-1.106.427-2.37.641-3.793.641z" fill="#CF2745"/><path d="M132.465 39h-8.278V14.688h8.445c2.425 0 4.509.487 6.25 1.46 1.75.966 3.094 2.355 4.032 4.167.938 1.813 1.408 3.981 1.408 6.506 0 2.532-.473 4.708-1.42 6.528-.938 1.82-2.294 3.218-4.067 4.191-1.766.973-3.889 1.46-6.37 1.46zm-3.853-3.81h3.638c1.702 0 3.121-.309 4.258-.926 1.138-.626 1.993-1.556 2.565-2.79.573-1.243.859-2.794.859-4.653 0-1.86-.286-3.404-.859-4.63-.572-1.235-1.419-2.157-2.541-2.766-1.113-.617-2.497-.926-4.151-.926h-3.769v16.69zm27.835 4.166c-1.837 0-3.424-.38-4.76-1.14-1.327-.767-2.349-1.851-3.065-3.252-.716-1.409-1.074-3.067-1.074-4.974 0-1.876.358-3.522 1.074-4.938.723-1.425 1.733-2.533 3.03-3.324 1.296-.8 2.819-1.2 4.568-1.2 1.13 0 2.195.183 3.197.547 1.01.356 1.901.91 2.672 1.662.779.752 1.392 1.71 1.837 2.873.445 1.155.668 2.532.668 4.13v1.318h-15.018v-2.896h10.879c-.008-.823-.187-1.555-.537-2.196a3.893 3.893 0 00-1.467-1.532c-.62-.372-1.344-.558-2.171-.558-.883 0-1.658.214-2.326.641a4.43 4.43 0 00-1.563 1.663 4.762 4.762 0 00-.56 2.243v2.529c0 1.06.194 1.97.584 2.73.39.752.934 1.33 1.634 1.733.7.396 1.519.594 2.458.594.628 0 1.196-.087 1.705-.261a3.781 3.781 0 001.324-.796 3.31 3.31 0 00.847-1.294l4.032.451a6.236 6.236 0 01-1.455 2.778c-.708.784-1.614 1.393-2.72 1.828-1.105.427-2.37.641-3.793.641zm16.118-24.668V39h-4.318V14.688h4.318zM177.006 39V20.766h4.318V39h-4.318zm2.171-20.822a2.527 2.527 0 01-1.766-.676c-.493-.46-.739-1.01-.739-1.65 0-.65.246-1.2.739-1.65a2.503 2.503 0 011.766-.689c.691 0 1.28.23 1.765.689.493.45.74 1 .74 1.65 0 .64-.247 1.19-.74 1.65-.485.45-1.074.677-1.765.677zm22.952 2.588L195.605 39h-4.771l-6.525-18.234h4.604l4.21 13.545h.193l4.221-13.545h4.592zm10.477 18.59c-1.836 0-3.422-.38-4.759-1.14-1.328-.767-2.351-1.851-3.066-3.252-.716-1.409-1.073-3.067-1.073-4.974 0-1.876.357-3.522 1.073-4.938.724-1.425 1.734-2.533 3.029-3.324 1.297-.8 2.82-1.2 4.57-1.2 1.129 0 2.195.183 3.197.547a7.24 7.24 0 012.672 1.662c.778.752 1.39 1.71 1.837 2.873.446 1.155.668 2.532.668 4.13v1.318h-15.019v-2.896h10.879c-.007-.823-.186-1.555-.537-2.196a3.88 3.88 0 00-1.467-1.532c-.619-.372-1.343-.558-2.17-.558-.883 0-1.659.214-2.327.641a4.42 4.42 0 00-1.562 1.663 4.787 4.787 0 00-.562 2.243v2.529c0 1.06.196 1.97.586 2.73.388.752.933 1.33 1.633 1.733.7.396 1.519.594 2.458.594.629 0 1.196-.087 1.705-.261.51-.182.95-.448 1.325-.796a3.31 3.31 0 00.846-1.294l4.032.451a6.226 6.226 0 01-1.455 2.778c-.707.784-1.614 1.393-2.719 1.828-1.107.427-2.37.641-3.794.641zm11.8-.356V20.766h4.187v3.04h.191c.334-1.053.907-1.864 1.718-2.434.82-.578 1.753-.867 2.803-.867.239 0 .504.012.799.036.302.016.552.043.752.083v3.953c-.183-.063-.474-.119-.871-.166a8.035 8.035 0 00-1.133-.084c-.788 0-1.495.17-2.124.511a3.762 3.762 0 00-1.467 1.389c-.358.594-.537 1.278-.537 2.054V39h-4.318z" fill="#355598"/><mask id="a" style="mask-type:alpha" maskUnits="userSpaceOnUse" x="0" y="0" width="53" height="52"><path d="M26.126 52c14.429 0 26.126-11.64 26.126-26S40.555 0 26.126 0C11.697 0 0 11.64 0 26s11.697 26 26.126 26z" fill="#CF2745"/></mask><g mask="url(#a)"><path d="M26.126 52c14.429 0 26.126-11.64 26.126-26S40.555 0 26.126 0C11.697 0 0 11.64 0 26s11.697 26 26.126 26z" fill="#CF2745"/><path d="M9.798 27.412v24.553c0 .417.134.759.403 1.026.27.268.613.402 1.031.402H41.02c.419 0 .762-.134 1.031-.402.27-.267.404-.61.404-1.026V27.411h-9.33V43.17l-6.999-3.482-6.998 3.482V27.412h-9.33zm1.434 28.302c-1.042 0-1.93-.365-2.666-1.095a3.605 3.605 0 01-1.101-2.654V26.666c0-.453.072-.879.217-1.276.146-.4.364-.767.653-1.103l3.634-4.346c.338-.452.76-.793 1.267-1.023a3.897 3.897 0 011.633-.346h22.426c.582 0 1.134.115 1.656.346.521.232.95.573 1.288 1.023l3.679 4.434c.289.336.507.711.653 1.126.144.413.217.847.217 1.3v25.164a3.61 3.61 0 01-1.101 2.654c-.734.73-1.623 1.095-2.666 1.095h-29.79zm-.546-30.624h30.836l-3.102-3.705a1.744 1.744 0 00-.518-.357 1.432 1.432 0 00-.607-.135H14.911c-.209 0-.41.045-.607.135a1.736 1.736 0 00-.513.357l-3.105 3.705zm10.775 2.322v11.964l4.665-2.321 4.666 2.321V27.412H21.46z" fill="#fff"/></g></svg>