<svg width="87" height="96" fill="none" xmlns="http://www.w3.org/2000/svg"><g clip-path="url(#clip0_193_2054)" fill="#0089CD"><path d="M7.744 0h71.23S87.189-.427 87 9.67c-.157 8.405 0 70.42 0 70.42s0 7.773-7.822 7.868h-9.063V96L43.98 83.123l25.963-13.05v8.753h6.66c.44 0 .801-.364.801-.806V10.839a.807.807 0 00-.8-.806h-65.75a.807.807 0 00-.8.806v66.486c0 .442.36.805.8.805h6.315v-8.579l24.88 13.224L17.324 96v-8.943H8.482S0 87.437 0 79.094V8.105S-.47 0 7.744 0z"/><path d="M17.78 60.972v-44.13a.7.7 0 01.691-.694h12.236c.283 0 .534.173.644.442l12 30.778a.692.692 0 001.288 0l12.565-30.794a.683.683 0 01.644-.427h11.64a.7.7 0 01.69.696v44.934a.7.7 0 01-.69.696h-6.99a.7.7 0 01-.691-.695l.204-33.733c0-.774-1.068-.98-1.335-.253L48.094 62.014a.696.696 0 01-.644.459h-7.162a.71.71 0 01-.66-.474l-11.78-34.175c-.25-.743-1.35-.553-1.35.22l-.11 32.912c0 .822-.676 1.5-1.493 1.5h-5.638a1.494 1.494 0 01-1.492-1.5l.015.016z"/></g><defs><clipPath id="clip0_193_2054"><path fill="#fff" d="M0 0h87v96H0z"/></clipPath></defs></svg>