<svg width="188" height="73" viewBox="0 0 188 73" fill="none" xmlns="http://www.w3.org/2000/svg">
<g clip-path="url(#clip0_193_2029)">
<path d="M29.4623 26.1463C38.7243 13.5101 64.1181 4.44169 94.01 4.44169C123.902 4.44169 148.979 13.397 158.384 25.9099H184.033C172.338 10.9192 136.466 0 94.01 0C51.5541 0 15.3036 11.0323 3.80273 26.1463H29.4623Z" fill="black"/>
<path d="M160.03 28.4186C161.257 30.6086 162.013 32.8808 162.238 35.2251H187.99C187.785 32.8911 187.018 30.6189 185.73 28.4186H160.02H160.03Z" fill="black"/>
<path d="M188 37.7235H162.269C162.106 40.2322 161.349 42.669 160.03 45.0132H185.485C186.927 42.669 187.796 40.2322 188 37.7235Z" fill="black"/>
<path d="M158.384 47.522C148.979 60.0348 123.707 68.9901 94.0098 68.9901C64.3121 68.9901 39.3477 60.1479 29.7994 47.7585H4.52832C16.755 62.4099 52.1979 73 94.0098 73C135.822 73 171.653 62.2865 183.696 47.522H158.384Z" fill="black"/>
<path d="M25.762 37.9703H0.0410156C0.296589 40.4688 1.19621 42.9055 2.68876 45.2601H28.1337C26.7842 42.9261 25.9664 40.4894 25.762 37.9703Z" fill="black"/>
<path d="M0 35.4615H25.7618C25.9561 33.1173 26.6512 30.845 27.8473 28.655H2.14682C0.899619 30.8553 0.163567 33.1276 0 35.4615Z" fill="black"/>
<path d="M46.126 56.1895L92.3848 13.0784H126.407C130.649 13.0784 134.81 14.744 137.652 17.9108C139.789 20.2961 141.496 23.7508 141.302 28.6551C141.128 33.1071 139.431 36.4075 137.325 38.8032C134.043 42.5354 129.208 44.5095 124.26 44.5095H118.76L125.916 56.1895H105.838L92.8244 33.4875L122.103 33.2099C123.841 33.2305 125.252 30.3825 125.252 28.7579C125.252 26.7016 124.148 24.0695 121.633 24.0489L100.348 23.9564L66.4288 56.1998H46.126V56.1895Z" fill="black"/>
<path d="M97.6699 48.9717L91.4544 38.6694L80.9043 48.9717H97.6699Z" fill="black"/>
<path d="M98.8966 50.9869H78.8392L72.6543 57.0326H102.546L98.8966 50.9869Z" fill="black"/>
</g>
<defs>
<clipPath id="clip0_193_2029">
<rect width="188" height="73" fill="white"/>
</clipPath>
</defs>
</svg>
