<svg width="215" height="108" viewBox="0 0 215 108" fill="none" xmlns="http://www.w3.org/2000/svg">
<g clip-path="url(#clip0_193_1992)">
<path d="M22.2416 44.2759H11.121C9.07372 44.2759 7.41406 45.9433 7.41406 48.0001C7.41406 50.0568 9.07372 51.7242 11.121 51.7242H22.2416V55.4483C22.2416 57.5053 23.9013 59.1725 25.9485 59.1725C27.9958 59.1725 29.6554 57.5053 29.6554 55.4483V51.7242V44.2759V33.1035C29.6554 31.0468 27.9958 29.3794 25.9485 29.3794C23.9013 29.3794 22.2416 31.0468 22.2416 33.1035V44.2759Z" fill="#012D6C"/>
<path d="M0 33.1035V40.5517C0 42.6085 1.65966 44.2759 3.7069 44.2759C5.75413 44.2759 7.41379 42.6085 7.41379 40.5517V33.1035C7.41379 31.0467 5.75413 29.3793 3.7069 29.3793C1.65966 29.3793 0 31.0467 0 33.1035Z" fill="#012D6C"/>
<path d="M41.3765 29.3794C38.9977 29.3794 37.0693 31.3168 37.0693 33.7067V36.8277V40.5518V48.0001C37.0693 50.0569 38.729 51.7242 40.7762 51.7242C42.8235 51.7242 44.4831 50.0569 44.4831 48.0001H63.0176C65.0648 48.0001 66.7245 46.3327 66.7245 44.276C66.7245 42.2192 65.0648 40.5518 63.0176 40.5518H44.4831V36.8277H63.0176C65.0648 36.8277 66.7245 35.1603 66.7245 33.1036C66.7245 31.0468 65.0648 29.3794 63.0176 29.3794H44.4831H41.3765Z" fill="#012D6C"/>
<path d="M129.742 29.3794H115.514C113.135 29.3794 111.207 31.3168 111.207 33.7066V36.8277V55.4483C111.207 57.5053 112.867 59.1725 114.914 59.1725C116.961 59.1725 118.621 57.5053 118.621 55.4483V36.8277H122.328V55.4483C122.328 57.5053 123.987 59.1725 126.035 59.1725C128.082 59.1725 129.742 57.5053 129.742 55.4483V36.8277C131.789 36.8277 133.448 35.1603 133.448 33.1035C133.448 31.0468 131.789 29.3794 129.742 29.3794Z" fill="#012D6C"/>
<path d="M66.7238 55.4483C66.7238 53.3916 65.0641 51.7242 63.0169 51.7242H48.1893C46.1421 51.7242 44.4824 53.3916 44.4824 55.4483C44.4824 57.5053 46.1421 59.1725 48.1893 59.1725H63.0169C65.0641 59.1725 66.7238 57.5053 66.7238 55.4483Z" fill="#012D6C"/>
<path d="M152.583 29.3794C150.204 29.3794 148.275 31.3168 148.275 33.7067V36.8277V40.5518V48.0001C148.275 50.0569 149.935 51.7242 151.982 51.7242C154.03 51.7242 155.689 50.0569 155.689 48.0001H174.224C176.271 48.0001 177.931 46.3327 177.931 44.276C177.931 42.2192 176.271 40.5518 174.224 40.5518H155.689V36.8277H174.224C176.271 36.8277 177.931 35.1603 177.931 33.1036C177.931 31.0468 176.271 29.3794 174.224 29.3794H155.689H152.583Z" fill="#012D6C"/>
<path d="M203.879 29.3794H189.052C187.004 29.3794 185.345 31.0468 185.345 33.1035C185.345 35.1603 187.004 36.8277 189.052 36.8277H196.465V55.4483C196.465 57.5053 198.125 59.1725 200.172 59.1725C202.22 59.1725 203.879 57.5053 203.879 55.4483V36.8277H211.293C213.34 36.8277 215 35.1603 215 33.1035C215 31.0468 213.34 29.3794 211.293 29.3794H203.879Z" fill="#012D6C"/>
<path d="M177.931 55.4483C177.931 53.3916 176.271 51.7242 174.224 51.7242H159.396C157.349 51.7242 155.689 53.3916 155.689 55.4483C155.689 57.5053 157.349 59.1725 159.396 59.1725H174.224C176.271 59.1725 177.931 57.5053 177.931 55.4483Z" fill="#012D6C"/>
<path d="M100.086 59.1725C102.133 59.1725 103.793 57.5053 103.793 55.4483V40.5518C103.793 38.495 102.133 36.8277 100.086 36.8277C98.0386 36.8277 96.3789 38.495 96.3789 40.5518V55.4483C96.3789 57.5053 98.0386 59.1725 100.086 59.1725Z" fill="#012D6C"/>
<path d="M137.155 59.1725C139.202 59.1725 140.862 57.5053 140.862 55.4483V40.5518C140.862 38.495 139.202 36.8277 137.155 36.8277C135.108 36.8277 133.448 38.495 133.448 40.5518V55.4483C133.448 57.5053 135.108 59.1725 137.155 59.1725Z" fill="#012D6C"/>
<path d="M83.5699 30.4368L75.1903 38.8555C74.5162 39.5324 74.1377 40.4506 74.1377 41.4081V55.4483C74.1377 57.5053 75.7974 59.1725 77.8446 59.1725C79.8918 59.1725 81.5515 57.5053 81.5515 55.4483V44.1559C81.5515 43.4146 81.8445 42.7035 82.3666 42.1792L86.8783 37.6466C87.4002 37.1221 88.1078 36.8277 88.8458 36.8277H92.6722C94.7194 36.8277 96.3791 35.1603 96.3791 33.1035C96.3791 31.0468 94.7194 29.3794 92.6722 29.3794H86.1108C85.1579 29.3794 84.2437 29.7599 83.5699 30.4368Z" fill="#012D6C"/>
<path d="M211.293 78.6207H3.7069C1.65966 78.6207 0 76.9535 0 74.8966V70.3449C0 68.2881 1.65966 66.6207 3.7069 66.6207H211.293C213.34 66.6207 215 68.2881 215 70.3449V74.8966C215 76.9535 213.34 78.6207 211.293 78.6207Z" fill="#E0DA00"/>
<path d="M83.1169 70.3858C82.6698 70.3734 82.4464 70.6534 82.4464 71.226V76.3917C82.4667 76.9722 82.1869 77.2588 81.6069 77.2507C81.0227 77.2382 80.7305 76.9475 80.7305 76.3795V69.743C80.7305 69.0307 81.0513 68.6661 81.6932 68.6495L84.4821 68.662L85.048 68.6742C85.5686 68.6701 85.8289 68.9541 85.8289 69.5268C85.8289 70.1039 85.5807 70.3939 85.0848 70.398L83.1169 70.3858Z" fill="white"/>
<path d="M89.0889 69.7248C89.0889 69.004 89.4085 68.6415 90.0483 68.6369H94.2303C95.69 68.6454 96.6944 69.0388 97.244 69.8173C97.5146 70.2126 97.6499 70.6846 97.6499 71.232C97.6499 72.0727 97.3507 72.7193 96.752 73.1726C96.1575 73.5969 95.5527 73.8071 94.9377 73.8025H93.1726C92.5698 73.8191 92.2686 73.5371 92.2686 72.9563C92.2686 72.3999 92.5575 72.1138 93.1356 72.0973H94.9377C95.4256 72.0973 95.7331 71.9655 95.8601 71.7022C95.9176 71.5618 95.9462 71.4055 95.9462 71.232C95.9462 71.014 95.9096 70.8555 95.8356 70.7564C95.7658 70.6494 95.6223 70.5629 95.4052 70.4971C95.1632 70.4227 94.7633 70.3774 94.2058 70.3608H91.3952C91.0016 70.3608 90.8047 70.571 90.8047 70.9912V76.3854C90.8293 76.9703 90.5465 77.2588 89.9561 77.2507C89.3778 77.2507 89.0889 76.9622 89.0889 76.3854V69.7248Z" fill="white"/>
<path d="M104.686 71.8565C104.813 72.0048 104.946 72.052 105.086 71.9982L107.183 69.1809C107.392 68.8184 107.72 68.6369 108.167 68.6369H108.917C109.454 68.662 109.598 68.843 109.348 69.1809L103.653 76.7067C103.374 77.0773 102.997 77.2588 102.521 77.2507H101.974C101.527 77.1638 101.447 76.9169 101.734 76.5092L103.677 73.8954C103.8 73.6441 103.774 73.3989 103.597 73.1601L100.824 69.3725C100.533 68.9647 100.612 68.7195 101.063 68.6369H101.611C102.09 68.6289 102.468 68.8103 102.742 69.1809L104.686 71.8565Z" fill="white"/>
<path d="M112.017 69.5208C112.017 68.9523 112.308 68.662 112.89 68.6495H119.667C120.25 68.662 120.541 68.9523 120.541 69.5208V76.3795C120.541 76.9475 120.25 77.2382 119.667 77.2507C119.085 77.2548 118.804 76.9682 118.825 76.3917V70.3608L114.212 70.3488C113.892 70.3488 113.732 70.5177 113.732 70.8555V76.3917C113.753 76.9682 113.472 77.2548 112.89 77.2507C112.308 77.2382 112.017 76.9475 112.017 76.3795V69.5208Z" fill="white"/>
<path d="M123.807 69.5208C123.807 68.9523 124.098 68.662 124.68 68.6495H131.457C132.04 68.662 132.331 68.9523 132.331 69.5208V76.3795C132.331 76.9475 132.04 77.2382 131.457 77.2507C130.875 77.2548 130.594 76.9682 130.615 76.3917V70.3608L126.002 70.3488C125.682 70.3488 125.523 70.5177 125.523 70.8555V76.3917C125.543 76.9682 125.262 77.2548 124.68 77.2507C124.098 77.2382 123.807 76.9475 123.807 76.3795V69.5208Z" fill="white"/>
</g>
<defs>
<clipPath id="clip0_193_1992">
<rect width="215" height="108" fill="white"/>
</clipPath>
</defs>
</svg>
