<svg width="18" height="17" viewBox="0 0 18 17" fill="none" xmlns="http://www.w3.org/2000/svg">
<path fill-rule="evenodd" clip-rule="evenodd" d="M6.33333 15.8333C7.06971 15.8333 7.66667 15.2363 7.66667 14.5C7.66667 13.7636 7.06971 13.1666 6.33333 13.1666C5.59695 13.1666 5 13.7636 5 14.5C5 15.2363 5.59695 15.8333 6.33333 15.8333Z" stroke="#586D84" stroke-width="2" stroke-linecap="round" stroke-linejoin="round"/>
<path fill-rule="evenodd" clip-rule="evenodd" d="M14.3333 15.8333C15.0697 15.8333 15.6667 15.2363 15.6667 14.5C15.6667 13.7636 15.0697 13.1666 14.3333 13.1666C13.597 13.1666 13 13.7636 13 14.5C13 15.2363 13.597 15.8333 14.3333 15.8333Z" stroke="#586D84" stroke-width="2" stroke-linecap="round" stroke-linejoin="round"/>
<path d="M4.77996 4.49996H16.3333L15.2133 10.0933C15.0875 10.7268 14.5257 11.179 13.88 11.1666H6.83329C6.15961 11.1723 5.58752 10.6746 5.49996 10.0066L4.48663 2.32663C4.39971 1.66369 3.83523 1.16764 3.16663 1.16663H1.66663" stroke="#586D84" stroke-width="2" stroke-linecap="round" stroke-linejoin="round"/>
</svg>
