<svg width="167" height="79" viewBox="0 0 167 79" fill="none" xmlns="http://www.w3.org/2000/svg">
<path fill-rule="evenodd" clip-rule="evenodd" d="M72.5808 7.42385C78.7461 7.42385 83.9505 9.84469 88.1144 14.6866L92.9983 10.3289V0.968399H85.3919V2.17881C85.3919 2.58253 85.4721 3.71211 85.5517 3.9543C82.8297 1.29127 76.5842 0 72.6611 0C56.9676 0 43.6768 12.911 43.6768 28.8882C43.6768 45.0269 56.6475 58.4354 72.6611 58.4354C81.3083 58.4354 88.5944 54.9524 94.4396 48.4161L88.3546 43.5742C84.1105 48.497 78.8264 50.998 72.5808 50.998C60.9709 50.998 51.7632 40.5081 51.7632 28.9692C51.7632 17.5916 60.9709 7.42385 72.5808 7.42385ZM72.5012 34.2142C69.6184 34.2142 67.2967 31.8742 67.2967 28.9692C67.2967 26.0642 69.6184 23.7242 72.5012 23.7242C74.022 23.7242 75.3831 24.2886 76.4243 25.499L81.9492 20.6577C79.4667 17.8335 76.344 16.3812 72.5808 16.3812C65.7752 16.3812 60.0902 22.0296 60.0902 28.9692C60.0902 35.5859 65.6951 41.8796 72.5012 41.5571V34.2142ZM149.526 0.968399L131.11 20.3349L112.535 0.968399H96.2811V8.39224H101.646V41.154H109.733V17.5107C109.733 15.0089 109.572 12.0235 109.252 8.63425C111.414 11.2973 113.335 13.4761 115.096 15.3318L131.11 32.0355L147.045 15.3318C148.886 13.4761 150.807 11.2164 152.888 8.63425C152.568 12.0235 152.409 15.0089 152.409 17.5107V41.154H160.495V8.39224H165.86V0.968399H149.526ZM166.02 50.0297V57.4537H135.754V39.0554L143.841 30.0178V50.0297H166.02ZM96.1206 50.0297V57.4537H126.387V39.0554L118.299 30.0178V50.0297H96.1206Z" fill="#00A868"/>
<path fill-rule="evenodd" clip-rule="evenodd" d="M32.29 1.82251V60.4683H34.605V1.82251H32.29Z" fill="#00A868"/>
<path fill-rule="evenodd" clip-rule="evenodd" d="M23.7988 1.82251V60.4683H27.2714V1.82251H23.7988Z" fill="#00A868"/>
<path fill-rule="evenodd" clip-rule="evenodd" d="M13.7783 1.82251V60.4683H18.4085V1.82251H13.7783Z" fill="#00A868"/>
<path fill-rule="evenodd" clip-rule="evenodd" d="M1.13574 1.82251V60.4683H8.08103V1.82251H1.13574Z" fill="#00A868"/>
<path d="M9.13401 70.7424V72.5376L11.3152 72.1895V71.2553C11.3152 70.8523 11.3152 69.973 10.8063 69.4784C10.3519 69.0387 9.58843 69.0204 8.98859 69.0204H3.39012C2.79028 69.0204 2.02685 69.0387 1.57243 69.4784C1.06348 69.973 1.06348 70.8523 1.06348 71.2553V76.238C1.06348 76.641 1.06348 77.5203 1.57243 78.0149C2.02685 78.4546 2.79028 78.4729 3.39012 78.4729H8.98859C9.58843 78.4729 10.3519 78.4546 10.8063 78.0149C11.3152 77.5203 11.3152 76.641 11.3152 76.238V75.1572L9.13401 74.6992V76.7509H3.2447V70.7424H9.13401ZM19.709 72.098H23.4352V70.724H14.1287V72.098H17.8549V78.4729H19.709V72.098ZM27.5272 70.724L22.9648 78.4729H24.837L25.8004 76.7693H30.8899L31.8533 78.4729H33.9618L29.3267 70.724H27.5272ZM26.5275 75.3953L28.3451 72.1712L30.1447 75.3953H26.5275ZM38.6602 70.724L34.3704 78.4729H36.3154L39.4781 72.3178L42.6409 78.4729H44.8221L40.4597 70.724H38.6602ZM48.579 70.724H46.7249V78.4729H53.1232C53.8866 78.4729 54.341 78.363 54.65 78.2348C55.3953 77.905 55.5043 77.3738 55.5043 76.9524V75.0106C55.5043 74.4977 55.3044 74.1863 55.1045 73.9848C54.5955 73.4719 53.923 73.5268 53.3413 73.5268H48.579V70.724ZM52.9232 74.8091C53.105 74.8091 53.3958 74.8091 53.5776 74.974C53.7412 75.1206 53.7594 75.3037 53.7594 75.4503V76.4395C53.7594 76.6044 53.7412 76.7876 53.5776 76.9341C53.414 77.0807 53.1232 77.099 52.8687 77.099H48.579V74.8091H52.9232ZM57.3559 74.5344H61.5911V72.6475H57.3559V74.5344ZM75.3887 69.0204L71.0626 74.7359L66.6456 69.0204H64.8643V78.4729H66.6456V72.6292L66.5911 71.6217C66.7002 71.8964 66.8274 72.1529 67.1546 72.5926L70.6809 77.3371H71.1171L74.6435 72.6109C74.7343 72.501 75.007 72.0796 75.1888 71.6217C75.1161 72.1712 75.1161 72.4826 75.1161 72.6292V78.4729H77.1155V69.0204H75.3887ZM84.4186 70.724L79.8562 78.4729H81.7285L82.6918 76.7693H87.7814L88.7447 78.4729H90.8532L86.2181 70.724H84.4186ZM83.4189 75.3953L85.2366 72.1712L87.0361 75.3953H83.4189ZM94.6247 70.724H92.7707V78.4729H94.6247V74.974L99.4598 78.4729H102.422L96.5151 74.3145L101.823 70.724H99.1144L94.6247 73.8566V70.724ZM112.641 75.7434L110.787 75.3587V77.0074H105.679V72.1895H110.787V73.6184L112.641 73.3436V72.5559C112.641 72.0613 112.623 71.4568 112.205 71.0904C111.968 70.8706 111.514 70.724 110.623 70.724H105.825C105.043 70.724 104.552 70.8339 104.261 71.0904C103.843 71.4568 103.825 72.0613 103.825 72.5559V76.641C103.825 77.1173 103.862 77.7218 104.243 78.0882C104.589 78.3996 105.188 78.4729 105.825 78.4729H110.623C111.514 78.4729 111.968 78.3264 112.205 78.1065C112.623 77.7402 112.641 77.1356 112.641 76.641V75.7434ZM115.705 70.724V78.4729H117.196L123.83 72.8307V78.4729H125.684V70.724H124.194L117.559 76.3662V70.724H115.705ZM130.633 70.724H129.124V78.4729H130.633V73.2704L134.105 77.5387H134.468L137.904 73.1421V78.4729H139.648V70.724H138.14L134.395 75.3221L130.633 70.724ZM144.713 76.0365L142.859 76.3479V76.7693C142.859 77.502 143.077 77.905 143.295 78.1065C143.477 78.2714 143.859 78.4729 144.877 78.4729H150.057C150.693 78.4729 151.293 78.3996 151.638 78.0882C152.038 77.7218 152.056 77.1173 152.056 76.641V70.724H150.202V73.9298H144.713V70.724H142.859V73.6367C142.859 74.2046 143.023 74.6992 143.295 74.9374C143.477 75.1022 143.859 75.3037 144.877 75.3037H150.202V77.0074H144.713V76.0365ZM156.993 70.724H155.484V78.4729H156.993V73.2704L160.464 77.5387H160.828L164.263 73.1421V78.4729H166.008V70.724H164.5L160.755 75.3221L156.993 70.724Z" fill="black"/>
</svg>
