<svg width="226" height="59" viewBox="0 0 226 59" fill="none" xmlns="http://www.w3.org/2000/svg">
<path d="M226 31.0406V31.4948C226 32.305 225.933 32.9986 225.798 33.5511C225.651 34.1465 225.399 34.6375 225.044 35.0058C224.688 35.3802 224.222 35.6442 223.658 35.7976C223.136 35.9388 222.486 36.0125 221.738 36.0125C221.014 36.0125 220.395 35.9572 219.892 35.8406C219.346 35.7178 218.898 35.503 218.549 35.2022C218.193 34.8953 217.936 34.4779 217.788 33.9746C217.647 33.5142 217.58 32.9311 217.58 32.2559V22.8952H220.009V25.9459H223.829V28.1188H220.009V32.2498C220.009 32.7163 220.039 33.0662 220.107 33.2994C220.156 33.4774 220.223 33.594 220.309 33.6616C220.407 33.7352 220.554 33.7782 220.744 33.7966C221.014 33.815 222.321 33.8212 222.566 33.8089C222.781 33.8027 222.965 33.772 223.118 33.7291C223.247 33.6922 223.345 33.637 223.431 33.5633C223.504 33.4958 223.572 33.3976 223.627 33.2564C223.694 33.0907 223.743 32.8636 223.774 32.5874C223.811 32.2927 223.829 31.9183 223.829 31.4764V31.0221H226V31.0406ZM117.186 24.6998C116.996 24.3438 116.738 24.0369 116.419 23.773C116.107 23.5213 115.714 23.3065 115.254 23.1469C114.813 22.9934 114.285 22.8768 113.684 22.797C113.095 22.7234 112.402 22.6865 111.63 22.6865H107.551C106.601 22.6865 105.779 22.7479 105.117 22.8645C104.43 22.9873 103.853 23.1776 103.399 23.4292C102.921 23.6932 102.547 24.0369 102.283 24.4482C102.032 24.841 101.842 25.3075 101.731 25.8293C101.621 26.3265 101.56 26.8912 101.541 27.5111C101.523 28.1065 101.517 28.7694 101.517 29.4938C101.517 30.2181 101.523 30.881 101.541 31.4764C101.56 32.0963 101.621 32.661 101.731 33.1582C101.848 33.68 102.032 34.1465 102.283 34.5393C102.547 34.9506 102.921 35.2943 103.399 35.5582C103.853 35.8099 104.43 36.0002 105.117 36.123C105.779 36.2396 106.595 36.301 107.551 36.301H111.642C112.421 36.301 113.114 36.2641 113.696 36.1905C114.297 36.1168 114.831 35.9941 115.272 35.8345C115.732 35.6626 116.125 35.4416 116.438 35.1777C116.75 34.9076 117.008 34.5823 117.192 34.2079C117.376 33.8457 117.505 33.4344 117.572 32.9741C117.64 32.5444 117.67 32.0534 117.67 31.5255V29.107H109.127V31.2799H115.242V31.5255C115.242 31.9306 115.223 32.2866 115.187 32.5812C115.156 32.8513 115.095 33.0784 115.015 33.2564C114.941 33.416 114.843 33.5449 114.708 33.6493C114.573 33.7598 114.377 33.8518 114.138 33.9194C113.868 33.993 113.531 34.0483 113.132 34.0789C112.715 34.1096 112.212 34.1281 111.636 34.1281H107.545C106.883 34.1281 106.319 34.1096 105.871 34.0728C105.454 34.036 105.11 33.9685 104.853 33.8641C104.632 33.772 104.466 33.6554 104.356 33.4958C104.233 33.324 104.141 33.0784 104.08 32.7654C104.013 32.4155 103.97 31.9736 103.957 31.458C103.945 30.9117 103.939 30.261 103.939 29.4999C103.939 28.7388 103.945 28.0881 103.957 27.5418C103.97 27.0201 104.007 26.5843 104.074 26.2344C104.135 25.9213 104.227 25.682 104.356 25.5039C104.473 25.3444 104.632 25.2216 104.859 25.1357C105.117 25.0313 105.46 24.9576 105.877 24.927C106.325 24.8901 106.889 24.8717 107.551 24.8717H111.63C112.372 24.8717 113.003 24.8963 113.506 24.9515C113.954 24.9945 114.316 25.0988 114.573 25.2523C114.8 25.3873 114.966 25.5899 115.064 25.8661C115.18 26.1853 115.242 26.6395 115.242 27.2165V27.4988H117.67V27.2165C117.67 26.7254 117.634 26.2773 117.566 25.8722C117.499 25.4364 117.37 25.0497 117.186 24.6998ZM120.099 36.0554H122.528V22.9443H120.099V36.0554ZM136.106 28.4748C136.32 29.1255 136.431 29.9541 136.431 30.9239C136.431 31.9122 136.32 32.7531 136.106 33.416C135.879 34.1219 135.505 34.6928 134.996 35.1163C134.499 35.5276 133.849 35.8222 133.07 35.9941C132.334 36.1537 131.432 36.2334 130.39 36.2334C129.347 36.2334 128.446 36.1537 127.71 35.9941C126.931 35.8283 126.287 35.5337 125.784 35.1163C125.275 34.6928 124.901 34.1219 124.674 33.416C124.459 32.747 124.349 31.9122 124.349 30.9239C124.349 29.948 124.459 29.1255 124.674 28.4748C124.901 27.7873 125.275 27.2226 125.79 26.8114C126.287 26.4124 126.937 26.1239 127.716 25.9704C128.452 25.8231 129.353 25.7433 130.396 25.7433C131.439 25.7433 132.34 25.817 133.076 25.9704C133.855 26.13 134.499 26.4124 135.002 26.8114C135.505 27.2226 135.879 27.7812 136.106 28.4748ZM134.002 30.9239C134.002 30.4083 133.971 29.9725 133.916 29.6165C133.861 29.2851 133.781 29.0088 133.671 28.794C133.573 28.6037 133.456 28.4564 133.303 28.3521C133.137 28.2354 132.929 28.1434 132.684 28.082C132.414 28.0145 132.089 27.9715 131.721 27.9531C131.328 27.9347 130.88 27.9224 130.384 27.9224C129.887 27.9224 129.439 27.9347 129.047 27.9531C128.679 27.9715 128.354 28.0145 128.084 28.082C127.839 28.1434 127.63 28.2354 127.464 28.3521C127.311 28.4564 127.195 28.6037 127.097 28.794C126.986 29.0088 126.906 29.2851 126.851 29.6165C126.796 29.9725 126.765 30.4083 126.765 30.9239C126.765 31.4088 126.784 31.8385 126.821 32.1884C126.851 32.5199 126.913 32.8022 127.005 33.0293C127.084 33.2319 127.189 33.3853 127.317 33.5081C127.452 33.6309 127.648 33.7352 127.888 33.815C128.151 33.9009 128.489 33.9623 128.881 33.9992C129.298 34.036 129.801 34.0544 130.378 34.0544C130.874 34.0544 131.322 34.0421 131.715 34.0176C132.082 33.993 132.401 33.95 132.665 33.8703C132.91 33.8027 133.119 33.7045 133.285 33.5818C133.438 33.4713 133.561 33.3178 133.659 33.1153C133.769 32.8881 133.849 32.5997 133.904 32.2559C133.978 31.8999 134.002 31.4518 134.002 30.9239ZM150.015 28.5423C150.229 29.2053 150.34 30.0278 150.34 31.0037C150.34 31.9797 150.229 32.8022 150.015 33.4651C149.788 34.1587 149.414 34.7235 148.905 35.1409C148.408 35.546 147.758 35.8406 146.979 36.0002C146.243 36.1536 145.342 36.2334 144.299 36.2334C143.539 36.2334 142.895 36.1782 142.386 36.0677C141.877 35.9634 141.453 35.8406 141.128 35.7117C140.969 35.6503 140.822 35.5705 140.687 35.4785V36.0554H138.258V22.9443H140.687V26.351C140.816 26.2835 140.963 26.2221 141.135 26.1607C141.478 26.038 141.895 25.9397 142.416 25.86C142.925 25.7802 143.557 25.7433 144.299 25.7433C145.342 25.7433 146.243 25.8231 146.979 25.9827C147.758 26.1485 148.402 26.4431 148.905 26.8543C149.414 27.2779 149.788 27.8426 150.015 28.5423ZM147.911 30.9976C147.911 30.5188 147.893 30.1014 147.862 29.7516C147.832 29.4262 147.77 29.1561 147.684 28.9352C147.605 28.7388 147.5 28.5853 147.365 28.4564C147.224 28.3275 147.034 28.2293 146.795 28.1495C146.525 28.0636 146.194 28.0022 145.795 27.9715C145.378 27.9347 144.876 27.9162 144.299 27.9162C143.802 27.9162 143.355 27.9285 142.968 27.9531C142.606 27.9776 142.281 28.0267 142.012 28.1004C141.766 28.1679 141.558 28.2661 141.398 28.3889C141.245 28.5055 141.122 28.659 141.018 28.8615C140.908 29.0825 140.822 29.3648 140.773 29.7024C140.717 30.0646 140.687 30.5127 140.687 31.0221C140.687 31.5316 140.717 31.9674 140.773 32.3234C140.828 32.6549 140.908 32.9311 141.018 33.146C141.116 33.3424 141.245 33.4958 141.398 33.6063C141.558 33.7229 141.766 33.8211 142.012 33.8825C142.281 33.9562 142.606 33.9992 142.974 34.0237C143.361 34.0483 143.808 34.0605 144.305 34.0605C144.882 34.0605 145.385 34.0421 145.802 34.0053C146.2 33.9685 146.538 33.9132 146.807 33.8273C147.047 33.7536 147.237 33.6493 147.378 33.5265C147.513 33.4038 147.617 33.2503 147.697 33.0539C147.782 32.8329 147.844 32.5628 147.874 32.2436C147.893 31.8938 147.911 31.4764 147.911 30.9976ZM163.452 28.6774C163.636 29.3648 163.734 30.2426 163.734 31.2799V36.0554H161.305V35.5214C161.207 35.5951 161.097 35.6626 160.98 35.724C160.667 35.8958 160.281 36.0247 159.784 36.1168C159.318 36.2028 158.705 36.2457 157.957 36.2457C156.982 36.2457 156.135 36.1966 155.436 36.0923C154.719 35.9879 154.118 35.8222 153.645 35.6012C153.143 35.3618 152.762 35.0426 152.517 34.6498C152.272 34.2631 152.149 33.7966 152.149 33.2748C152.149 32.7654 152.21 32.3234 152.333 31.9551C152.462 31.5746 152.658 31.2431 152.909 30.9792C153.161 30.7152 153.468 30.5127 153.823 30.3654C154.148 30.2303 154.522 30.126 154.933 30.0585C155.332 29.9909 155.767 29.948 156.233 29.9357C156.687 29.9173 157.172 29.9111 157.687 29.9111C158.429 29.9111 159.055 29.9418 159.564 30.0032C160.073 30.0646 160.502 30.1505 160.833 30.2487C160.999 30.2978 161.146 30.347 161.275 30.4022C161.262 30.1874 161.244 29.9848 161.226 29.8068C161.183 29.4324 161.109 29.1193 161.011 28.8738C160.925 28.659 160.815 28.4871 160.68 28.3643C160.545 28.2416 160.385 28.1495 160.183 28.0881C159.956 28.0144 159.686 27.9653 159.373 27.9469C159.036 27.9224 158.644 27.9101 158.208 27.9101C157.528 27.9101 156.951 27.9285 156.503 27.9592C156.086 27.9899 155.761 28.0513 155.534 28.1372C155.418 28.1802 155.258 28.26 155.185 28.3705C155.117 28.4748 155.087 28.6283 155.087 28.8247V29.107H152.658V28.8247C152.658 28.2722 152.762 27.7935 152.965 27.3945C153.179 26.9771 153.535 26.6395 154.013 26.3878C154.455 26.1546 155.038 25.9889 155.731 25.8845C156.399 25.7863 157.233 25.7372 158.202 25.7372C159.165 25.7372 159.993 25.817 160.674 25.9827C161.397 26.1546 161.992 26.4676 162.452 26.9096C162.918 27.3515 163.256 27.9469 163.452 28.6774ZM161.305 33.017C161.305 32.8697 161.269 32.747 161.195 32.6549C161.14 32.5812 161.017 32.4769 160.729 32.3787C160.453 32.2805 160.066 32.2068 159.582 32.1638C159.079 32.1147 158.447 32.0902 157.705 32.0902C156.957 32.0902 156.344 32.1025 155.884 32.127C155.356 32.1577 155.074 32.2252 154.933 32.2805C154.792 32.3296 154.706 32.3971 154.67 32.4646C154.633 32.5506 154.584 32.7101 154.584 33.017C154.584 33.2564 154.614 33.4529 154.682 33.5879C154.731 33.6984 154.884 33.772 155.001 33.815C155.246 33.9071 155.614 33.9746 156.105 34.0114C156.626 34.0483 157.337 34.0667 158.214 34.0667C158.864 34.0667 159.41 34.036 159.84 33.9746C160.244 33.9194 160.569 33.8334 160.809 33.7291C160.999 33.6431 161.134 33.5449 161.201 33.4344C161.269 33.324 161.305 33.1828 161.305 33.017ZM166.162 36.0554H168.591V22.9443H166.162V36.0554ZM181.022 33.2626L174.16 22.9443H172.565L172.541 22.9014V22.9443H171.014V36.0554H173.442V25.9275L180.096 36.0554H182.126L188.67 26.0932V36.0554H191.098V22.9443H187.891L181.022 33.2626ZM215.519 26.7009C215.188 26.3756 214.734 26.13 214.164 25.9704C213.63 25.817 212.937 25.7433 212.103 25.7433C211.374 25.7433 210.754 25.8047 210.257 25.9336C209.754 26.0625 209.331 26.2221 209.006 26.4185C208.914 26.4738 208.822 26.529 208.743 26.5904V26.0011H206.314V36.0616H208.743V29.9418C208.743 29.6165 208.779 29.3157 208.853 29.0579C208.914 28.837 209.037 28.6528 209.215 28.4932C209.405 28.3214 209.681 28.1863 210.043 28.0881C210.429 27.9776 210.95 27.9285 211.588 27.9285C212.263 27.9285 212.796 27.9592 213.177 28.0145C213.587 28.0758 213.796 28.174 213.894 28.2477C214.011 28.3336 214.078 28.438 214.115 28.5853C214.164 28.8063 214.188 29.0886 214.188 29.4385V29.8927H216.36V29.4385C216.36 28.8799 216.304 28.3766 216.2 27.9408C216.09 27.4497 215.857 27.0323 215.519 26.7009ZM204.217 28.6774C204.401 29.3648 204.499 30.2426 204.499 31.2799V36.0554H202.07V35.5214C201.972 35.5951 201.862 35.6626 201.745 35.724C201.432 35.8958 201.046 36.0247 200.549 36.1168C200.083 36.2028 199.47 36.2457 198.722 36.2457C197.746 36.2457 196.9 36.1966 196.201 36.0923C195.483 35.9879 194.882 35.8222 194.41 35.6012C193.907 35.3618 193.527 35.0426 193.282 34.6498C193.036 34.2631 192.914 33.7966 192.914 33.2748C192.914 32.7654 192.975 32.3234 193.098 31.9551C193.227 31.5746 193.423 31.2431 193.674 30.9792C193.926 30.7152 194.232 30.5127 194.588 30.3654C194.913 30.2303 195.287 30.126 195.698 30.0585C196.097 29.9909 196.532 29.948 196.998 29.9357C197.452 29.9173 197.937 29.9111 198.452 29.9111C199.194 29.9111 199.819 29.9418 200.328 30.0032C200.837 30.0646 201.267 30.1505 201.598 30.2487C201.763 30.2978 201.911 30.347 202.039 30.4022C202.027 30.1874 202.009 29.9848 201.99 29.8068C201.947 29.4324 201.874 29.1193 201.776 28.8738C201.69 28.659 201.579 28.4871 201.445 28.3643C201.31 28.2416 201.15 28.1495 200.948 28.0881C200.721 28.0144 200.451 27.9653 200.138 27.9469C199.801 27.9224 199.408 27.9101 198.973 27.9101C198.292 27.9101 197.716 27.9285 197.268 27.9592C196.851 27.9899 196.526 28.0513 196.299 28.1372C196.183 28.1802 196.023 28.26 195.95 28.3705C195.882 28.4748 195.851 28.6283 195.851 28.8247V29.107H193.423V28.8247C193.423 28.2722 193.527 27.7935 193.729 27.3945C193.944 26.9771 194.3 26.6395 194.778 26.3878C195.22 26.1546 195.802 25.9889 196.495 25.8845C197.164 25.7863 197.998 25.7372 198.967 25.7372C199.93 25.7372 200.758 25.817 201.438 25.9827C202.162 26.1546 202.757 26.4676 203.217 26.9096C203.683 27.3515 204.014 27.9469 204.217 28.6774ZM202.07 33.017C202.07 32.8697 202.033 32.747 201.96 32.6549C201.904 32.5812 201.782 32.4769 201.494 32.3787C201.218 32.2805 200.831 32.2068 200.347 32.1638C199.844 32.1147 199.212 32.0902 198.47 32.0902C197.722 32.0902 197.109 32.1025 196.649 32.127C196.121 32.1577 195.839 32.2252 195.698 32.2805C195.557 32.3296 195.471 32.3971 195.434 32.4646C195.398 32.5506 195.349 32.7101 195.349 33.017C195.349 33.2564 195.379 33.4529 195.447 33.5879C195.496 33.6984 195.649 33.772 195.766 33.815C196.011 33.9071 196.379 33.9746 196.869 34.0114C197.391 34.0483 198.102 34.0667 198.979 34.0667C199.629 34.0667 200.175 34.036 200.604 33.9746C201.009 33.9194 201.334 33.8334 201.573 33.7291C201.763 33.6431 201.898 33.5449 201.966 33.4344C202.033 33.324 202.07 33.1828 202.07 33.017Z" fill="#252734"/>
<path d="M58.9489 59C75.2271 59 88.4231 45.7924 88.4231 29.5C88.4231 13.2076 75.2271 0 58.9489 0C42.6707 0 29.4746 13.2076 29.4746 29.5C29.4746 45.7924 42.6707 59 58.9489 59Z" fill="url(#paint0_linear_357_224)"/>
<mask id="mask0_357_224" style="mask-type:luminance" maskUnits="userSpaceOnUse" x="39" y="6" width="20" height="47">
<path d="M58.9483 29.5001C58.9483 33.1216 56.0168 36.0556 52.3985 36.0556C48.7801 36.0556 45.8486 33.1216 45.8486 29.5001C45.8486 25.8786 48.7801 22.9445 52.3985 22.9445C56.0168 22.9445 58.9483 25.8786 58.9483 29.5001ZM41.0528 41.0889C38.4954 43.6485 38.4954 47.7979 41.0528 50.3575C43.6102 52.9172 47.756 52.9172 50.3133 50.3575C52.8707 47.7979 52.8707 43.6485 50.3133 41.0889C47.756 38.5293 43.6102 38.5293 41.0528 41.0889ZM50.3133 17.9112C52.8707 15.3516 52.8707 11.2022 50.3133 8.64261C47.756 6.083 43.6102 6.083 41.0528 8.64261C38.4954 11.2022 38.4954 15.3516 41.0528 17.9112C43.6102 20.477 47.756 20.477 50.3133 17.9112Z" fill="white"/>
</mask>
<g mask="url(#mask0_357_224)">
<path d="M58.9479 59C75.2261 59 88.4221 45.7924 88.4221 29.5C88.4221 13.2076 75.2261 0 58.9479 0C42.6697 0 29.4736 13.2076 29.4736 29.5C29.4736 45.7924 42.6697 59 58.9479 59Z" fill="url(#paint1_linear_357_224)"/>
</g>
<path d="M22.9244 6.56166C22.9244 2.94015 25.8559 0.00610352 29.4743 0.00610352C33.0926 0.00610352 36.0241 2.94015 36.0241 6.56166C36.0241 10.1832 33.0926 13.1172 29.4743 13.1172C25.8559 13.1172 22.9244 10.177 22.9244 6.56166ZM29.4743 45.8889C25.8559 45.8889 22.9244 48.8229 22.9244 52.4444C22.9244 56.0659 25.8559 59 29.4743 59C33.0926 59 36.0241 56.0659 36.0241 52.4444C36.0241 48.8229 33.0926 45.8889 29.4743 45.8889ZM13.0997 29.5C13.0997 25.8785 10.1682 22.9444 6.54984 22.9444C2.93148 22.9444 0 25.8785 0 29.5C0 33.1215 2.93148 36.0555 6.54984 36.0555C10.1682 36.0555 13.0997 33.1215 13.0997 29.5ZM8.63499 41.0888C6.07761 43.6484 6.07761 47.7978 8.63499 50.3574C11.1924 52.917 15.3381 52.917 17.8955 50.3574C20.4529 47.7978 20.4529 43.6484 17.8955 41.0888C15.3381 38.5292 11.1924 38.5292 8.63499 41.0888ZM8.63499 8.6425C6.07761 11.2021 6.07761 15.3515 8.63499 17.9111C11.1924 20.4707 15.3381 20.4707 17.8955 17.9111C20.4529 15.3515 20.4529 11.2021 17.8955 8.6425C15.3381 6.08289 11.1924 6.08289 8.63499 8.6425Z" fill="url(#paint2_linear_357_224)"/>
<defs>
<linearGradient id="paint0_linear_357_224" x1="79.7866" y1="8.64382" x2="38.0711" y2="50.323" gradientUnits="userSpaceOnUse">
<stop stop-color="#B0EFFF"/>
<stop offset="0.5" stop-color="#138FF5"/>
<stop offset="1" stop-color="#B04FFF"/>
</linearGradient>
<linearGradient id="paint1_linear_357_224" x1="79.7856" y1="8.64382" x2="38.0701" y2="50.323" gradientUnits="userSpaceOnUse">
<stop stop-color="#D7F7FF"/>
<stop offset="0.5" stop-color="#89C7FA"/>
<stop offset="1" stop-color="#D7A7FF"/>
</linearGradient>
<linearGradient id="paint2_linear_357_224" x1="18.0139" y1="58.9991" x2="18.0139" y2="0.00389523" gradientUnits="userSpaceOnUse">
<stop offset="0.5" stop-color="#138FF5"/>
<stop offset="1" stop-color="#136EF5"/>
</linearGradient>
</defs>
</svg>
