<svg width="237" height="52" viewBox="0 0 237 52" fill="none" xmlns="http://www.w3.org/2000/svg">
<path d="M69.1339 38.9999L62.2393 14.6882H66.9987L71.4003 32.554H71.6269L76.3268 14.6882H80.6568L85.3684 32.5659H85.5832L89.9849 14.6882H94.7443L87.8496 38.9999H83.4838L78.5932 21.9413H78.4023L73.4997 38.9999H69.1339ZM103.864 39.3561C102.027 39.3561 100.44 38.9762 99.1041 38.2164C97.776 37.4488 96.7541 36.3646 96.0384 34.9638C95.3228 33.5552 94.9648 31.8971 94.9648 29.9898C94.9648 28.1143 95.3228 26.4681 96.0384 25.0515C96.7621 23.6271 97.7721 22.5191 99.0683 21.7278C100.365 20.9284 101.887 20.5288 103.637 20.5288C104.766 20.5288 105.832 20.7108 106.834 21.0748C107.844 21.431 108.734 21.985 109.506 22.7367C110.285 23.4885 110.897 24.4462 111.343 25.6096C111.788 26.7649 112.011 28.142 112.011 29.7406V31.0582H96.9928V28.1618H107.871C107.864 27.3387 107.685 26.6067 107.335 25.9656C106.985 25.3167 106.496 24.8062 105.868 24.4344C105.247 24.0624 104.524 23.8763 103.697 23.8763C102.814 23.8763 102.038 24.09 101.371 24.5174C100.702 24.9369 100.182 25.4909 99.8079 26.1793C99.4421 26.86 99.2551 27.6078 99.2473 28.4229V30.9514C99.2473 32.0119 99.4421 32.9221 99.8317 33.6818C100.221 34.4336 100.766 35.0113 101.466 35.4149C102.166 35.8106 102.985 36.0084 103.923 36.0084C104.551 36.0084 105.12 35.9213 105.629 35.7473C106.138 35.5653 106.579 35.3001 106.953 34.9519C107.327 34.6037 107.609 34.1725 107.8 33.658L111.832 34.1091C111.577 35.1696 111.092 36.0955 110.377 36.8869C109.669 37.6704 108.762 38.2797 107.657 38.715C106.551 39.1424 105.287 39.3561 103.864 39.3561Z" fill="#CF2745"/>
<path d="M132.465 39.0001H124.187V14.6884H132.632C135.057 14.6884 137.141 15.1751 138.882 16.1485C140.632 17.114 141.976 18.5029 142.914 20.3152C143.852 22.1276 144.322 24.296 144.322 26.8206C144.322 29.353 143.849 31.5294 142.902 33.3495C141.964 35.1697 140.608 36.5665 138.835 37.54C137.069 38.5133 134.946 39.0001 132.465 39.0001ZM128.612 35.1896H132.25C133.952 35.1896 135.371 34.881 136.508 34.2636C137.646 33.6383 138.501 32.7085 139.073 31.4738C139.646 30.2314 139.932 28.6803 139.932 26.8206C139.932 24.9606 139.646 23.4175 139.073 22.1909C138.501 20.9563 137.654 20.0342 136.532 19.4249C135.419 18.8076 134.035 18.499 132.381 18.499H128.612V35.1896ZM156.447 39.3563C154.61 39.3563 153.023 38.9763 151.687 38.2166C150.36 37.449 149.338 36.3648 148.622 34.964C147.906 33.5553 147.548 31.8973 147.548 29.99C147.548 28.1144 147.906 26.4683 148.622 25.0516C149.345 23.6272 150.355 22.5192 151.652 21.7279C152.948 20.9286 154.471 20.5289 156.22 20.5289C157.35 20.5289 158.415 20.7109 159.417 21.0749C160.427 21.4311 161.318 21.9851 162.089 22.7369C162.868 23.4887 163.481 24.4464 163.926 25.6097C164.371 26.765 164.594 28.1421 164.594 29.7407V31.0584H149.576V28.162H160.455C160.447 27.3389 160.268 26.6068 159.918 25.9657C159.568 25.3168 159.079 24.8063 158.451 24.4345C157.831 24.0625 157.107 23.8764 156.28 23.8764C155.397 23.8764 154.622 24.0902 153.954 24.5175C153.286 24.9371 152.765 25.491 152.391 26.1795C152.025 26.8601 151.839 27.608 151.831 28.4231V30.9516C151.831 32.012 152.025 32.9222 152.415 33.682C152.805 34.4338 153.349 35.0115 154.049 35.4151C154.749 35.8108 155.568 36.0086 156.507 36.0086C157.135 36.0086 157.703 35.9215 158.212 35.7475C158.721 35.5655 159.163 35.3003 159.536 34.9521C159.91 34.6039 160.192 34.1726 160.383 33.6582L164.415 34.1093C164.161 35.1697 163.676 36.0957 162.96 36.887C162.252 37.6706 161.346 38.2799 160.24 38.7152C159.135 39.1425 157.87 39.3563 156.447 39.3563ZM172.565 14.6884V39.0001H168.247V14.6884H172.565ZM177.006 39.0001V20.7663H181.324V39.0001H177.006ZM179.177 18.1785C178.493 18.1785 177.904 17.9529 177.411 17.5018C176.918 17.0428 176.672 16.4928 176.672 15.8518C176.672 15.2028 176.918 14.6528 177.411 14.2017C177.904 13.7427 178.493 13.5132 179.177 13.5132C179.868 13.5132 180.457 13.7427 180.942 14.2017C181.435 14.6528 181.682 15.2028 181.682 15.8518C181.682 16.4928 181.435 17.0428 180.942 17.5018C180.457 17.9529 179.868 18.1785 179.177 18.1785ZM202.129 20.7663L195.605 39.0001H190.834L184.309 20.7663H188.913L193.123 34.311H193.316L197.537 20.7663H202.129ZM212.606 39.3563C210.77 39.3563 209.184 38.9763 207.847 38.2166C206.519 37.449 205.496 36.3648 204.781 34.964C204.065 33.5553 203.708 31.8973 203.708 29.99C203.708 28.1144 204.065 26.4683 204.781 25.0516C205.505 23.6272 206.515 22.5192 207.81 21.7279C209.107 20.9286 210.63 20.5289 212.38 20.5289C213.509 20.5289 214.575 20.7109 215.577 21.0749C216.586 21.4311 217.477 21.9851 218.249 22.7369C219.027 23.4887 219.639 24.4464 220.086 25.6097C220.532 26.765 220.754 28.1421 220.754 29.7407V31.0584H205.735V28.162H216.614C216.607 27.3389 216.428 26.6068 216.077 25.9657C215.728 25.3168 215.239 24.8063 214.61 24.4345C213.991 24.0625 213.267 23.8764 212.44 23.8764C211.557 23.8764 210.781 24.0902 210.113 24.5175C209.445 24.9371 208.924 25.491 208.551 26.1795C208.185 26.8601 207.999 27.608 207.989 28.4231V30.9516C207.989 32.012 208.185 32.9222 208.575 33.682C208.963 34.4338 209.508 35.0115 210.208 35.4151C210.908 35.8108 211.727 36.0086 212.666 36.0086C213.295 36.0086 213.862 35.9215 214.371 35.7475C214.881 35.5655 215.321 35.3003 215.696 34.9521C216.07 34.6039 216.351 34.1726 216.542 33.6582L220.574 34.1093C220.321 35.1697 219.835 36.0957 219.119 36.887C218.412 37.6706 217.505 38.2799 216.4 38.7152C215.293 39.1425 214.03 39.3563 212.606 39.3563ZM224.406 39.0001V20.7663H228.593V23.8053H228.784C229.118 22.7527 229.691 21.9415 230.502 21.3717C231.322 20.794 232.255 20.5052 233.305 20.5052C233.544 20.5052 233.809 20.5171 234.104 20.5408C234.406 20.5566 234.656 20.5843 234.856 20.6238V24.577C234.673 24.5136 234.382 24.4581 233.985 24.4107C233.595 24.3552 233.218 24.3275 232.852 24.3275C232.064 24.3275 231.357 24.4978 230.728 24.8381C230.109 25.1705 229.62 25.6335 229.261 26.227C228.903 26.8206 228.724 27.5051 228.724 28.2807V39.0001H224.406Z" fill="#355598"/>
<mask id="mask0_193_2043" style="mask-type:alpha" maskUnits="userSpaceOnUse" x="0" y="0" width="53" height="52">
<path d="M26.126 52C40.555 52 52.252 40.3594 52.252 26C52.252 11.6406 40.555 0 26.126 0C11.697 0 0 11.6406 0 26C0 40.3594 11.697 52 26.126 52Z" fill="#CF2745"/>
</mask>
<g mask="url(#mask0_193_2043)">
<path d="M26.126 52C40.555 52 52.252 40.3594 52.252 26C52.252 11.6406 40.555 0 26.126 0C11.697 0 0 11.6406 0 26C0 40.3594 11.697 52 26.126 52Z" fill="#CF2745"/>
<path d="M9.79752 27.4115V51.9654C9.79752 52.3816 9.93203 52.7236 10.2011 52.9913C10.4701 53.2591 10.8138 53.393 11.2321 53.393H41.0205C41.4387 53.393 41.7824 53.2591 42.0514 52.9913C42.3205 52.7236 42.455 52.3816 42.455 51.9654V27.4115H33.1243V43.1694L26.1263 39.6872L19.1282 43.1694V27.4115H9.79752ZM11.2321 55.7144C10.1902 55.7144 9.30144 55.3491 8.56587 54.6187C7.83186 53.8883 7.46484 53.0037 7.46484 51.9654V26.6663C7.46484 26.2129 7.53716 25.7873 7.68178 25.3895C7.82796 24.9902 8.04568 24.6227 8.33493 24.2869L11.9692 19.9412C12.3067 19.4893 12.7289 19.148 13.2359 18.9175C13.7429 18.6869 14.2871 18.5715 14.8688 18.5715H37.2951C37.8768 18.5715 38.4288 18.6869 38.9513 18.9175C39.4723 19.1497 39.9016 19.4908 40.239 19.9412L43.9177 24.3751C44.2069 24.7109 44.4245 25.0862 44.5706 25.5011C44.7153 25.9143 44.7877 26.3476 44.7877 26.8011V51.9654C44.7877 53.0022 44.4206 53.8866 43.6867 54.6187C42.9527 55.3491 42.0639 55.7144 41.0205 55.7144H11.2321ZM10.6863 25.0901H41.5219L38.4195 21.3851C38.2687 21.235 38.0961 21.1158 37.9016 21.0276C37.7072 20.9379 37.5051 20.893 37.2951 20.893H14.9107C14.7024 20.893 14.5002 20.9379 14.3043 21.0276C14.1114 21.1158 13.9404 21.235 13.7911 21.3851L10.6863 25.0901ZM21.4609 27.4115V39.3762L26.1263 37.0547L30.7916 39.3762V27.4115H21.4609Z" fill="white"/>
</g>
</svg>
