<svg width="87" height="96" viewBox="0 0 87 96" fill="none" xmlns="http://www.w3.org/2000/svg">
<g clip-path="url(#clip0_193_2054)">
<path d="M7.74356 2.67529e-05H78.9739C78.9739 2.67529e-05 87.1886 -0.42657 87.0001 9.66955C86.843 18.0751 87.0001 80.0896 87.0001 80.0896C87.0001 80.0896 87.0001 87.8631 79.1781 87.9579H70.1153V96L43.9792 83.1231L69.9425 70.0724V78.8256H76.6022C77.042 78.8256 77.4032 78.4622 77.4032 78.0198V10.8387C77.4032 10.3963 77.042 10.0329 76.6022 10.0329H10.8535C10.4137 10.0329 10.0525 10.3963 10.0525 10.8387V77.3246C10.0525 77.767 10.4137 78.1304 10.8535 78.1304H17.1676V69.5511L42.0472 82.7755L17.3247 96V87.0573H8.48178C8.48178 87.0573 0.000108046 87.4365 0.000108046 79.0942C0.000108046 72.8216 0.000108046 8.10536 0.000108046 8.10536C0.000108046 8.10536 -0.471096 2.67529e-05 7.74356 2.67529e-05Z" fill="#0089CD"/>
<path d="M17.7804 60.9717V16.8427C17.7804 16.4635 18.0945 16.1475 18.4715 16.1475H30.7071C30.9898 16.1475 31.2411 16.3213 31.351 16.5899L43.351 47.368C43.5866 47.9526 44.4034 47.9526 44.639 47.368L57.2044 16.5741C57.3144 16.3055 57.5657 16.1475 57.8484 16.1475H69.4872C69.8641 16.1475 70.1782 16.4635 70.1782 16.8427V61.7775C70.1782 62.1567 69.8641 62.4727 69.4872 62.4727H62.4976C62.1207 62.4727 61.8065 62.1567 61.8065 61.7775L62.0107 28.0448C62.0107 27.2706 60.9426 27.0652 60.6756 27.792L48.0945 62.0145C48.0002 62.2831 47.7332 62.4727 47.4505 62.4727H40.2882C39.9898 62.4727 39.7385 62.2831 39.6285 61.9987L27.8484 27.8236C27.5971 27.081 26.4976 27.2706 26.4976 28.0448L26.3877 60.9559C26.3877 61.7775 25.7123 62.4569 24.8955 62.4569H19.2568C18.4243 62.4569 17.7646 61.7775 17.7646 60.9559L17.7804 60.9717Z" fill="#0089CD"/>
</g>
<defs>
<clipPath id="clip0_193_2054">
<rect width="87" height="96" fill="white"/>
</clipPath>
</defs>
</svg>
