<svg width="40" height="40" fill="none" xmlns="http://www.w3.org/2000/svg"><path d="M24.582 28.358h-9.718a1.113 1.113 0 01-1.114-1.113c0-2.38-.91-4.66-2.563-6.422A11.748 11.748 0 018 12.94c-.047-3.154 1.16-6.144 3.399-8.42C13.627 2.255 16.574 1.005 19.7 1h.023c3.12 0 6.055 1.215 8.267 3.423a11.702 11.702 0 013.455 8.339c0 3.024-1.141 5.897-3.214 8.09a9.269 9.269 0 00-2.536 6.393c0 .614-.499 1.113-1.113 1.113zm-8.659-2.227h7.598a11.473 11.473 0 013.091-6.808 9.515 9.515 0 002.606-6.561 9.49 9.49 0 00-2.801-6.763 9.416 9.416 0 00-6.694-2.772h-.019c-2.525.004-4.91 1.018-6.716 2.855-1.818 1.848-2.798 4.272-2.76 6.825A9.525 9.525 0 0012.81 19.3a11.606 11.606 0 013.113 6.832zm8.513 5.774H15.01a1.113 1.113 0 110-2.226h9.427a1.113 1.113 0 110 2.226zm0 3.548H15.01a1.113 1.113 0 110-2.227h9.427a1.113 1.113 0 010 2.227zM22.701 39h-5.957a1.114 1.114 0 010-2.227H22.7a1.113 1.113 0 110 2.227z" fill="#6430E8"/></svg>