<svg width="40" height="40" fill="none" xmlns="http://www.w3.org/2000/svg"><g clip-path="url(#clip0_193_304)" stroke="#6430E8" stroke-width="2"><path d="M20 35.91a4.634 4.634 0 00-4.634-4.634h-3.321v-1.808a4.637 4.637 0 003.09-4.37v-3.09c0-.37-.044-.729-.125-1.072m-7.599 10.34L8.956 39m4.634-7.724L12.045 39M4.09 35.91V39m12.82 0v-3.09" stroke-miterlimit="10" stroke-linecap="round" stroke-linejoin="round"/><path d="M7.411 18.554a4.621 4.621 0 013.09-1.18h2.45c.215 0 .429-.012.64-.038v0a5.268 5.268 0 003.088-1.506v1.545a4.625 4.625 0 01-1.669 3.562 4.62 4.62 0 01-2.965 1.072c-2.767 0-4.558-1.444-5.514-2.393" stroke-miterlimit="10" stroke-linecap="round" stroke-linejoin="round"/><path d="M34.134 25.098a4.637 4.637 0 01-3.09 4.37v1.808h3.322A4.634 4.634 0 0139 35.911V39H1v-3.09a4.634 4.634 0 014.634-4.634h3.321v-1.808a4.636 4.636 0 01-3.09-4.37v-3.09a4.613 4.613 0 011.546-3.454" stroke-miterlimit="10" stroke-linecap="round" stroke-linejoin="round"/><path d="M24.866 23.553h1.18a5.59 5.59 0 005-3.09 3.09 3.09 0 003.089 3.09M20 39v-3.09a4.634 4.634 0 014.634-4.634h3.321v-1.808a4.636 4.636 0 01-3.09-4.37" stroke-miterlimit="10" stroke-linecap="round" stroke-linejoin="round"/><path d="M26.41 18.554a4.623 4.623 0 00-1.544 3.454v3.09m7.724-6.544a4.62 4.62 0 00-3.09-1.18 4.62 4.62 0 00-3.089 1.18m7.724 6.544v-3.09a4.623 4.623 0 00-1.545-3.454m-6.179 12.722L27.956 39m4.634-7.724L31.045 39m-7.955-3.09V39m12.82 0v-3.09m-4.866-4.633L29.5 32.82l-1.545-1.544m-19 .001L10.5 32.82l1.544-1.544" stroke-miterlimit="10" stroke-linecap="round" stroke-linejoin="round"/><path d="M7.41 12.28a.228.228 0 100 .456.228.228 0 000-.456z" fill="#6430E8"/><path d="M7.411 18.554v-2.57M7.41 9.033V7.179H4.322L10.501 1l6.178 6.18h-3.09v10.15" stroke-miterlimit="10" stroke-linecap="round" stroke-linejoin="round"/></g><defs><clipPath id="clip0_193_304"><path fill="#fff" d="M0 0h40v40H0z"/></clipPath></defs></svg>