<svg width="40" height="40" fill="none" xmlns="http://www.w3.org/2000/svg"><path d="M30.175 20.841V6.095a1.911 1.911 0 00-1.911-1.912H11.912A1.911 1.911 0 0010 6.095v30.994c0 1.055.856 1.911 1.912 1.911h16.352a1.911 1.911 0 001.912-1.911V23.517M10 7.384h4.965m2.676 0h12.535m-6.341-3.2v-2.19c0-.549-.43-.994-.961-.994h-5.572c-.531 0-.961.445-.961.995v2.188h7.494z" stroke="#6430E8" stroke-width="2" stroke-miterlimit="10" stroke-linecap="round" stroke-linejoin="round"/><path d="M22.306 33.992h-9.521a.382.382 0 00-.383.383v1.756a.382.382 0 00.383.382h14.607a.382.382 0 00.382-.382v-1.756a.382.382 0 00-.382-.383h-2.41m-8.576-10.398H15.11a1.147 1.147 0 01-1.147-1.147v-4.511c0-.633.513-1.147 1.147-1.147h1.295c.633 0 1.146.514 1.146 1.147v4.511c0 .633-.513 1.147-1.146 1.147zm4.954-4.589a1.108 1.108 0 100-2.216 1.108 1.108 0 000 2.215zm3.745 4.588a1.108 1.108 0 100-2.215 1.108 1.108 0 000 2.215zm.685-6.803l-5.117 6.804" stroke="#6430E8" stroke-width="1.5" stroke-miterlimit="10" stroke-linecap="round" stroke-linejoin="round"/></svg>