<svg width="40" height="36" fill="none" xmlns="http://www.w3.org/2000/svg"><g clip-path="url(#clip0_193_292)"><path d="M36.886.404H26.454a.763.763 0 00-.765.761v.602a11.825 11.825 0 00-2.826-1.33.786.786 0 00-.232-.04H7.668a.768.768 0 00-.262.047 4.455 4.455 0 00-2.612 2.527 4.363 4.363 0 00-.168 2.662A3.881 3.881 0 002.39 7.376c-.59 1.006-.438 2.258-.04 3.28-1.195.84-1.88 1.894-1.951 3.034-.08 1.284.764 2.401 1.688 3.217-.86.998-1.473 2.361-.94 3.637a3.732 3.732 0 003.64 2.305c2.946.214 5.924.158 8.863-.159a9.726 9.726 0 00-.964 6.964l.024.096c.542 1.489 1.473 3.058 2.755 4.642.717.887 1.792 1.212 2.82 1.212.453 0 .884-.063 1.29-.158.294-.048.55-.206.74-.452.43-.562.693-1.703-.199-6.259-.056-.293-.111-.586-.103-.68 0-.033.087-.183.159-.318.064-.119.143-.27.247-.46 3.002-5.918 4.133-7.28 4.515-7.59l.764-.308V22c0 .42.343.76.765.76h10.432c1.49 0 2.7-1.203 2.7-2.685V3.09A2.724 2.724 0 0036.877.404h.008zm-12.638 17.89a.831.831 0 00-.143.079c-.653.443-1.808 1.782-5.065 8.2l-.223.42c-.414.76-.414.966-.207 2.02.693 3.549.597 4.642.51 4.96-.813.181-1.896.15-2.469-.54-1.17-1.441-2.007-2.844-2.492-4.167a8.249 8.249 0 011.656-7.059.765.765 0 00.072-.855.751.751 0 00-.773-.373 47.32 47.32 0 01-10.265.365h-.103a2.214 2.214 0 01-2.182-1.363c-.303-.745.35-1.846 1.17-2.551a.763.763 0 00.263-.61c0-.23-.12-.444-.31-.578-1.147-.856-1.784-1.743-1.744-2.456.063-1.054 1.146-1.815 1.791-2.171a.762.762 0 00.295-1.03c-.414-.745-.669-1.79-.295-2.44a2.322 2.322 0 011.967-1.141c.271 0 .51-.143.645-.372a.759.759 0 00.024-.737 2.845 2.845 0 011.458-3.962h14.676c1.155.38 2.23.96 3.177 1.72v14.062l-1.433.579zm13.809 1.75a1.17 1.17 0 01-1.171 1.165h-9.668V1.926h9.668c.645 0 1.17.522 1.17 1.164v16.954zm-3.95-4.587c-1.338 0-2.437 1.078-2.437 2.417a2.426 2.426 0 002.437 2.424 2.42 2.42 0 100-4.84zm0 3.312a.902.902 0 01-.9-.895c0-.492.406-.888.9-.888a.9.9 0 01.9.888.912.912 0 01-.9.895z" fill="#6430E8" stroke="#6430E8" stroke-miterlimit="10"/></g><defs><clipPath id="clip0_193_292"><path fill="#fff" d="M0 0h40v36H0z"/></clipPath></defs></svg>