<svg width="40" height="40" fill="none" xmlns="http://www.w3.org/2000/svg"><g clip-path="url(#clip0_193_281)" fill="#6430E8"><path d="M19.56 1.35c-3.6 0-7.12 1.07-10.12 3.07-2.99 2-5.33 4.84-6.7 8.17A18.219 18.219 0 001.7 23.11c.7 3.53 2.44 6.78 4.98 9.32 2.55 2.55 5.79 4.28 9.32 4.98 3.53.7 7.19.34 10.52-1.04 3.33-1.38 6.17-3.71 8.17-6.71 2-2.99 3.07-6.51 3.07-10.12 0-4.83-1.93-9.46-5.34-12.87a18.297 18.297 0 00-12.86-5.32zm0 34.83c-3.29 0-6.5-.98-9.24-2.8a16.637 16.637 0 01-7.07-17.07c.64-3.23 2.22-6.19 4.55-8.51a16.61 16.61 0 0118.12-3.6c3.04 1.26 5.63 3.39 7.46 6.12s2.8 5.95 2.8 9.24c0 4.41-1.76 8.63-4.87 11.75a16.606 16.606 0 01-11.75 4.87zM8.96 19.73a.788.788 0 00-.98 0c-.45.35-2.68 2.17-2.68 3.79 0 .84.33 1.65.93 2.24.59.59 1.4.93 2.24.93.84 0 1.65-.33 2.24-.93.59-.59.93-1.4.93-2.24 0-1.62-2.23-3.44-2.68-3.79zm-.49 5.37c-.42 0-.82-.17-1.12-.46-.3-.3-.46-.7-.46-1.12 0-.46.75-1.38 1.58-2.13.83.75 1.58 1.67 1.58 2.13 0 .42-.17.82-.46 1.12-.3.3-.7.46-1.12.46zm19.64 3.49c.06.08.11.18.13.28a.771.771 0 01-.57.96.771.771 0 01-.83-.29c-.09-.11-2.24-2.85-7.28-2.85s-7.26 2.82-7.28 2.85c-.13.17-.31.28-.52.31a.78.78 0 01-.59-.15.788.788 0 01-.31-.52.78.78 0 01.15-.59c.11-.14 2.68-3.48 8.55-3.48 5.87 0 8.44 3.34 8.55 3.48z" stroke="#6430E8" stroke-width=".7" stroke-miterlimit="10"/><path d="M14.595 9.32L8.16 11.784a.73.73 0 00-.42.943l.032.084a.73.73 0 00.942.42l6.435-2.463a.73.73 0 00.42-.943l-.032-.084a.73.73 0 00-.942-.42zm9.38 1.44l6.434 2.463a.73.73 0 00.943-.42l.032-.084a.73.73 0 00-.42-.943l-6.435-2.464a.73.73 0 00-.943.421l-.032.084a.73.73 0 00.42.943z" stroke="#6430E8" stroke-width=".8" stroke-miterlimit="10"/><path fill-rule="evenodd" clip-rule="evenodd" d="M12.75 20a3.25 3.25 0 100-6.5 3.25 3.25 0 000 6.5zm0-2a1.25 1.25 0 100-2.5 1.25 1.25 0 000 2.5zm13.5 2a3.25 3.25 0 100-6.5 3.25 3.25 0 000 6.5zm0-2a1.25 1.25 0 100-2.5 1.25 1.25 0 000 2.5z"/></g><defs><clipPath id="clip0_193_281"><path fill="#fff" transform="translate(1 1)" d="M0 0h37.12v37.12H0z"/></clipPath></defs></svg>