<svg width="30" height="30" fill="none" xmlns="http://www.w3.org/2000/svg"><mask id="a" style="mask-type:luminance" maskUnits="userSpaceOnUse" x="0" y="0" width="30" height="30"><path d="M0 0h30v30H0V0z" fill="#fff"/><path d="M29.25 29.25V.75H.75v28.5h28.5z" stroke="#fff" stroke-width="1.5"/></mask><g mask="url(#a)" stroke="#6430E8" stroke-width="1.5" stroke-miterlimit="10" stroke-linecap="round" stroke-linejoin="round"><path d="M16.893 11.068c0 1.045-.703 2.038-1.748 2.038s-2.039-.993-2.039-2.038.994-1.748 2.04-1.748c1.044 0 1.747.703 1.747 1.748zm-3.787 7.572c0-1.044.703-1.747 1.748-1.747s2.039.703 2.039 1.748-.994 2.039-2.039 2.039c-1.045 0-1.748-.994-1.748-2.04z"/><path d="M15.145 6.117c4.903 0 8.738 3.835 8.738 8.738 0 4.902-3.835 9.029-8.738 9.029-4.902 0-9.029-4.127-9.029-9.03 0-4.902 4.127-8.737 9.03-8.737z"/><path d="M16.893 2.33c.95.141 1.729.522 2.622.874l.874-1.457 3.204 2.04-.583 1.164a12.94 12.94 0 012.039 2.04l1.165-.583 2.039 3.203-1.457.874c.352.893.733 1.672.874 2.622h1.456v3.786H27.67c-.141.95-.522 1.728-.874 2.621l1.457.874-2.04 3.204-1.164-.582c-.598.75-1.289 1.44-2.04 2.038l.584 1.165-3.204 2.04-.874-1.457c-.893.352-1.672.733-2.622.874v1.456h-3.786V27.67c-.95-.142-1.728-.522-2.621-.874l-.874 1.456-3.204-2.039.583-1.165a12.927 12.927 0 01-2.04-2.038l-1.164.582-2.04-3.204 1.457-.874c-.352-.893-.733-1.671-.874-2.621H.874v-3.786H2.33c.142-.95.522-1.729.874-2.622l-1.456-.874 2.039-3.203 1.165.582A12.97 12.97 0 016.99 4.951l-.583-1.165 3.204-2.039.874 1.457c.893-.352 1.671-.733 2.621-.874V.874h3.786V2.33z"/><path d="M13.689 12.524l-2.33 2.33H6.116m10.194 2.622l2.33-2.33h5.243"/></g></svg>