<svg width="30" height="30" fill="none" xmlns="http://www.w3.org/2000/svg"><path d="M16.893 15.758h-3.786c-1.322.002-2.852.526-3.787 1.45a4.895 4.895 0 00-1.456 3.483v2.03c0 .253.111.403.291.58.18.179.62.29.874.29h11.942c.255 0 .694-.111.874-.29.18-.177.29-.327.29-.58v-2.03a4.895 4.895 0 00-1.455-3.482c-.935-.925-2.465-1.45-3.787-1.45zm3.787 6.383H9.32v-1.45c.001-.925.505-1.958 1.165-2.612.661-.653 1.688-.87 2.622-.87h3.786c.934 0 1.96.217 2.622.87.66.654 1.164 1.687 1.165 2.612v1.45zm-5.534-7.543c.829 0 1.35-.415 2.038-.87.69-.457 1.43-.984 1.748-1.742.317-.758.453-1.516.291-2.32-.161-.805-.578-1.742-1.165-2.322-.586-.58-1.517-1-2.33-1.16-.813-.16-1.564-.024-2.33.29s-1.287.768-1.748 1.45c-.46.683-.873 1.501-.873 2.322.001 1.1.379 2.123 1.165 2.9.786.779 2.092 1.45 3.204 1.452zm0-6.964c.54 0 1.007.284 1.456.58.449.297.667.668.874 1.161.206.494.396.927.291 1.45-.105.525-.492 1.074-.874 1.452-.382.377-.927.476-1.456.58-.53.104-.958.204-1.456 0-.5-.205-.865-.716-1.165-1.16-.3-.445-.583-.917-.583-1.451 0-.717.362-1.235.874-1.741.512-.507 1.315-.87 2.039-.87zM4.66 16.338h2.33c.396 0 .796.151 1.165.29.18.066.408.08.583 0 .174-.078.514-.402.582-.58a.799.799 0 000-.58c-.076-.174-.404-.22-.582-.29-.536-.203-1.174-.291-1.748-.29H4.66c-1.246.001-2.322.578-3.204 1.45C.575 17.212.001 18.297 0 19.53v.58c0 .258.107.689.291.87.184.183.323.29.583.29h5.243c.096.002.201.037.29 0 .09-.035.223-.222.292-.29.069-.067.254-.201.291-.29.037-.088 0-.194 0-.29 0-.095.037-.201 0-.29-.037-.088-.222.067-.291 0-.069-.067-.202-.254-.291-.29-.09-.036-.195 0-.291 0h-4.66v-.29c0-.85.266-1.72.873-2.321.607-.601 1.471-.87 2.33-.87zm1.165-2.03c.664 0 1.488-.216 2.04-.58.55-.365.91-.845 1.164-1.451.254-.607.42-1.388.291-2.031-.129-.644-.696-1.277-1.165-1.741-.469-.464-.805-.743-1.456-.87-.65-.129-1.426.038-2.039.29-.613.25-1.088.614-1.456 1.16-.369.546-.583 1.374-.583 2.031.001.88.245 1.699.874 2.321.629.622 1.441.87 2.33.87zm0-5.223c.374 0 .854.084 1.165.29.311.206.44.528.583.87.143.343.364.798.291 1.161-.073.363-.318.609-.582.87-.265.262-.507.509-.874.58-.367.073-.82-.148-1.165-.29-.346-.141-.666-.272-.874-.58-.208-.308-.291-.5-.291-.87 0-.496.227-1.1.582-1.45.355-.352.664-.58 1.165-.581zm19.515 5.803h-2.33c-.574-.001-1.212.087-1.748.29-.178.07-.506.116-.582.29a.799.799 0 000 .58c.068.178.408.502.582.58.175.08.402.066.583 0 .369-.139.77-.29 1.165-.29h2.33c.859.001 1.723.27 2.33.87.607.602.873 1.472.874 2.322v.29h-4.66c-.097 0-.202-.036-.292 0-.09.036-.223.223-.291.29-.069.067-.254-.088-.291 0-.037.088 0 .195 0 .29 0 .096-.037.202 0 .29.037.089.222.223.291.29.069.068.202.255.291.29.09.037.195.002.292 0h5.242c.26 0 .399-.107.583-.29.183-.181.29-.613.291-.87v-.58c-.001-1.233-.575-2.32-1.456-3.192-.882-.872-1.958-1.449-3.204-1.45zm-1.165-.58c.663 0 1.196-.216 1.747-.58.552-.365.912-.845 1.165-1.451.254-.607.421-1.388.292-2.031-.13-.644-.405-1.277-.874-1.741-.47-.464-1.097-.743-1.748-.87-.65-.129-1.426.038-2.039.29-.612.25-1.087.614-1.456 1.16-.368.546-.582 1.374-.582 2.031 0 .88.536 1.699 1.165 2.321.628.622 1.44.87 2.33.87zm0-5.223c.374 0 .562.084.873.29.312.206.731.528.874.87.143.343.073.798 0 1.161s-.318.609-.582.87c-.265.262-.507.509-.874.58-.367.073-.82-.148-1.165-.29-.346-.141-.666-.272-.874-.58-.208-.308-.291-.5-.291-.87 0-.496.228-1.1.582-1.45.355-.352.955-.58 1.457-.581z" fill="#6430E8"/></svg>