<svg width="30" height="30" fill="none" xmlns="http://www.w3.org/2000/svg"><g clip-path="url(#clip0_193_220)" fill="#6430E8"><path d="M20.407 7.16L15.302.248a.533.533 0 00-.9 0L9.295 7.16c-.271.388.129 1.202.6 1.202H12.3V29.4c0 .324.279.601.6.601h3.904a.613.613 0 00.601-.601V8.362h2.402c.471 0 .873-.813.601-1.202zm-3.604 0c-.321 0-.6.277-.6.601v21.037H13.5V7.76a.613.613 0 00-.6-.6h-1.802L14.7 1.45l3.904 5.71h-1.802z"/><path d="M6.053 8.954c-.232-.333-.663-.332-.895 0l-5.07 6.915c-.27.389.125 1.203.597 1.203h2.386v12.327c0 .325.275.601.596.601h3.877a.609.609 0 00.597-.6V17.071h2.386c.47 0 .868-.813.596-1.203l-5.07-6.915zm1.491 6.915c-.321 0-.298.276-.298.601v12.328H4.264V16.47a.609.609 0 00-.597-.601H1.878l3.877-5.713 3.877 5.713H7.544zm22.367-1.503l-5.07-7.216c-.231-.332-.662-.333-.894 0l-5.07 7.216c-.271.389.125.902.596.902h2.386v14.131c0 .325.275.601.597.601h3.877a.609.609 0 00.596-.6V15.267h2.386c.47 0 .868-.513.596-.902zm-3.578-.301a.609.609 0 00-.597.601v14.132h-2.982V14.666c0-.325.023-.601-.298-.601h-2.088l3.877-5.713 3.877 5.713h-1.79z"/></g><defs><clipPath id="clip0_193_220"><path fill="#fff" d="M0 0h30v30H0z"/></clipPath></defs></svg>