<svg width="206" height="65" fill="none" xmlns="http://www.w3.org/2000/svg"><path d="M1.114.056C.686.2.399.467.185.91l-.137.286-.023.69c-.03.784-.034 32.983-.007 32.907.134-.361.748-1.838.969-2.318a29.01 29.01 0 014.75-7.302c.478-.536 1.928-1.96 2.459-2.417 1.977-1.694 3.855-2.908 6.437-4.17l1.062-.517-.003-5.098c-.003-2.806-.013-6.674-.027-8.6L15.642.867l-.074-.18a1.423 1.423 0 00-.17-.3c-.147-.174-.451-.322-.745-.358C14.506.01 11.803 0 7.845 0c-6.14 0-6.574.003-6.731.056z" fill="#0088CB"/><path d="M58.3 11.188c-.238.037-.45.154-.56.31-.203.291-.19-.246-.19 7.871 0 7.267 0 7.404.064 7.614.071.24.223.418.435.518.123.056.455.06 6.67.07 5.703.006 6.612.003 7.089-.044a10.645 10.645 0 001.804-.307c1.86-.49 2.942-1.362 3.374-2.713.154-.481.17-.648.17-1.786 0-.998-.003-1.088-.074-1.365a3.464 3.464 0 00-.78-1.469c-.267-.294-.347-.514-.254-.698.022-.04.139-.183.261-.317.367-.4.638-.911.77-1.445.065-.25.074-.39.084-1.335.013-.861.006-1.108-.036-1.362-.112-.668-.402-1.252-.889-1.783a4.653 4.653 0 00-1.54-1.138c-.876-.407-1.685-.557-3.325-.62-.97-.037-12.828-.037-13.072 0zm13.701 2.484c.557.087 1.076.23 1.386.387.418.207.754.564.857.908.048.157.129 1.786.096 1.936-.074.33-.344.62-.792.844-.506.254-1.07.384-1.933.45-.278.021-2.53.034-5.79.034h-5.343v-4.643l5.568.014c5.149.01 5.593.013 5.951.07zm-.354 7.03c1.42.106 2.265.457 2.552 1.06l.09.191v1.736l-.107.203c-.27.518-.908.912-1.778 1.095-.71.15-.89.154-6.59.154h-5.396v-4.473h5.39c3.293 0 5.561.013 5.839.033zm10.184-9.516c-.342.06-.604.284-.688.591-.065.224-.068 14.973-.003 15.187a.89.89 0 00.41.507c.158.087.165.087.97.087.752 0 .817-.003.953-.07a.82.82 0 00.4-.414c.068-.147.068-.187.078-2.78.006-1.894.02-2.628.045-2.628.036 0 1.231.52 2.24.975.284.13.59.263.678.3.09.037.359.154.598.26.239.11 1.412.628 2.601 1.152 1.192.524 2.42 1.069 2.73 1.205.31.14.799.354 1.083.481.284.127 1.147.508 1.916.848l1.4.618.458.036c.608.044 1.367.044 1.58-.003.45-.1.656-.347.695-.828a1.047 1.047 0 00-.472-.985c-.064-.043-.488-.237-.94-.437a455.48 455.48 0 01-1.373-.601c-.3-.133-.834-.367-1.18-.517-1.228-.538-3.244-1.42-3.926-1.72a760.86 760.86 0 00-2.278-.991 1.808 1.808 0 01-.271-.134c-.02-.013 1.115-.026 2.52-.026 2.676 0 3.451-.027 4.198-.137 1.176-.174 2.226-.551 2.972-1.062.73-.5 1.154-1.072 1.396-1.89l.091-.3v-1.62c0-1.562-.003-1.628-.071-1.875-.236-.862-.676-1.482-1.396-1.98-.957-.658-2.233-1.045-4.043-1.222-.497-.05-13.103-.073-13.37-.027zM94.88 13.62c1.467.117 2.346.414 2.744.935.226.297.232.354.223 1.81l-.01 1.278-.097.177c-.246.457-.853.788-1.697.921-.723.114-1.05.12-6.566.12h-5.519v-5.274h5.245c3.267 0 5.406.013 5.677.033zm22.326-2.438c-.386.057-.65.26-.743.567-.07.237-.077.939-.01 1.203.036.143.083.217.217.35.093.094.23.19.303.217.113.04.67.05 3.609.06l3.479.007.006 6.655.01 6.652.077.17a.86.86 0 00.424.438c.11.046.253.06.85.07.827.013 1.038-.017 1.248-.177.176-.134.273-.314.316-.584.024-.147.037-2.321.037-6.72v-6.504l3.496-.007 3.492-.01.17-.076a.876.876 0 00.453-.458c.071-.15.077-.217.077-.668 0-.45-.006-.517-.077-.668a.837.837 0 00-.47-.46l-.186-.074-8.306-.003c-4.566-.004-8.378.006-8.472.02zm50.9.023c-.361.09-.551.264-.643.602-.047.184-.054.763-.044 6.257l.011 6.053.077.264c.278.943.956 1.629 2.164 2.2.678.322 1.805.66 2.743.827.917.163 1.303.177 4.71.16 2.004-.01 3.297-.03 3.511-.053 2.888-.318 4.455-1.234 4.94-2.89.149-.505.162-.84.146-3.752-.014-2.98-.007-2.893-.231-3.461-.551-1.418-2.035-2.25-4.55-2.558-.779-.097-1.859-.117-6.255-.117h-4.428v-1.378c0-1.16-.01-1.408-.055-1.569-.094-.33-.304-.514-.683-.595-.238-.05-1.196-.043-1.413.01zm12.241 5.983c.558.067.91.137 1.215.24.593.198.99.486 1.172.843l.102.194.009 2.626c.007 1.795-.002 2.678-.026 2.799a1.477 1.477 0 01-.714.956c-.329.19-1.02.304-2.188.358-.955.043-5.079.043-5.783 0-1.277-.08-2.303-.308-3.051-.679-.349-.174-.586-.368-.718-.585l-.092-.158-.009-3.293c-.005-1.81 0-3.315.009-3.338.014-.037.83-.043 4.816-.03 4.164.013 4.861.02 5.258.067zm-44.905-2.066c-.289.052-.5.2-.617.44-.109.225-.115.467-.103 4.676.009 3.821.016 4.154.066 4.377.217.946.802 1.66 1.767 2.158.702.361 1.824.642 3.015.755.632.062 6.594.059 7.154 0a9.755 9.755 0 002.2-.465c1.52-.5 2.397-1.275 2.714-2.39.066-.236.066-.258.08-4.5.008-3.872.002-4.282-.042-4.463-.07-.265-.213-.436-.45-.53-.167-.068-.229-.074-.824-.078-.549 0-.669.01-.811.062a.71.71 0 00-.45.413l-.075.171-.015 4.2-.017 4.199-.093.174c-.114.213-.267.352-.579.517-.374.2-.934.332-1.78.426-.5.052-5.094.078-6.028.032-1.858-.09-2.75-.39-3.094-1.036-.056-.11-.058-.262-.075-4.296l-.015-4.183-.075-.171c-.092-.207-.3-.404-.485-.46-.167-.048-1.148-.07-1.368-.028zm25.729-.002c-1.322.074-2.361.303-3.285.723-1.138.519-1.833 1.248-2.11 2.23-.066.232-.078.377-.101 1.403-.041 1.665-.041 7.348 0 7.487.065.23.217.407.43.503.192.094.203.094.896.104.571.01.738 0 .89-.042a.863.863 0 00.537-.436c.071-.145.071-.171.087-4.276l.019-4.13.076-.184c.189-.449.64-.762 1.326-.927.585-.138.947-.168 2.215-.183.889-.013 1.265-.03 1.387-.062a.843.843 0 00.528-.442c.071-.155.081-.216.081-.623 0-.545-.055-.73-.261-.923-.227-.21-.355-.232-1.362-.242a30.937 30.937 0 00-1.353.02zm33.465-.002c-2.122.113-3.717.726-4.739 1.827a3.414 3.414 0 00-.817 1.423c-.068.249-.068.29-.081 2.867-.007 1.836 0 2.692.025 2.87.101.7.425 1.32.979 1.878.813.816 1.986 1.3 3.696 1.52.322.042.937.055 3.556.065 3.222.016 3.782.003 4.535-.107 1.392-.2 2.569-.716 3.279-1.43.282-.284.395-.442.576-.797.163-.33.28-.726.322-1.12.044-.394.044-5.013.002-5.462a3.908 3.908 0 00-.286-1.146c-.565-1.316-2-2.104-4.263-2.343-.43-.045-.98-.055-3.409-.061-1.591-.007-3.109.003-3.375.016zm5.915 2.292c1.219.08 1.914.29 2.336.71.343.342.321.1.311 3.23l-.009 2.693-.088.148c-.302.514-1.048.856-2.308 1.053-.335.051-.633.058-3.216.058-3.038 0-3.105-.004-3.954-.168-.952-.18-1.556-.507-1.794-.962l-.086-.161v-5.229l.108-.204c.255-.471.901-.826 1.862-1.023.366-.074.84-.136 1.196-.155.459-.026 5.218-.016 5.642.01z" fill="#fff"/><path d="M22.367 17.76c-1.713.136-2.61.282-4.202.678-4.198 1.044-8.24 3.474-11.257 6.765a23.807 23.807 0 00-5.63 10.61c-.256 1.06-.495 2.626-.59 3.869-.045.592-.045 2.75 0 3.341.25 3.252 1.037 6.134 2.489 9.083.366.745.454.904.49.868.04-.04.268-4.309.406-7.557.176-4.106.36-7.65.444-8.461.046-.469.177-1.217.291-1.68.71-2.858 2.21-5.508 4.411-7.792a20.503 20.503 0 014.32-3.401 20.453 20.453 0 015.061-2.171c1.158-.326 2.057-.502 3.424-.668.745-.09 2.334-.123 3.237-.067 1.677.103 2.782.29 4.378.738.765.213 1.197.366 1.262.446.042.05-.036.262-.572 1.562-.115.273-.34.828-.507 1.23a941.595 941.595 0 01-1.674 4.056l-.327.788c-.079.19-.095.193-.635.093-1.196-.226-1.794-.282-3.07-.279-.961 0-1.183.01-1.651.073-2.805.386-4.99 1.453-6.755 3.305-1.308 1.373-2.188 2.992-2.672 4.93-.245.984-.229.386-.415 14.396-.072 5.532-.101 8.378-.091 8.923l.01.579.62.326a22.748 22.748 0 006.67 2.29c1.433.25 2.254.33 3.614.356A22.797 22.797 0 0037.3 60.654c.54-.39 1.252-.951 1.694-1.333.496-.433 2.279-2.261 2.677-2.75 2.283-2.79 3.967-6.147 4.761-9.498.517-2.185.654-3.405.654-5.812 0-2.078-.12-3.208-.543-5.13a23.787 23.787 0 00-4.577-9.618c-.51-.648-.896-1.08-1.681-1.875-1.01-1.027-1.641-1.586-2.616-2.314-1.984-1.486-4.195-2.653-6.441-3.4a18.095 18.095 0 00-1.978-.57c-1.135-.269-1.782-.382-2.845-.495-1.118-.123-3.132-.173-4.038-.1zm2.943 15.775a7.852 7.852 0 014.394 2.224 7.954 7.954 0 012.191 6.865 7.323 7.323 0 01-.575 1.959c-.419.964-.913 1.675-1.714 2.463a7.635 7.635 0 01-3.79 2.051c-.421.093-.434.093-1.569.093-1.131 0-1.15 0-1.57-.093-.735-.163-1.64-.505-2.22-.844a7.95 7.95 0 01-3.19-3.451 6.78 6.78 0 01-.54-1.496c-.193-.761-.23-1.074-.23-1.945s.037-1.184.23-1.945c.153-.612.28-.957.555-1.53a7.784 7.784 0 014.542-4.022c.294-.1.723-.22.955-.27.683-.142 1.785-.166 2.53-.06zm43.04 3.945c-.033.062-.927 2.259-1.105 2.72-.06.153-.314.778-.561 1.39-.25.61-.501 1.235-.56 1.389-.106.268-.977 2.429-1.373 3.4-.402.99-.676 1.667-.857 2.125-.102.262-1.277 3.165-2.606 6.457a988.937 988.937 0 00-2.43 6.042c-.017.052 3.238.056 68.149.049l68.171-.01 4.755-11.786a3830.153 3830.153 0 004.759-11.813c0-.013-30.67-.022-68.156-.022-65.09 0-68.157.003-68.186.059zm107.873 5.025c.402.094.758.34.874.598.043.098.263.415 1.488 2.132.467.657 1.067 1.494 1.329 1.863.26.37.639.9.836 1.177.202.278.443.618.539.752.092.134.607.857 1.141 1.602.53.746 1.052 1.475 1.154 1.619a661.399 661.399 0 011.929 2.714l.397.552v.314c0 .17-.02.369-.046.44-.106.325-.419.639-.77.779-.256.101-.771.101-.992 0-.267-.124-.518-.399-1.029-1.134l-1.218-1.753-.734-1.062-5.509-.01-5.505-.007-.382.546a424.986 424.986 0 00-1.876 2.724c-.258.382-.373.49-.614.575-.369.13-.947-.033-1.25-.353-.195-.206-.277-.39-.277-.618 0-.177.01-.2.301-.637.168-.249.508-.766.754-1.142.248-.379.732-1.114 1.076-1.634 5.099-7.73 6.147-9.312 6.27-9.472.236-.307.556-.507.975-.601.248-.056.831-.036 1.139.036zm-82.135.114c.898.059 1.702.183 2.3.356 1.625.468 2.532 1.23 2.888 2.423.083.278.1 2.773.023 3.152-.26 1.281-1.428 2.19-3.357 2.615-.946.21-1.626.249-4.393.249l-2.177.003.313.13c.713.302 2.401 1.011 3.612 1.518.419.176 1.012.425 1.32.556l1.4.588c2.276.951 2.2.916 2.399 1.105.207.196.283.402.267.71-.01.134-.04.29-.07.346a.865.865 0 01-.448.38c-.172.068-.23.071-.844.065-1.082-.013-.93.03-2.79-.759-.898-.379-1.88-.797-2.19-.931a19.67 19.67 0 00-.66-.278 694.212 694.212 0 00-2.507-1.062c-.834-.354-1.768-.75-2.078-.88-1.187-.51-1.53-.654-1.93-.821-.227-.095-.514-.22-.642-.271l-.231-.098-.017 2.242-.016 2.246-.09.187c-.174.37-.484.467-1.374.444-.443-.013-.538-.026-.683-.088a.715.715 0 01-.416-.412l-.076-.163v-6.392c0-3.515.014-6.46.027-6.542.05-.291.25-.507.564-.605.171-.052 11.088-.065 11.876-.013zm10.208.072c.198.095.3.21.389.428.053.128.057.533.073 5.042.013 3.583.026 4.933.056 5.008.237.661.854 1.106 1.791 1.298.759.154.884.16 4.024.174 3.024.016 3.628 0 4.386-.108.683-.095 1.263-.33 1.623-.66a1.47 1.47 0 00.429-.648l.076-.193.016-4.92c.017-4.901.017-4.92.086-5.068a.805.805 0 01.432-.396c.089-.032.316-.045.801-.045.769 0 .907.03 1.089.232.234.265.214-.187.224 5.244.007 3.24-.003 4.99-.023 5.185-.092.798-.393 1.42-.94 1.959-.891.876-2.299 1.357-4.571 1.56-.67.058-6.033.058-6.762 0-1.715-.141-2.75-.373-3.677-.825-.811-.392-1.313-.935-1.53-1.65-.188-.619-.178-.318-.192-5.85-.013-5.584-.023-5.31.178-5.57.198-.26.373-.302 1.198-.292.626.007.646.01.824.095zm26.432-.05c.138.04.234.092.336.187.185.18.244.38.244.837 0 .556-.112.801-.438.971l-.172.092-1.402.02c-1.517.022-2.015.065-2.572.209-.65.17-1.125.48-1.29.843-.076.164-.079.203-.079.89 0 .663.007.729.069.866.102.216.324.412.624.556.692.33 1.497.389 5.491.392 1.151 0 2.23.016 2.441.033.874.081 1.998.317 2.588.546 1.178.46 1.883 1.053 2.213 1.853.199.488.219.667.202 1.907-.01 1-.019 1.13-.086 1.38-.234.902-.679 1.47-1.464 1.882-.643.337-1.508.53-3.041.674-.534.052-10.61.082-10.924.033-.296-.046-.484-.167-.616-.396-.103-.18-.103-.183-.103-.67 0-.487 0-.49.103-.67a.789.789 0 01.57-.393c.116-.02 1.913-.032 5.129-.032 3.064 0 5.102-.014 5.346-.033 1.342-.115 2.117-.412 2.365-.91.073-.15.075-.179.075-.986v-.834l-.092-.186c-.243-.497-.864-.772-2.077-.93-.327-.041-.973-.058-3.388-.078-2.341-.02-3.077-.036-3.413-.075-1.333-.157-2.141-.36-2.902-.722-.881-.419-1.439-1.033-1.673-1.838-.072-.248-.076-.307-.076-1.353.004-1.086.004-1.099.093-1.42.415-1.52 1.669-2.33 3.987-2.585.739-.082 1.287-.105 2.563-.111 1.006-.004 1.197.003 1.369.052zm19.149.03c.36.167.474.416.474 1.01-.003.445-.063.645-.253.828-.221.212-.227.215-1.772.238-.771.013-1.532.04-1.698.06-1.211.146-1.866.444-2.124.957l-.103.2v.722c0 .631.011.74.064.857.237.516.89.794 2.114.899.227.016 1.794.046 3.48.062 3.234.03 3.304.033 4.135.196.852.167 1.372.337 1.998.644.46.226.727.412 1.04.726.297.298.458.53.597.87.191.477.208.614.208 1.749.002 1.098-.017 1.298-.169 1.782-.152.477-.316.748-.686 1.115-.313.31-.352.34-.775.546-.59.287-1.144.431-2.17.559-1.006.127-1.267.134-6.569.134-5.798 0-5.377.02-5.641-.245-.198-.193-.246-.363-.246-.834s.048-.641.243-.834c.086-.082.212-.17.284-.196.111-.04.923-.05 5.425-.066 5.584-.022 5.445-.016 6.201-.163.688-.137 1.201-.435 1.372-.801.075-.157.079-.193.079-.951 0-.955-.014-1.014-.31-1.308-.318-.31-.693-.461-1.507-.598-.634-.108-1.356-.135-3.757-.135-2.767 0-3.364-.032-4.541-.245-1.182-.212-2.148-.64-2.725-1.203a2.392 2.392 0 01-.528-.729c-.221-.435-.26-.65-.277-1.54-.019-.866.017-1.353.125-1.742.327-1.174 1.228-1.94 2.731-2.325.433-.111 1.435-.245 2.148-.288a38.31 38.31 0 011.731-.023c1.197.004 1.26.007 1.402.072zm13.209-.01a.82.82 0 01.39.367l.072.13.01 6.441c.007 4.633 0 6.49-.027 6.611a.732.732 0 01-.421.526c-.186.085-.202.089-.865.089h-.676l-.191-.095a.72.72 0 01-.419-.52c-.026-.12-.033-1.978-.026-6.61l.01-6.442.072-.133c.122-.226.289-.344.587-.42.036-.006.357-.012.709-.006.534.004.666.017.775.063z" fill="#0088CB"/><path d="M175.696 46.254c-.297.543-1.046 1.91-1.67 3.045a870.646 870.646 0 01-1.251 2.28 1.622 1.622 0 00-.127.255c0 .015 1.619.03 3.6.03h3.595l-.314-.573c-.171-.31-.971-1.783-1.781-3.265a395.113 395.113 0 00-1.489-2.727c-.011-.018-.265.412-.563.955zm-91.988 1.342v2.298l5.084-.013c5.555-.013 5.367-.007 6.138-.21.642-.166 1.041-.449 1.147-.81.076-.264.076-2.199 0-2.462-.11-.365-.6-.708-1.269-.877-.787-.203-.702-.2-6.132-.21l-4.968-.013v2.297z" fill="#0088CB"/></svg>