<svg width="121" height="57" fill="none" xmlns="http://www.w3.org/2000/svg"><g clip-path="url(#clip0_193_512)" fill="#fff"><path fill-rule="evenodd" clip-rule="evenodd" d="M52.588 5.356c4.467 0 8.238 1.747 11.255 5.24l3.538-3.144V.7h-5.51v.873c0 .291.057 1.106.115 1.281C60.014.932 55.49 0 52.646 0c-11.37 0-21 9.316-21 20.843 0 11.645 9.398 21.32 21 21.32 6.265 0 11.545-2.514 15.78-7.23l-4.41-3.493c-3.074 3.552-6.903 5.356-11.428 5.356-8.412 0-15.084-7.569-15.084-15.894 0-8.21 6.672-15.546 15.084-15.546zm-.058 19.33a3.77 3.77 0 01-3.77-3.784 3.77 3.77 0 013.77-3.785c1.102 0 2.088.408 2.843 1.281l4.003-3.493c-1.799-2.038-4.061-3.086-6.788-3.086-4.931 0-9.05 4.076-9.05 9.083 0 4.774 4.06 9.315 8.992 9.082v-5.298zM108.338.7L94.996 14.672 81.536.699H69.76v5.356h3.887v23.638h5.86V12.634c0-1.805-.117-3.959-.349-6.404a82.548 82.548 0 004.235 4.832l11.603 12.052 11.545-12.052c1.334-1.339 2.726-2.97 4.234-4.832-.232 2.445-.347 4.6-.347 6.404v17.06h5.859V6.054h3.886V.7h-11.835zm11.951 35.398v5.357H98.361V28.179l5.858-6.52v14.438h16.07zm-50.645 0v5.357h21.929V28.179l-5.86-6.52v14.438h-16.07zM23.395 1.315v42.314h1.678V1.315h-1.678zm-6.152 0v42.314h2.516V1.315h-2.516zm-7.261 0v42.314h3.355V1.315H9.982zm-9.159 0v42.314h5.032V1.315H.823z"/><path d="M6.618 51.042v1.295l1.58-.251v-.674c0-.29 0-.925-.368-1.282-.33-.318-.883-.33-1.317-.33H2.456c-.434 0-.987.013-1.317.33-.368.357-.368.991-.368 1.282v3.595c0 .29 0 .925.368 1.282.33.317.883.33 1.317.33h4.057c.434 0 .987-.013 1.317-.33.368-.357.368-.991.368-1.282v-.78l-1.58-.33v1.48H2.351v-4.335h4.267zm7.662.978h2.7v-.992h-6.743v.992h2.7v4.6h1.343v-4.6zm5.665-.992l-3.306 5.592h1.357l.698-1.23h3.687l.698 1.23h1.528l-3.358-5.591h-1.304zM19.22 54.4l1.317-2.326L21.84 54.4h-2.62zm8.79-3.37l-3.108 5.59h1.41l2.29-4.44 2.292 4.44h1.58l-3.16-5.59H28.01zm7.187 0h-1.343v5.59h4.635c.553 0 .883-.079 1.107-.171.54-.238.619-.622.619-.926v-1.4c0-.37-.145-.595-.29-.74-.369-.37-.856-.331-1.278-.331h-3.45v-2.023zm3.148 2.947c.131 0 .342 0 .474.119.118.106.131.238.131.344v.713c0 .12-.013.252-.131.357-.119.106-.33.12-.514.12h-3.108v-1.653h3.148zm3.211-.198h3.069v-1.362h-3.069v1.362zM54.622 49.8l-3.135 4.124-3.2-4.124h-1.29v6.82h1.29v-4.216l-.04-.727c.08.198.172.383.409.7l2.555 3.424h.316l2.555-3.41c.066-.08.263-.383.395-.714-.053.397-.053.621-.053.727v4.217h1.45V49.8h-1.252zm6.543 1.23l-3.306 5.59h1.356l.698-1.229h3.688l.698 1.23h1.528l-3.359-5.591h-1.303zm-.725 3.37l1.317-2.326 1.304 2.326h-2.62zm8.12-3.37h-1.344v5.59h1.343v-2.524l3.504 2.525h2.146l-4.28-3 3.846-2.591h-1.963l-3.253 2.26v-2.26zm13.053 3.621l-1.343-.277v1.19h-3.7v-3.477h3.7v1.03l1.344-.197v-.569c0-.357-.013-.793-.316-1.057-.171-.159-.5-.264-1.146-.264h-3.477c-.566 0-.922.079-1.132.264-.303.264-.316.7-.316 1.057v2.948c0 .343.026.78.302 1.044.25.225.685.278 1.146.278h3.477c.645 0 .975-.106 1.146-.265.303-.264.316-.7.316-1.057v-.648zm2.22-3.621v5.59h1.08l4.807-4.07v4.07h1.343v-5.59h-1.08l-4.806 4.07v-4.07h-1.344zm10.816 0h-1.093v5.59h1.093v-3.753l2.515 3.08h.264l2.49-3.173v3.846h1.263v-5.59h-1.093l-2.713 3.317-2.726-3.317zm10.202 3.833l-1.343.224v.304c0 .529.158.82.316.965.131.12.408.265 1.145.265h3.754c.461 0 .895-.053 1.146-.278.289-.264.303-.7.303-1.044v-4.27h-1.344v2.314h-3.977V51.03h-1.343v2.101c0 .41.118.767.316.938.131.12.408.265 1.145.265h3.859v1.23h-3.977v-.701zm8.897-3.834h-1.093v5.592h1.093v-3.754l2.516 3.08h.263l2.489-3.173v3.846h1.264v-5.59h-1.093l-2.713 3.317-2.726-3.317z"/></g><defs><clipPath id="clip0_193_512"><path fill="#fff" d="M0 0h121v57H0z"/></clipPath></defs></svg>