<svg width="63" height="70" fill="none" xmlns="http://www.w3.org/2000/svg"><g clip-path="url(#clip0_193_778)" fill="#fff"><path d="M5.607 0h51.58S63.138-.311 63 7.05c-.114 6.13 0 51.349 0 51.349s0 5.668-5.664 5.737h-6.563V70l-18.926-9.39 18.8-9.516v6.383h4.823c.319 0 .58-.265.58-.588V7.903a.586.586 0 00-.58-.587H7.86a.586.586 0 00-.581.587v48.48c0 .322.262.587.58.587h4.572v-6.256l18.017 9.643L12.545 70v-6.52H6.142S0 63.755 0 57.672V5.91S-.342 0 5.607 0z"/><path d="M12.876 44.459V12.28c0-.276.227-.507.5-.507h8.86c.205 0 .387.127.467.323l8.69 22.442a.5.5 0 00.932 0l9.1-22.454a.494.494 0 01.465-.31h8.428c.274 0 .5.23.5.506v32.765a.508.508 0 01-.5.507h-5.06a.508.508 0 01-.501-.507l.148-24.596c0-.565-.774-.715-.967-.185l-9.11 24.954a.504.504 0 01-.467.334h-5.187a.514.514 0 01-.477-.345l-8.53-24.92c-.183-.541-.979-.403-.979.162l-.08 23.997c0 .6-.489 1.095-1.08 1.095h-4.083c-.603 0-1.08-.496-1.08-1.095l.01.012z"/></g><defs><clipPath id="clip0_193_778"><path fill="#fff" d="M0 0h63v70H0z"/></clipPath></defs></svg>