<svg width="95" height="70" fill="none" xmlns="http://www.w3.org/2000/svg"><g clip-path="url(#clip0_193_579)" fill="#fff"><path d="M32.344 0H0v49.7h5.626V5.6h26.718V0zm37.999 59.514V70H20.409v-5.6h44.307v-4.886h5.627zM0 59.514V70h10.542v-5.6H5.626v-4.886H0zm70.343-49.028V0H59.801v5.6h4.916v4.886h5.626z"/><path d="M23.103 29.967h-.956l-4.993-5.096v5.096h-.704v-9.996h.704v4.837l4.852-4.837h.928l-4.88 4.837 5.05 5.152v.007zm7.392-3.724c0 1.211-.296 2.156-.893 2.842-.591.68-1.414 1.022-2.462 1.022-.661 0-1.238-.154-1.737-.469a3.038 3.038 0 01-1.153-1.35c-.268-.589-.401-1.268-.401-2.038 0-1.21.295-2.156.893-2.835.59-.679 1.406-1.015 2.44-1.015s1.843.343 2.427 1.03c.583.685.879 1.623.879 2.82l.007-.007zm-5.922 0c0 1.022.225 1.82.682 2.387.457.567 1.097.861 1.92.861s1.47-.287 1.92-.86c.45-.575.682-1.366.682-2.388 0-1.022-.232-1.82-.689-2.387-.457-.567-1.104-.847-1.927-.847s-1.463.28-1.913.847c-.45.56-.675 1.358-.675 2.387zm11.14 3.864c-1.154 0-1.998-.427-2.525-1.288h-.05l.022.574c.021.336.028.707.028 1.106v2.828h-.682V22.533h.584l.133 1.057h.042c.514-.805 1.337-1.204 2.469-1.204 1.013 0 1.786.33 2.314.987.527.658.794 1.617.794 2.877 0 1.26-.28 2.17-.836 2.842-.556.672-1.323 1.008-2.286 1.008l-.007.007zm-.014-.602c.766 0 1.364-.28 1.786-.847.422-.567.633-1.358.633-2.373 0-2.184-.795-3.276-2.391-3.276-.872 0-1.52.238-1.927.714-.408.476-.612 1.253-.612 2.331v.217c0 1.162.197 1.995.59 2.485.395.49 1.035.742 1.92.742v.007zm5.831.462h-.682v-7.434h5.985v7.434h-.683v-6.79h-4.62v6.79zm13.953-3.724c0 1.211-.295 2.156-.893 2.842-.591.68-1.414 1.022-2.462 1.022-.66 0-1.237-.154-1.737-.469a3.037 3.037 0 01-1.153-1.35c-.267-.589-.401-1.268-.401-2.038 0-1.21.295-2.156.893-2.835.59-.679 1.407-1.015 2.44-1.015 1.034 0 1.843.343 2.427 1.03.584.685.879 1.623.879 2.82l.007-.007zm-5.922 0c0 1.022.225 1.82.682 2.387.458.567 1.098.861 1.92.861.823 0 1.47-.287 1.92-.86.45-.575.683-1.366.683-2.388 0-1.022-.233-1.82-.69-2.387-.457-.567-1.104-.847-1.927-.847-.822 0-1.462.28-1.913.847-.45.56-.675 1.358-.675 2.387zm11.14 3.864c-1.153 0-1.997-.427-2.525-1.288h-.049l.021.574c.021.336.028.707.028 1.106v2.828h-.682V22.533h.584l.133 1.057h.043c.513-.805 1.336-1.204 2.468-1.204 1.013 0 1.787.33 2.314.987.527.658.795 1.617.795 2.877 0 1.26-.282 2.17-.837 2.842-.556.672-1.322 1.008-2.286 1.008l-.007.007zm-.014-.602c.767 0 1.364-.28 1.786-.847.422-.567.633-1.358.633-2.373 0-2.184-.794-3.276-2.39-3.276-.873 0-1.52.238-1.928.714-.408.476-.612 1.253-.612 2.331v.217c0 1.162.197 1.995.591 2.485.394.49 1.034.742 1.92.742v.007zm9.698.462l-.176-1.176h-.056c-.38.476-.767.82-1.16 1.015-.401.196-.873.294-1.414.294-.739 0-1.308-.189-1.716-.56-.408-.37-.612-.889-.612-1.554 0-.728.302-1.288.914-1.687.612-.399 1.491-.616 2.645-.637l1.427-.042v-.49c0-.707-.147-1.239-.436-1.603-.288-.357-.76-.539-1.4-.539-.695 0-1.413.19-2.158.574l-.254-.588c.823-.385 1.64-.574 2.44-.574.803 0 1.443.21 1.85.637.408.427.612 1.085.612 1.981v4.942h-.506v.007zm-2.764-.476c.802 0 1.435-.224 1.892-.679.464-.455.696-1.085.696-1.89v-.728l-1.315.056c-1.055.05-1.807.21-2.258.49-.45.273-.675.707-.675 1.288 0 .462.148.826.43 1.085.288.26.696.385 1.216.385l.014-.007zm12.477 2.996h-.682v-2.52h-6.168v-7.434h.682v6.79h4.48v-6.79h.675v6.79h1.006v3.164h.007zm2.173-9.947v5.376l-.042 1.4 4.452-6.776h.907v7.434h-.654v-5.341l.028-1.435-4.452 6.776h-.893V22.54h.654zm7.659 7.427h-.866l2.265-3.206c-.69-.126-1.188-.364-1.49-.714-.31-.343-.458-.791-.458-1.33 0-.672.232-1.204.69-1.596.456-.392 1.075-.581 1.849-.581h3.094v7.434h-.675v-3.122h-2.293l-2.102 3.122-.014-.007zm.168-5.278c0 .511.17.889.5 1.141.33.252.837.371 1.512.371h2.222v-3.024H91.9c-.57 0-1.013.126-1.33.385-.316.259-.47.63-.47 1.127zM27.231 43.687c0 1.988-.499 3.514-1.505 4.578-1.005 1.064-2.447 1.603-4.318 1.603-1.87 0-3.312-.532-4.318-1.603-1.006-1.071-1.505-2.597-1.505-4.592 0-1.995.506-3.521 1.512-4.571 1.006-1.05 2.454-1.582 4.332-1.582 1.878 0 3.32.532 4.319 1.589.998 1.064 1.49 2.59 1.49 4.578h-.007zm-8.931 0c0 1.337.26 2.352.78 3.024.52.672 1.294 1.015 2.328 1.015 2.068 0 3.109-1.351 3.109-4.046 0-2.695-1.027-4.053-3.088-4.053-1.034 0-1.814.343-2.335 1.022-.52.679-.787 1.694-.787 3.031l-.007.007zM39.665 49.7h-2.947l-4.437-6.076V49.7h-2.595V37.709h2.595v5.81l4.388-5.81h2.764l-4.466 5.761 4.698 6.237V49.7zm12.568-6.013c0 1.988-.499 3.514-1.505 4.578-1.005 1.064-2.447 1.603-4.318 1.603-1.87 0-3.312-.532-4.318-1.603-1.006-1.071-1.505-2.597-1.505-4.592 0-1.995.506-3.521 1.512-4.571 1.006-1.05 2.455-1.582 4.332-1.582 1.878 0 3.32.532 4.318 1.589 1 1.064 1.491 2.59 1.491 4.578h-.007zm-8.931 0c0 1.337.26 2.352.78 3.024.52.672 1.294 1.015 2.328 1.015 2.068 0 3.109-1.351 3.109-4.046 0-2.695-1.027-4.053-3.088-4.053-1.034 0-1.814.343-2.335 1.022-.52.679-.787 1.694-.787 3.031l-.007.007zM64.71 49.7h-2.59v-5.173h-4.845V49.7H54.68V37.709h2.595v4.697h4.845v-4.697h2.589V49.7z"/></g><defs><clipPath id="clip0_193_579"><path fill="#fff" d="M0 0h95v70H0z"/></clipPath></defs></svg>