<svg width="145" height="44" fill="none" xmlns="http://www.w3.org/2000/svg"><g clip-path="url(#clip0_193_842)" fill="#fff"><path d="M16 0H7.93L0 44h6.308L12.18 5.371H16V0zm0 0h8.07L32 44h-6.308L19.82 5.371H16V0z"/><path d="M23.217 29H16v5h9v-5h-1.783zM10 34l1.39-5H16v5h-6zm57-11h-2.67V12.296h-4.65V23H57V10h10v13zm12-8.943c0 1.396-.442 2.468-1.314 3.207-.873.738-2.124 1.113-3.733 1.113h-1.188V23H70V10h4.164c1.577 0 2.786.344 3.606 1.022.82.678 1.23 1.69 1.23 3.035zm-6.235 2.064h.915c.851 0 1.482-.172 1.903-.506.42-.334.63-.82.63-1.467 0-.648-.178-1.123-.525-1.437-.357-.303-.904-.465-1.661-.465h-1.262v3.874zM92 16.5c0 2.095-.519 3.697-1.556 4.819C89.407 22.439 87.932 23 86 23s-3.417-.56-4.444-1.681C80.519 20.197 80 18.584 80 16.48c0-2.104.519-3.707 1.556-4.818C82.593 10.55 84.078 10 86.02 10c1.943 0 3.417.56 4.444 1.681C91.492 12.803 92 14.405 92 16.5zm-9.193 0c0 1.416.264 2.478.803 3.186.54.718 1.332 1.072 2.4 1.072 2.136 0 3.193-1.416 3.193-4.258s-1.057-4.268-3.183-4.268c-1.067 0-1.86.354-2.41 1.072-.539.718-.813 1.78-.813 3.196h.01zM99.348 23v-1.947h-.185c-1.02 0-1.915-.187-2.684-.57a4.292 4.292 0 01-1.818-1.702c-.447-.757-.661-1.593-.661-2.517 0-.924.195-1.701.593-2.42a4.148 4.148 0 011.702-1.68c.739-.404 1.614-.61 2.625-.61h.438V10h2.294v1.554h.438c1.001 0 1.867.206 2.615.61a4.15 4.15 0 011.702 1.68c.399.719.593 1.525.593 2.42a5.02 5.02 0 01-.661 2.517 4.24 4.24 0 01-1.818 1.702c-.769.373-1.663.57-2.684.57h-.185V23h-2.304zm0-9.342h-.34c-.808 0-1.45.236-1.916.708-.467.472-.7 1.101-.7 1.888 0 .826.243 1.495.739 1.986.496.492 1.196.748 2.09.748h.117v-5.33h.01zm2.294 5.33h.117c.885 0 1.575-.246 2.081-.728.506-.492.758-1.15.758-2.006 0-.787-.233-1.416-.7-1.888-.466-.472-1.108-.718-1.915-.718h-.341v5.34zM109.01 10h2.324v6.282l-.03 1.68-.078 1.912h.049L116.908 10H120v13h-2.304v-6.242c0-.84.049-2.074.147-3.713h-.069L112.112 23H109V10h.01zm23.97 12.82h-2.566V12.257h-2.968l-.127 1.178c-.343 2.985-.647 5.092-.911 6.3-.265 1.208-.647 2.057-1.146 2.546-.5.49-1.185.729-2.038.719-.46 0-.871-.06-1.224-.19v-2.226c.323.12.627.18.901.18s.529-.14.696-.43c.166-.28.333-.809.489-1.578.157-.768.353-2.026.608-3.784.254-1.747.47-3.404.646-4.972H133v12.83l-.02-.01zM145 18.933c0 2.711-1.763 4.067-5.278 4.067H136V10h2.711v4.988h1.062c1.67 0 2.959.344 3.866 1.032.907.687 1.361 1.659 1.361 2.913zm-6.289 1.8h.908c.917 0 1.587-.15 2.01-.444.423-.294.639-.749.639-1.356 0-.607-.216-1.032-.649-1.295-.433-.263-1.176-.394-2.217-.394h-.691v3.49zM64.173 44l-.902-3.084h-4.532L57.837 44H55l4.381-13h3.218L67 44h-2.837.01zm-1.534-5.381a591.19 591.19 0 01-1.403-4.737c-.1-.363-.18-.655-.221-.866-.19.755-.722 2.62-1.604 5.603h3.238-.01zM77 35.057c0 1.396-.442 2.468-1.314 3.207-.873.738-2.124 1.113-3.733 1.113h-1.188V44H68V31h4.164c1.577 0 2.786.344 3.606 1.022.82.678 1.23 1.69 1.23 3.035zm-6.235 2.064h.915c.851 0 1.482-.172 1.903-.506.42-.334.63-.82.63-1.467 0-.648-.178-1.123-.525-1.437-.357-.303-.904-.465-1.661-.465h-1.262v3.874zM84.15 44l-2.923-10.198h-.078c.108 2.074.157 3.46.157 4.148V44H79V31h3.513l2.874 9.945h.05L88.486 31H92v13h-2.404v-6.151c0-.293 0-.627.01-1.002 0-.384.05-1.386.108-3.024h-.079L86.495 44h-2.364.02zm19.023 0l-.902-3.084h-4.532L96.837 44H94l4.381-13h3.218L106 44h-2.837.01zm-1.534-5.381a574.384 574.384 0 01-1.403-4.737 12.04 12.04 0 01-.221-.866c-.19.755-.722 2.62-1.604 5.603h3.238-.01z"/></g><defs><clipPath id="clip0_193_842"><path fill="#fff" d="M0 0h145v44H0z"/></clipPath></defs></svg>