<svg width="142" height="55" fill="none" xmlns="http://www.w3.org/2000/svg"><g clip-path="url(#clip0_193_713)" fill="#fff"><path d="M22.253 19.7C29.25 10.178 48.43 3.345 71.007 3.345s41.519 6.748 48.623 16.175h19.374C130.17 8.227 103.075 0 71.007 0 38.94 0 11.56 8.312 2.872 19.7h19.381zm98.621 1.711c.927 1.65 1.498 3.362 1.668 5.128h19.45c-.154-1.758-.733-3.47-1.706-5.128h-19.42.008zM142 28.422h-19.435c-.123 1.89-.695 3.726-1.691 5.492h19.227c1.089-1.766 1.745-3.602 1.899-5.492zm-22.369 7.383c-7.104 9.427-26.192 16.174-48.623 16.174-22.431 0-41.287-6.662-48.5-15.996H3.422C12.656 47.022 39.427 55 71.008 55c31.581 0 58.645-8.072 67.741-19.196h-19.118zM19.459 28.607H.03c.193 1.883.873 3.719 2 5.493h19.22c-1.02-1.759-1.638-3.595-1.792-5.493zM0 26.718h19.458c.147-1.766.672-3.478 1.576-5.128H1.622C.679 23.248.124 24.96 0 26.718z"/><path d="M34.84 42.334l34.94-32.48h25.698c3.204 0 6.347 1.254 8.493 3.64 1.614 1.797 2.904 4.4 2.757 8.095-.131 3.355-1.413 5.841-3.004 7.646-2.478 2.812-6.13 4.3-9.868 4.3h-4.154l5.405 8.8H79.942l-9.83-17.105 22.115-.209c1.312.016 2.378-2.13 2.378-3.354 0-1.55-.834-3.533-2.734-3.548l-16.076-.07-25.62 24.293H34.84v-.008z"/><path d="M73.772 36.897l-4.695-7.762-7.969 7.762h12.664zm.926 1.518h-15.15l-4.671 4.555h22.578l-2.757-4.555z"/></g><defs><clipPath id="clip0_193_713"><path fill="#fff" d="M0 0h142v55H0z"/></clipPath></defs></svg>