<svg width="194" height="48" fill="none" xmlns="http://www.w3.org/2000/svg"><g clip-path="url(#clip0_193_652)" fill="#fff"><path fill-rule="evenodd" clip-rule="evenodd" d="M49.925 23.996c0 13.253-11.176 23.996-24.963 23.996C11.176 47.992 0 37.25 0 23.996 0 10.744 11.176 0 24.962 0 38.75 0 49.925 10.743 49.925 23.996zm-1.253-.03c0 11.652-9.805 21.098-21.9 21.098-12.095 0-21.9-9.446-21.9-21.098s9.805-21.098 21.9-21.098c12.095 0 21.9 9.446 21.9 21.098z"/><path d="M76.983 37.156l-2.15-7.378h-8.228l-2.103 7.378H60.79l8.05-26.668h3.828l8.05 26.668h-3.743.008zm-3.078-11.117l-2.018-7.227a59.032 59.032 0 01-.61-2.285 57.896 57.896 0 01-.542-2.285c-.263 1.49-.65 3.117-1.16 4.888l-1.941 6.924h6.271v-.015zm22.264-3.829c0 2.376-1.075 3.807-3.225 4.306v.144c1.206.181 2.127.673 2.76 1.468.635.795.96 1.831.96 3.11 0 1.9-.565 3.368-1.686 4.39-1.121 1.02-2.753 1.535-4.895 1.535h-7.44V17.066h7.417c4.075 0 6.117 1.71 6.117 5.138l-.008.007zm-3.31.363c0-.802-.24-1.377-.727-1.732-.487-.356-1.206-.538-2.165-.538h-4.014v4.836h3.527c1.105 0 1.948-.182 2.52-.553.573-.37.859-1.036.859-2.005v-.008zm.41 8.408c0-.969-.294-1.657-.874-2.058-.58-.41-1.454-.606-2.621-.606h-3.82V34h3.905c2.273 0 3.41-1.006 3.41-3.02zm17.129 6.175l-.758-2.8h-.132c-.858 1.226-1.724 2.058-2.598 2.497-.874.44-1.987.666-3.356.666-1.755 0-3.124-.53-4.106-1.597-.982-1.067-1.477-2.573-1.477-4.525 0-2.073.68-3.632 2.049-4.684 1.369-1.052 3.449-1.627 6.248-1.726l3.086-.105v-1.075c0-1.287-.263-2.24-.797-2.883-.533-.643-1.345-.734-2.467-.734-.912 0-1.886-.038-2.629.454-1.059.704-1.492 1.877-1.678 3.45h-3.495c.116-3.306 2.528-6.462 4.701-6.946 1.16-.258 2.235-.447 3.264-.447 2.273 0 3.982.56 5.142 1.673 1.16 1.112 1.733 2.86 1.733 5.251v13.53h-2.73zm-5.653-2.906c1.376 0 2.482-.431 3.317-1.302.836-.862 1.253-2.08 1.253-3.64v-1.74l-2.289.106c-1.786.076-3.085.409-3.897 1.006-.812.598-1.222 1.514-1.222 2.755 0 .893.24 1.589.711 2.08.472.493 1.183.735 2.127.735zm51.108 2.89l-.758-2.8h-.131c-.859 1.226-1.725 2.059-2.599 2.497-.874.44-1.987.666-3.356.666-1.755 0-3.124-.53-4.106-1.596-.982-1.067-1.477-2.573-1.477-4.526 0-2.073.68-3.632 2.049-4.684 1.369-1.052 3.449-1.627 6.248-1.725l3.086-.106V23.79c0-1.286-.263-2.24-.797-2.883-.533-.643-1.345-.734-2.466-.734-.913 0-1.887-.038-2.63.454-1.059.704-1.492 1.877-1.678 3.45h-3.495c.116-3.306 2.529-6.462 4.702-6.946 1.16-.257 2.234-.447 3.263-.447 2.273 0 3.982.56 5.142 1.673 1.16 1.112 1.733 2.86 1.733 5.252v13.53h-2.73zm-5.653-2.906c1.376 0 2.482-.431 3.317-1.301.836-.863 1.253-2.081 1.253-3.64v-1.74l-2.289.105c-1.786.076-3.085.409-3.897 1.007-.812.598-1.222 1.513-1.222 2.754 0 .893.24 1.59.711 2.081.472.492 1.184.734 2.127.734zm-30.808-17.17v8.067h7.385v-8.067h3.325v20.092h-3.325V28.49h-7.385v8.665h-3.333v-20.09h3.333zm24.026 0v3.345h-6.952v16.747h-3.403V17.065h10.355zm25.937 20.456c-2.057 0-3.658-.917-4.795-2.74h-.209c.14 1.695.209 2.724.209 3.087v8.226h-3.456V17.064h2.791c.077.379.24 1.272.487 2.687h.178c1.075-2.036 2.699-3.05 4.849-3.05 2.026 0 3.611.908 4.74 2.724 1.129 1.817 1.702 4.367 1.702 7.651s-.573 5.842-1.725 7.681c-1.152 1.839-2.745 2.762-4.771 2.762zm-.835-17.33c-1.369 0-2.375.5-3.009 1.49-.634.992-.951 2.581-.951 4.76v.636c0 2.444.31 4.215.944 5.312.626 1.098 1.655 1.643 3.07 1.643 1.198 0 2.119-.606 2.76-1.817.642-1.21.967-2.936.967-5.176s-.325-3.957-.967-5.115c-.641-1.158-1.585-1.733-2.83-1.733h.016zM194 44.261h-3.394v-7.105h-11.739v7.105h-3.364V33.85h1.392c1.222-2.043 2.188-4.518 2.9-7.424.711-2.906 1.144-6.024 1.276-9.368h10.408V33.84h2.506v10.413l.015.007zm-6.085-10.412V20.333h-3.689a42.416 42.416 0 01-1.23 7.379c-.626 2.421-1.384 4.472-2.281 6.137h7.2zM28.35 16.27v-5.207s9.511 8.718 12.566 8.408c0 0-8.622 4.056-12.234 10.867l-.263-7.023s-6.704-1.922-6.202 4.563c0 0-.255 5.161 8.19 10.61 0 0-14.02-3.42-15.614-12.471-1.438-8.173 13.564-9.747 13.564-9.747h-.007z"/><path d="M28.35 16.27v-5.207s7.346 6.675 11.205 8.158c0 0-9.605 5.252-10.974 8.892l-.232-6.682s-8.962-1.317-8.475 5.993c0 0 .565 5.668 8.197 10.322 0 0-13.332-3.178-13.912-12.955-.58-9.777 14.198-8.521 14.198-8.521h-.008z"/></g><defs><clipPath id="clip0_193_652"><path fill="#fff" d="M0 0h194v48H0z"/></clipPath></defs></svg>