<svg width="206" height="84" fill="none" xmlns="http://www.w3.org/2000/svg"><mask id="a" style="mask-type:luminance" maskUnits="userSpaceOnUse" x="0" y="0" width="206" height="84"><path d="M206 0H0v84h206V0z" fill="#fff"/></mask><g mask="url(#a)"><path fill-rule="evenodd" clip-rule="evenodd" d="M153.501.924h-13.11c-.932 0-1.766.816-1.766 1.764v1.26c0 1.039.95 1.764 2.018 1.764h13.613v.924c-.65.152-1.219.066-1.512.504.276.377.984.42 1.512.42v1.008c-.679 0-1.093.238-1.512.336.016.189-.166.282.555.453.27.064.673.135.957.135V10.5c-.601 0-1.255.069-1.512.42.253.378 1.024.463 1.512.504v.756c-2.788 0-2.427-.179-2.438.67l-.516 5.953c-.054.516-.141 1.112-.155 1.693-.005.233-.05.632-.141.783l-5.838 4.413c-1.705 1.279-.825.852-4.693.852-1.112 0-2.857-.307-2.857.924v7.896c0 1.246 2.121.924 3.445.924v12.684c.382-.102.68-.773 1.429-1.344l1.5-1.272c.533-.398 1.045-.788 1.635-1.138l1.283-.734c1.195-.714 3.099-1.38 4.557-1.745.72-.18 1.461-.334 2.32-.453.431-.059.89-.122 1.308-.12.59.002.86-.089 1.347-.089l2.581.199c2.38.295 4.334.994 6.41 1.908 1.319.582 3.038 1.865 4.155 2.736.369.288 1.52 1.328 1.809 1.718.161.215.136.257.423.334V36.288c1.325 0 3.446.322 3.446-.924v-7.896c0-.504-.401-.858-.847-.917-.796-.105-4.945.127-5.518-.03-.219-.059-.831-.6-1.056-.792l-5.112-4.046c-.626-.493-.485-.27-.613-1.236-.184-1.395-.789-7.48-.972-8.267h-2.521v-.84c.552 0 1.037-.087 1.261-.42-.199-.27-.918-.392-1.261-.42V9.492c.534-.125.988-.098 1.261-.504-1.237-.828-1.261.439-1.261-1.428.48-.01 1.046-.128 1.261-.42-.222-.302-.742-.42-1.261-.42V5.712h13.614c1.067 0 2.016-.725 2.016-1.764v-1.26c0-.948-.833-1.764-1.765-1.764h-13.108V0h-5.883v.924z" fill="#FEFEFE"/><path fill-rule="evenodd" clip-rule="evenodd" d="M154.425 79.632c0-.717.029-1.3.649-1.871.634-.584 1.719-.73 2.463-.4.413.183.805.576 1.036.981.767 1.353-.308 3.282-1.962 3.285-1.066.002-2.186-.913-2.186-1.995zM157.417 84h-1.852a21.122 21.122 0 01-4.148-.605c-5.376-1.335-9.829-4.819-12.649-9.532a19.954 19.954 0 01-1.581-3.376c-.988-2.747-1.166-4.705-1.166-7.655 0-2.724.977-6.085 1.904-7.925a49.56 49.56 0 01.841-1.596l3.157-4.152 1.336-1.183c.475-.382.831-.717 1.367-1.07l1.474-.963c.506-.302 1.059-.56 1.601-.835 1.786-.9 5.143-1.932 7.816-1.932h1.85c4.035 0 7.726 1.622 10.942 3.763l2.652 2.22c.786.803 2.169 2.533 2.744 3.473 1.754 2.872 3.157 6.431 3.157 10.2v1.512c0 2.764-1.002 6.14-1.931 7.98-1.266 2.507-2.222 3.858-4.098 5.733-3.672 3.67-8.428 5.717-13.416 5.943zm-12.068-6.888c-1.225 0-2.186-.941-2.186-2.436 0-1.672 2.384-2.779 3.804-1.365 1.354 1.347.387 3.801-1.618 3.801zm22.521-.168h-.504c-.938 0-1.933-.994-1.933-1.932v-.504c0-.938.995-1.932 1.933-1.932.729 0 1.356.042 1.912.694 1.353 1.585.057 3.674-1.408 3.674zm-22.017-12.768c0-2.617.373-4.6 1.884-6.685a9.55 9.55 0 011.162-1.358c.212-.212.371-.388.587-.59.219-.203.463-.36.713-.548 1.41-1.063 3.696-1.991 5.486-1.991 2.847 0 3.719.12 6.191 1.456 2.807 1.518 5.155 5.252 5.155 8.54 0 2.353-.06 2.969-.985 5.148l-.935 1.585c-.658.891-1.57 1.843-2.484 2.474-.297.204-.437.308-.759.5-2.065 1.236-3.546 1.465-6.015 1.465-1.533 0-2.858-.51-3.974-.983-.976-.414-2.205-1.372-2.938-2.104-1.769-1.767-3.088-4.353-3.088-6.91zm-7.479-.672c0-.55.366-1.228.649-1.535 1.153-1.251 3.805-.712 3.805 1.619 0 1.354-1.222 2.202-2.262 2.17-1.198-.035-2.192-1.122-2.192-2.254zm34.118 2.1c-.744 0-1.323-.057-1.862-.658-1.308-1.46-.194-3.71 1.358-3.71.804 0 1.283.011 1.915.69 1.369 1.473.128 3.678-1.411 3.678zM143.08 52.332c0-2.894 4.454-2.88 4.454 0 0 .62-.307 1.238-.61 1.574-1.205 1.331-3.844.629-3.844-1.574zm22.185 0c0-1.248.998-2.268 2.354-2.268 1.015 0 2.1.906 2.1 2.268 0 1.925-2.316 2.88-3.759 1.574-.292-.264-.695-1.058-.695-1.574zm-11.009-4.284c0-1.015.272-1.894 1.293-2.32 1.57-.659 3.078.584 3.078 1.816v.504c0 1.029-.976 1.932-2.354 1.932-.963 0-2.017-.969-2.017-1.932z" fill="#FEFEFE"/><path fill-rule="evenodd" clip-rule="evenodd" d="M147.702 58.548c0 .885 2.328 3.13 3.193 3.698 3.402 2.233 7.622 2.254 11.044.033.905-.587 3.243-2.89 3.243-3.647 0-.547-2.362-2.641-3.251-3.134-4.396-2.434-9.353-1.906-12.959 1.547l-.578.6c-.091.097-.692.849-.692.903z" fill="#FEFEFE"/><path d="M18.274 71.258h-8.79l-1.553 4.03H0l10.112-23.121h7.666l10.112 23.12h-8.063l-1.553-4.029zm-2.148-5.615l-2.247-5.813-2.247 5.813h4.494zm25.047-13.477c2.137 0 3.999.353 5.585 1.058 1.586.704 2.809 1.717 3.668 3.038.86 1.321 1.289 2.863 1.289 4.624 0 1.762-.43 3.303-1.289 4.625-.86 1.32-2.082 2.334-3.668 3.038-1.586.705-3.448 1.057-5.585 1.057h-3.337v5.682h-7.798V52.167h11.135zm-.495 11.429c1.057 0 1.85-.237 2.38-.71.528-.474.792-1.14.792-1.999 0-.858-.264-1.525-.793-1.998-.529-.473-1.322-.71-2.38-.71h-2.841v5.417h2.842zm34.036 11.693l-.066-10.537-5.023 8.456h-3.437l-5.023-8.093v10.174h-7.104V52.167h6.41l7.535 12.32 7.335-12.32h6.411l.066 23.12h-7.104zm27.493-4.03h-8.79l-1.553 4.03h-7.93l10.11-23.121h7.667l10.112 23.12h-8.063l-1.553-4.029zm-2.148-5.615l-2.247-5.814-2.247 5.814h4.494zm30.071-2.246l6.84 11.89h-8.79l-4.428-8.356h-2.181v8.357h-7.799V52.167h7.799v8.62h2.379l4.923-8.62h8.13l-6.873 11.23zm68.765 11.89l-.065-10.536-5.024 8.456h-3.436l-5.023-8.093v10.174h-7.104V52.167h6.41l7.534 12.32 7.336-12.32h6.411l.066 23.12h-7.105z" fill="#FEFEFE"/><path d="M6.82 8.334v7.73H5.724v-3.059c-.821.317-1.579.475-2.274.475-.946 0-1.682-.228-2.207-.684-.517-.457-.776-1.108-.776-1.955V8.334h1.087v2.386c0 .574.173 1.015.52 1.325.356.309.855.463 1.498.463.717 0 1.434-.161 2.152-.485V8.334H6.82zm7.612 6.769v.961H8.798v-7.73h5.478v.961h-4.37v2.374H13.8v.939H9.908v2.495h4.525zm7.641-6.769v7.73h-1.087V9.295H17.55l-.078 2.264c-.037 1.067-.126 1.932-.266 2.595-.133.662-.348 1.163-.643 1.502-.296.33-.696.496-1.198.496-.23 0-.462-.03-.699-.088l.078-.983c.118.03.236.045.355.045a.917.917 0 00.765-.376c.192-.258.336-.64.432-1.148.096-.508.16-1.178.189-2.01l.122-3.258h5.467zm7.664 0v7.73h-1.086v-2.252h-2.14c-.134 0-.234-.004-.3-.012l-1.553 2.264h-1.176l1.72-2.451c-.555-.184-.98-.49-1.276-.917-.296-.434-.444-.96-.444-1.579 0-.876.281-1.557.843-2.043.57-.493 1.335-.74 2.296-.74h3.116zm-5.134 2.772c0 .574.166 1.016.499 1.325.34.302.839.453 1.497.453h2.052V9.295h-1.986c-.665 0-1.175.155-1.53.464-.355.31-.532.758-.532 1.347zm7.114-2.772h5.855v.94h-4.757v2.208h2.418c.924 0 1.626.19 2.107.574.48.383.72.935.72 1.656 0 .758-.262 1.34-.787 1.745-.518.405-1.26.607-2.23.607h-3.326v-7.73zm3.282 6.858c.636 0 1.12-.122 1.453-.365.333-.243.5-.6.5-1.07 0-.936-.651-1.403-1.953-1.403h-2.184v2.838h2.184zm4.386-6.858h1.098v5.963l4.591-5.963h1.02v7.73h-1.087v-5.952l-4.602 5.952h-1.02v-7.73zm15.362 0v7.73h-1.11V12.62H49.18v3.445h-1.11v-7.73h1.11v3.324h4.458V8.334h1.109zm5.449 7.819c-.776 0-1.479-.169-2.107-.508a3.85 3.85 0 01-1.464-1.413 3.933 3.933 0 01-.532-2.032c0-.75.177-1.424.532-2.02A3.727 3.727 0 0158.1 8.766c.628-.346 1.33-.519 2.107-.519.606 0 1.16.103 1.664.31a3.35 3.35 0 011.286.894l-.72.695c-.585-.61-1.313-.916-2.185-.916-.577 0-1.098.129-1.564.386a2.837 2.837 0 00-1.098 1.071c-.259.45-.388.954-.388 1.513 0 .56.13 1.068.388 1.524.266.45.632.802 1.098 1.06.466.258.987.387 1.564.387.864 0 1.593-.31 2.184-.928l.721.696c-.355.397-.787.7-1.297.905a4.343 4.343 0 01-1.664.31zm6.751-3.49h-1.619v3.401h-1.087v-7.73h1.087v3.357h1.641l2.44-3.357h1.187l-2.773 3.744 2.906 3.986h-1.264l-2.518-3.4zm4.476-4.329h1.098v5.963l4.591-5.963h1.02v7.73h-1.086v-5.952l-4.603 5.952h-1.02v-7.73zm8.687 0h1.097v5.963L85.8 8.334h1.02v7.73h-1.087v-5.952l-4.602 5.952h-1.02v-7.73zm3.338-.54c-.607 0-1.076-.13-1.409-.387-.325-.265-.492-.64-.499-1.127h.787c.008.287.108.512.3.674.2.154.473.232.82.232.333 0 .6-.078.799-.232.207-.162.314-.387.322-.674h.776c-.007.479-.177.85-.51 1.116-.326.265-.788.397-1.386.397zm11.597 4.241c.488.133.868.364 1.142.696.274.324.41.714.41 1.17 0 .457-.147.858-.443 1.204-.288.338-.677.6-1.165.784a4.528 4.528 0 01-1.574.265 5.287 5.287 0 01-1.542-.232 4.595 4.595 0 01-1.397-.696l.388-.817c.34.265.72.464 1.142.596.421.133.847.2 1.275.2.621 0 1.143-.13 1.564-.387.421-.265.632-.626.632-1.082 0-.39-.159-.689-.477-.895-.317-.213-.765-.32-1.341-.32h-1.73v-.895h1.652c.495 0 .88-.099 1.153-.298a.997.997 0 00.422-.85c0-.405-.181-.725-.544-.96-.362-.236-.82-.354-1.375-.354a4.2 4.2 0 00-1.109.155c-.37.103-.72.257-1.054.463l-.355-.905a5.01 5.01 0 011.243-.497 5.33 5.33 0 011.308-.166c.547 0 1.05.085 1.509.254.458.17.82.416 1.087.74.273.324.41.703.41 1.137 0 .39-.111.733-.333 1.027a1.932 1.932 0 01-.898.663zm8.003 2.097h-4.126l-.854 1.932h-1.142l3.515-7.73h1.098l3.527 7.73h-1.164l-.854-1.932zm-.389-.884l-1.674-3.787-1.675 3.787h3.349zm8.138-1.192c.525.125.921.35 1.187.673.273.317.41.725.41 1.226 0 .67-.247 1.189-.743 1.557-.488.368-1.201.552-2.14.552h-3.549v-7.73h3.338c.85 0 1.512.173 1.985.52.481.338.721.828.721 1.468 0 .42-.107.777-.321 1.071-.208.295-.503.515-.888.663zm-3.737-.32h2.162c.54 0 .951-.107 1.231-.32.289-.214.433-.527.433-.94 0-.412-.144-.724-.433-.938-.288-.22-.698-.331-1.231-.331h-2.162v2.528zm2.429 3.456c1.19 0 1.785-.442 1.785-1.325 0-.442-.151-.766-.455-.972-.295-.214-.739-.32-1.33-.32h-2.429v2.617h2.429zm7.809.961c-.784 0-1.49-.169-2.118-.508a3.888 3.888 0 01-1.487-1.424 3.92 3.92 0 01-.532-2.02c0-.744.178-1.418.532-2.021a3.808 3.808 0 011.487-1.414c.628-.346 1.334-.519 2.118-.519.776 0 1.478.173 2.107.52.629.338 1.12.809 1.474 1.413.356.596.533 1.27.533 2.02 0 .751-.177 1.428-.533 2.032a3.816 3.816 0 01-1.474 1.413c-.629.34-1.331.508-2.107.508zm0-.982c.569 0 1.079-.13 1.53-.387a2.8 2.8 0 001.076-1.06c.266-.456.399-.964.399-1.524s-.133-1.063-.399-1.513a2.778 2.778 0 00-1.076-1.07 3.029 3.029 0 00-1.53-.387 3.16 3.16 0 00-1.553.386 2.861 2.861 0 00-1.087 1.071c-.258.45-.388.954-.388 1.513 0 .56.13 1.068.388 1.524.266.45.629.802 1.087 1.06a3.15 3.15 0 001.553.387zm12.643-.068v2.65h-1.031v-1.689h-6.389l-.01 1.69h-1.032l.011-2.65h.378c.487-.03.831-.413 1.031-1.149.2-.744.321-1.789.366-3.136l.077-2.485h5.456v6.77h1.143zm-5.701-4.185c-.036 1.09-.126 1.992-.266 2.706-.133.714-.351 1.207-.654 1.48h4.38v-5.81h-3.404l-.056 1.623zM6.41 22.639H3.75v6.768H2.661V22.64H.012v-.961H6.41v.96zm3.932-.961c1.006 0 1.797.239 2.373.717.577.479.865 1.138.865 1.977 0 .84-.288 1.498-.865 1.977-.576.478-1.367.717-2.373.717H8.423v2.341H7.314v-7.73h3.028zm-.033 4.428c.702 0 1.238-.148 1.608-.442.37-.302.554-.733.554-1.292 0-.56-.184-.986-.554-1.28-.37-.303-.906-.453-1.608-.453H8.423v3.467h1.886zm10.551-4.428l-3.448 6.371c-.274.508-.595.887-.965 1.137s-.773.376-1.21.376a2.59 2.59 0 01-1.042-.232l.289-.883c.273.095.517.143.732.143.488 0 .89-.257 1.209-.773l.177-.276-3.127-5.863h1.186l2.518 4.902 2.584-4.902h1.098zm.708 0h5.856v.938h-4.758v2.209h2.418c.924 0 1.627.191 2.107.574.48.383.721.935.721 1.656 0 .759-.262 1.34-.787 1.745-.518.405-1.261.607-2.23.607h-3.327v-7.73zm3.283 6.857c.636 0 1.12-.121 1.453-.364.333-.243.499-.6.499-1.072 0-.934-.65-1.402-1.952-1.402h-2.185v2.838h2.185zm7.879.961c-.783 0-1.49-.17-2.118-.508a3.886 3.886 0 01-1.486-1.425 3.912 3.912 0 01-.532-2.02c0-.744.177-1.418.532-2.021a3.804 3.804 0 011.486-1.414c.629-.346 1.335-.519 2.118-.519.777 0 1.479.173 2.108.52a3.72 3.72 0 011.474 1.413c.355.596.533 1.27.533 2.02a3.94 3.94 0 01-.532 2.032 3.829 3.829 0 01-1.476 1.414c-.628.338-1.33.508-2.107.508zm0-.983c.57 0 1.08-.129 1.53-.387a2.802 2.802 0 001.077-1.06c.266-.456.399-.964.399-1.523 0-.56-.133-1.064-.4-1.513a2.778 2.778 0 00-1.075-1.071 3.029 3.029 0 00-1.53-.387c-.57 0-1.088.129-1.553.387a2.86 2.86 0 00-1.087 1.07 2.975 2.975 0 00-.388 1.514c0 .559.13 1.067.388 1.523.266.45.628.803 1.087 1.06.465.258.983.387 1.552.387zm12.15-6.835v7.73h-1.086v-6.77H39.29v6.77h-1.098v-7.73h6.688zm5.006 0c1.006 0 1.797.239 2.373.717.577.479.865 1.138.865 1.977 0 .84-.288 1.498-.865 1.977-.576.478-1.367.717-2.373.717h-1.919v2.341h-1.109v-7.73h3.028zm-.033 4.428c.702 0 1.238-.148 1.608-.442.37-.302.554-.733.554-1.292 0-.56-.184-.986-.554-1.28-.37-.303-.906-.453-1.608-.453h-1.886v3.467h1.886zm7.972 3.39c-.784 0-1.49-.17-2.118-.508a3.887 3.887 0 01-1.486-1.425 3.913 3.913 0 01-.532-2.02c0-.744.177-1.418.532-2.021a3.805 3.805 0 011.486-1.414c.629-.346 1.334-.519 2.118-.519.776 0 1.479.173 2.107.52.629.338 1.12.81 1.475 1.413.355.596.533 1.27.533 2.02 0 .751-.178 1.429-.533 2.032a3.831 3.831 0 01-1.475 1.414c-.628.338-1.33.508-2.107.508zm0-.983c.57 0 1.08-.129 1.53-.387a2.803 2.803 0 001.076-1.06c.267-.456.4-.964.4-1.523a2.91 2.91 0 00-.4-1.513 2.78 2.78 0 00-1.075-1.071 3.03 3.03 0 00-1.53-.387c-.57 0-1.088.129-1.553.387a2.85 2.85 0 00-1.087 1.07 2.975 2.975 0 00-.389 1.514c0 .559.13 1.067.389 1.523.266.45.628.803 1.087 1.06.465.258.983.387 1.552.387zm10.298-3.114c.525.125.92.35 1.187.674.273.316.41.725.41 1.225 0 .67-.247 1.19-.743 1.557-.488.368-1.201.552-2.14.552h-3.549v-7.73h3.338c.85 0 1.512.174 1.985.52.48.338.721.828.721 1.468 0 .42-.107.777-.321 1.071-.207.295-.503.516-.888.663zm-3.737-.32h2.163c.54 0 .95-.107 1.23-.32.289-.214.433-.527.433-.939 0-.412-.144-.725-.432-.939-.289-.22-.7-.331-1.231-.331h-2.163v2.529zm2.429 3.456c1.19 0 1.785-.442 1.785-1.325 0-.442-.151-.766-.454-.972-.296-.213-.74-.32-1.331-.32h-2.429v2.617h2.429zm7.809.961c-.784 0-1.49-.17-2.118-.508a3.886 3.886 0 01-1.486-1.425 3.912 3.912 0 01-.533-2.02c0-.744.178-1.418.533-2.021a3.805 3.805 0 011.486-1.414c.628-.346 1.334-.519 2.118-.519.776 0 1.479.173 2.107.52.629.338 1.12.81 1.475 1.413.355.596.532 1.27.532 2.02 0 .751-.177 1.429-.532 2.032a3.83 3.83 0 01-1.475 1.414c-.628.338-1.33.508-2.107.508zm0-.983c.57 0 1.08-.129 1.53-.387a2.804 2.804 0 001.076-1.06c.266-.456.4-.964.4-1.523a2.91 2.91 0 00-.4-1.513 2.78 2.78 0 00-1.076-1.071 3.03 3.03 0 00-1.53-.387 3.15 3.15 0 00-1.553.387c-.458.257-.82.614-1.087 1.07a2.974 2.974 0 00-.388 1.514c0 .559.13 1.067.388 1.523.267.45.629.803 1.087 1.06.466.258.984.387 1.553.387zm12.643-.066v2.65h-1.03v-1.69h-6.389l-.01 1.69h-1.032l.01-2.65h.378c.488-.03.832-.413 1.031-1.149.2-.743.322-1.788.366-3.136l.078-2.484h5.456v6.769h1.142zm-5.7-4.185c-.037 1.09-.126 1.991-.266 2.705-.133.714-.351 1.207-.654 1.48h4.38v-5.808h-3.404l-.056 1.623zm13.45-2.584v7.73h-1.109v-3.446H89.45v3.445h-1.11v-7.73h1.11v3.325h4.458v-3.324h1.109zm5.47 7.818c-.783 0-1.49-.17-2.118-.508a3.886 3.886 0 01-1.486-1.425 3.912 3.912 0 01-.532-2.02c0-.744.177-1.418.532-2.021a3.805 3.805 0 011.486-1.414c.629-.346 1.335-.519 2.118-.519.777 0 1.479.173 2.107.52.629.338 1.12.81 1.475 1.413.355.596.533 1.27.533 2.02 0 .751-.178 1.429-.533 2.032a3.827 3.827 0 01-1.475 1.414c-.628.338-1.33.508-2.107.508zm0-.983a3.03 3.03 0 001.531-.387 2.808 2.808 0 001.076-1.06 2.97 2.97 0 00.399-1.523c0-.56-.133-1.064-.399-1.513a2.784 2.784 0 00-1.076-1.071 3.032 3.032 0 00-1.531-.387c-.569 0-1.087.129-1.552.387a2.85 2.85 0 00-1.087 1.07 2.974 2.974 0 00-.388 1.514c0 .559.129 1.067.388 1.523.266.45.628.803 1.087 1.06.465.258.983.387 1.552.387zm5.464-6.835h1.098v5.963l4.591-5.963h1.021v7.73h-1.087v-5.952l-4.603 5.952h-1.02v-7.73zm3.338-.54c-.606 0-1.075-.13-1.408-.387-.325-.265-.492-.64-.499-1.127h.787c.008.288.107.512.3.674.199.155.473.232.82.232.333 0 .599-.077.799-.232.207-.162.314-.386.322-.673h.776c-.008.478-.178.85-.51 1.115-.326.265-.788.397-1.387.397zM6.122 40.818H1.996l-.854 1.932H0l3.516-7.73h1.098l3.526 7.73H6.976l-.854-1.932zm-.388-.884l-1.675-3.787-1.675 3.787h3.35zm6.33-4.914c1.005 0 1.796.24 2.373.718.577.479.865 1.138.865 1.977 0 .839-.288 1.498-.865 1.976-.577.479-1.368.718-2.373.718h-1.919v2.341H9.036v-7.73h3.028zm-.034 4.428c.703 0 1.239-.147 1.609-.441.37-.302.554-.733.554-1.292 0-.56-.185-.987-.554-1.281-.37-.302-.906-.453-1.609-.453h-1.885v3.467h1.885zm11.569 3.302l-.011-5.632-2.806 4.693h-.51l-2.806-4.66v5.6h-1.065v-7.73h.91l3.238 5.432 3.194-5.433h.91l.01 7.73H23.6zm8.083-1.932h-4.125l-.854 1.932H25.56l3.515-7.73h1.098l3.527 7.73h-1.165l-.854-1.932zm-.388-.884l-1.674-3.787-1.675 3.787h3.35zm8.249-3.953H36.88v6.77h-1.087v-6.77h-2.65v-.96h6.399v.96z" fill="#fff"/><path d="M46.465 35.02l-3.449 6.372c-.273.508-.595.887-.965 1.137s-.772.376-1.209.376a2.6 2.6 0 01-1.042-.232l.288-.884c.274.096.518.144.732.144.488 0 .891-.258 1.21-.773l.176-.276-3.127-5.864h1.187l2.517 4.903 2.584-4.903h1.098zm3.735 0c1.005 0 1.796.24 2.373.718.577.479.865 1.138.865 1.977 0 .839-.288 1.498-.865 1.976-.577.479-1.368.718-2.373.718h-1.92v2.341h-1.108v-7.73H50.2zm-.034 4.428c.703 0 1.239-.147 1.608-.441.37-.302.555-.733.555-1.292 0-.56-.185-.987-.555-1.281-.37-.302-.905-.453-1.608-.453h-1.885v3.467h1.885zm7.776-1.733c.924 0 1.63.206 2.118.618.495.412.743 1.02.743 1.822 0 .847-.266 1.49-.798 1.932-.525.442-1.28.663-2.263.663h-3.205v-7.73h1.098v2.695h2.307zm-.244 4.163c.643 0 1.135-.144 1.475-.43.347-.295.521-.719.521-1.27 0-1.06-.665-1.59-1.996-1.59h-2.063v3.29h2.063zm4.336-6.858h1.098v7.73h-1.098v-7.73z" fill="#fff"/></g></svg>