<svg width="1440" height="1160" fill="none" xmlns="http://www.w3.org/2000/svg"><g opacity=".1" filter="url(#filter0_f_193_387)"><path d="M-318.881 1062.33c-16.223-6.28-3.263-20.18 12.96-13.89l68.782 26.66c1.402.54 76.119-65.59 76.119-65.59 7.677-7.07 16.733-11.668 26.459-13.449l73.119-13.388c1.078-.198 49.214-91.189 49.214-91.189 12.5-20.023 32.728-30.177 54.08-27.146l50.82 7.214c1.25.177 55.708-54.91 55.708-54.91 15.49-17.075 37.565-22.56 58.804-14.61l54.268-8.35c2.08.779 4.192-.262 5.121-2.524l34.358-83.672c9.355-22.781 27.618-37.3 48.798-38.796l71.062-9.741c88.599-6.255 326.41-270.898 355.491-357.738 0 0 101.476 89.932 130.22 109.781 0 0 66.156-118.21 84.165-121.508 28.663-5.247 128.263 50.143 128.263 50.143.5.217 117.76-170.839 136.69-172.285 26.13-1.995 55.55 19.699 74.44 32.47 2.72 1.841 74.87-59.808 74.87-59.808 14.48-27.661 23.64-5.581 50.72 5.014l54.98 21.515c1.74.681 84.32-105.5 84.32-105.5 10.28-15.005-54.88 141.853-79.25 132.316l-87.38-28.177c-1.94-.757-59.87 95.319-77.89 96.725-14.92 1.164-86.38-49.998-86.38-49.998-2.89-2.014-86.38 179.741-86.38 179.741-13.94 7.029-83.99 24.637-99.08 18.143l-49.39-21.257c-51.401-22.119-100.183 197.424-110.999 225.156l-54.239-81.261s-50.091 145.284-96.247 166.976c-46.156 21.691-126.807-23.201-126.807-23.201l-99.157 1.064a56.216 56.216 0 01-8.855 6.526l-79.775 47.359c-6.991 4.151-14.666 6.569-22.63 7.131l-71.943 5.079c-1.513.107-2.817 1.144-3.485 2.771l-34.359 83.672c-13.004 31.669-42.574 46.247-71.696 35.346l-59.166-27.904c-1.517-.568-56.367 66.036-56.367 66.036-12.496 13.774-29.425 20.144-46.932 17.659l-52.56-16.419c-1.526-.216-75.83 95.574-75.83 95.574-4.472 7.16-27.86-3.65-93.698 21.8-23.308 9.01-72.788 58.49-72.788 58.49-15.429 14.2-26.04 24.8-45.659 17.19l-64.889-35.24z" fill="url(#paint0_linear_193_387)"/><path d="M-318.881 1062.33c-16.223-6.28-3.263-20.18 12.96-13.89l68.782 26.66c1.402.54 76.119-65.59 76.119-65.59 7.677-7.07 16.733-11.668 26.459-13.449l73.119-13.388c1.078-.198 49.214-91.189 49.214-91.189 12.5-20.023 32.728-30.177 54.08-27.146l50.82 7.214c1.25.177 55.708-54.91 55.708-54.91 15.49-17.075 37.565-22.56 58.804-14.61l54.268-8.35c2.08.779 4.192-.262 5.121-2.524l34.358-83.672c9.355-22.781 27.618-37.3 48.798-38.796l71.062-9.741c88.599-6.255 326.41-270.898 355.491-357.738 0 0 101.476 89.932 130.22 109.781 0 0 66.156-118.21 84.165-121.508 28.663-5.247 128.263 50.143 128.263 50.143.5.217 117.76-170.839 136.69-172.285 26.13-1.995 55.55 19.699 74.44 32.47 2.72 1.841 74.87-59.808 74.87-59.808 14.48-27.661 23.64-5.581 50.72 5.014l54.98 21.515c1.74.681 84.32-105.5 84.32-105.5 10.28-15.005-54.88 141.853-79.25 132.316l-87.38-28.177c-1.94-.757-59.87 95.319-77.89 96.725-14.92 1.164-86.38-49.998-86.38-49.998-2.89-2.014-86.38 179.741-86.38 179.741-13.94 7.029-83.99 24.637-99.08 18.143l-49.39-21.257c-51.401-22.119-100.183 197.424-110.999 225.156l-54.239-81.261s-50.091 145.284-96.247 166.976c-46.156 21.691-126.807-23.201-126.807-23.201l-99.157 1.064a56.216 56.216 0 01-8.855 6.526l-79.775 47.359c-6.991 4.151-14.666 6.569-22.63 7.131l-71.943 5.079c-1.513.107-2.817 1.144-3.485 2.771l-34.359 83.672c-13.004 31.669-42.574 46.247-71.696 35.346l-59.166-27.904c-1.517-.568-56.367 66.036-56.367 66.036-12.496 13.774-29.425 20.144-46.932 17.659l-52.56-16.419c-1.526-.216-75.83 95.574-75.83 95.574-4.472 7.16-27.86-3.65-93.698 21.8-23.308 9.01-72.788 58.49-72.788 58.49-15.429 14.2-26.04 24.8-45.659 17.19l-64.889-35.24z" stroke="url(#paint1_linear_193_387)"/></g><defs><linearGradient id="paint0_linear_193_387" x1="574.521" y1="-78.503" x2="370.163" y2="1221.72" gradientUnits="userSpaceOnUse"><stop stop-color="#DD0858"/><stop offset=".446" stop-color="#7823EB"/><stop offset=".791" stop-color="#6FBEDA"/><stop offset="1" stop-color="#38FFE7" stop-opacity=".489"/></linearGradient><linearGradient id="paint1_linear_193_387" x1="-403.814" y1="453.553" x2="1247.67" y2="1496.08" gradientUnits="userSpaceOnUse"><stop stop-color="#9600FE"/><stop offset="1" stop-color="#6700FF"/></linearGradient><filter id="filter0_f_193_387" x="-385.491" y=".869" width="2040.69" height="1158.39" filterUnits="userSpaceOnUse" color-interpolation-filters="sRGB"><feFlood flood-opacity="0" result="BackgroundImageFix"/><feBlend in="SourceGraphic" in2="BackgroundImageFix" result="shape"/><feGaussianBlur stdDeviation="29.575" result="effect1_foregroundBlur_193_387"/></filter></defs></svg>