<svg width="1440" height="1160" viewBox="0 0 1440 1160" fill="none" xmlns="http://www.w3.org/2000/svg">
<g opacity="0.1" filter="url(#filter0_f_193_387)">
<path d="M-318.881 1062.33C-335.104 1056.05 -322.144 1042.15 -305.921 1048.44L-237.139 1075.1C-235.737 1075.64 -161.02 1009.51 -161.02 1009.51C-153.343 1002.44 -144.287 997.842 -134.561 996.061L-61.4421 982.673C-60.3637 982.475 -12.2277 891.484 -12.2277 891.484C0.271228 871.461 20.5 861.307 41.8514 864.338L92.6717 871.552C93.9222 871.729 148.38 816.642 148.38 816.642C163.87 799.567 185.945 794.082 207.184 802.032L261.452 793.682C263.532 794.461 265.644 793.42 266.573 791.158L300.931 707.486C310.286 684.705 328.549 670.186 349.729 668.69L420.791 658.949C509.39 652.694 747.201 388.051 776.282 301.211C776.282 301.211 877.758 391.143 906.502 410.992C906.502 410.992 972.658 292.782 990.667 289.484C1019.33 284.237 1118.93 339.627 1118.93 339.627C1119.43 339.844 1236.69 168.788 1255.62 167.342C1281.75 165.347 1311.17 187.041 1330.06 199.812C1332.78 201.653 1404.93 140.004 1404.93 140.004C1419.41 112.343 1428.57 134.423 1455.65 145.018L1510.63 166.533C1512.37 167.214 1594.95 61.0324 1594.95 61.0324C1605.23 46.0277 1540.07 202.886 1515.7 193.349L1428.32 165.172C1426.38 164.415 1368.45 260.491 1350.43 261.897C1335.51 263.061 1264.05 211.899 1264.05 211.899C1261.16 209.885 1177.67 391.64 1177.67 391.64C1163.73 398.669 1093.68 416.277 1078.59 409.783L1029.2 388.526C977.799 366.407 929.017 585.95 918.201 613.682L863.962 532.421C863.962 532.421 813.871 677.705 767.715 699.397C721.559 721.088 640.908 676.196 640.908 676.196L541.751 677.26C538.973 679.754 536.011 681.937 532.896 683.786L453.121 731.145C446.13 735.296 438.455 737.714 430.491 738.276L358.548 743.355C357.035 743.462 355.731 744.499 355.063 746.126L320.704 829.798C307.7 861.467 278.13 876.045 249.008 865.144L189.842 837.24C188.325 836.672 133.475 903.276 133.475 903.276C120.979 917.05 104.05 923.42 86.5428 920.935L33.9823 904.516C32.4572 904.3 -41.8466 1000.09 -41.8466 1000.09C-46.3194 1007.25 -69.7076 996.44 -135.545 1021.89C-158.853 1030.9 -208.333 1080.38 -208.333 1080.38C-223.762 1094.58 -234.373 1105.18 -253.992 1097.57L-318.881 1062.33Z" fill="url(#paint0_linear_193_387)"/>
<path d="M-318.881 1062.33C-335.104 1056.05 -322.144 1042.15 -305.921 1048.44L-237.139 1075.1C-235.737 1075.64 -161.02 1009.51 -161.02 1009.51C-153.343 1002.44 -144.287 997.842 -134.561 996.061L-61.4421 982.673C-60.3637 982.475 -12.2277 891.484 -12.2277 891.484C0.271228 871.461 20.5 861.307 41.8514 864.338L92.6717 871.552C93.9222 871.729 148.38 816.642 148.38 816.642C163.87 799.567 185.945 794.082 207.184 802.032L261.452 793.682C263.532 794.461 265.644 793.42 266.573 791.158L300.931 707.486C310.286 684.705 328.549 670.186 349.729 668.69L420.791 658.949C509.39 652.694 747.201 388.051 776.282 301.211C776.282 301.211 877.758 391.143 906.502 410.992C906.502 410.992 972.658 292.782 990.667 289.484C1019.33 284.237 1118.93 339.627 1118.93 339.627C1119.43 339.844 1236.69 168.788 1255.62 167.342C1281.75 165.347 1311.17 187.041 1330.06 199.812C1332.78 201.653 1404.93 140.004 1404.93 140.004C1419.41 112.343 1428.57 134.423 1455.65 145.018L1510.63 166.533C1512.37 167.214 1594.95 61.0324 1594.95 61.0324C1605.23 46.0277 1540.07 202.886 1515.7 193.349L1428.32 165.172C1426.38 164.415 1368.45 260.491 1350.43 261.897C1335.51 263.061 1264.05 211.899 1264.05 211.899C1261.16 209.885 1177.67 391.64 1177.67 391.64C1163.73 398.669 1093.68 416.277 1078.59 409.783L1029.2 388.526C977.799 366.407 929.017 585.95 918.201 613.682L863.962 532.421C863.962 532.421 813.871 677.705 767.715 699.397C721.559 721.088 640.908 676.196 640.908 676.196L541.751 677.26C538.973 679.754 536.011 681.937 532.896 683.786L453.121 731.145C446.13 735.296 438.455 737.714 430.491 738.276L358.548 743.355C357.035 743.462 355.731 744.499 355.063 746.126L320.704 829.798C307.7 861.467 278.13 876.045 249.008 865.144L189.842 837.24C188.325 836.672 133.475 903.276 133.475 903.276C120.979 917.05 104.05 923.42 86.5428 920.935L33.9823 904.516C32.4572 904.3 -41.8466 1000.09 -41.8466 1000.09C-46.3194 1007.25 -69.7076 996.44 -135.545 1021.89C-158.853 1030.9 -208.333 1080.38 -208.333 1080.38C-223.762 1094.58 -234.373 1105.18 -253.992 1097.57L-318.881 1062.33Z" stroke="url(#paint1_linear_193_387)"/>
</g>
<defs>
<filter id="filter0_f_193_387" x="-385.491" y="0.869255" width="2040.69" height="1158.39" filterUnits="userSpaceOnUse" color-interpolation-filters="sRGB">
<feFlood flood-opacity="0" result="BackgroundImageFix"/>
<feBlend mode="normal" in="SourceGraphic" in2="BackgroundImageFix" result="shape"/>
<feGaussianBlur stdDeviation="29.5751" result="effect1_foregroundBlur_193_387"/>
</filter>
<linearGradient id="paint0_linear_193_387" x1="574.521" y1="-78.503" x2="370.163" y2="1221.72" gradientUnits="userSpaceOnUse">
<stop stop-color="#DD0858"/>
<stop offset="0.445538" stop-color="#7823EB"/>
<stop offset="0.790756" stop-color="#6FBEDA"/>
<stop offset="1" stop-color="#38FFE7" stop-opacity="0.489074"/>
</linearGradient>
<linearGradient id="paint1_linear_193_387" x1="-403.814" y1="453.553" x2="1247.67" y2="1496.08" gradientUnits="userSpaceOnUse">
<stop stop-color="#9600FE"/>
<stop offset="1" stop-color="#6700FF"/>
</linearGradient>
</defs>
</svg>
