<svg width="40" height="40" viewBox="0 0 40 40" fill="none" xmlns="http://www.w3.org/2000/svg">
<path d="M30.1755 20.841V6.09475C30.1755 5.03909 29.3197 4.18328 28.264 4.18328H11.9115C10.8558 4.18328 10 5.03909 10 6.09475V37.0885C10 38.1442 10.8558 39 11.9115 39H28.264C29.3197 39 30.1755 38.1442 30.1755 37.0885V23.5171M10 7.38431H14.965M17.6411 7.38431H30.1755M23.8346 4.18328V1.99473C23.8346 1.4453 23.4044 1 22.8739 1H17.3016C16.771 1 16.3409 1.44537 16.3409 1.99473V4.18321L23.8346 4.18328Z" stroke="#6430E8" stroke-width="2" stroke-miterlimit="10" stroke-linecap="round" stroke-linejoin="round"/>
<path d="M22.3056 33.9923H12.7846C12.6832 33.9923 12.586 34.0326 12.5143 34.1043C12.4426 34.1759 12.4023 34.2732 12.4023 34.3746V36.1311C12.4023 36.2325 12.4426 36.3298 12.5143 36.4015C12.586 36.4732 12.6832 36.5134 12.7846 36.5134H27.3919C27.4932 36.5134 27.5905 36.4732 27.6622 36.4015C27.7339 36.3298 27.7741 36.2325 27.7741 36.1311V34.3746C27.7741 34.2732 27.7339 34.1759 27.6622 34.1043C27.5905 34.0326 27.4932 33.9923 27.3919 33.9923H24.9816M16.4056 23.5939H15.1108C14.4774 23.5939 13.9639 23.0804 13.9639 22.447V17.9359C13.9639 17.3026 14.4774 16.7891 15.1108 16.7891H16.4056C17.039 16.7891 17.5525 17.3026 17.5525 17.9359V22.447C17.5525 23.0804 17.039 23.5939 16.4056 23.5939Z" stroke="#6430E8" stroke-width="1.5" stroke-miterlimit="10" stroke-linecap="round" stroke-linejoin="round"/>
<path d="M21.3597 19.0045C21.9715 19.0045 22.4674 18.5086 22.4674 17.8968C22.4674 17.285 21.9715 16.7891 21.3597 16.7891C20.7479 16.7891 20.252 17.285 20.252 17.8968C20.252 18.5086 20.7479 19.0045 21.3597 19.0045Z" stroke="#6430E8" stroke-width="1.5" stroke-miterlimit="10" stroke-linecap="round" stroke-linejoin="round"/>
<path d="M25.1048 23.5934C25.7166 23.5934 26.2125 23.0974 26.2125 22.4857C26.2125 21.8739 25.7166 21.3779 25.1048 21.3779C24.493 21.3779 23.9971 21.8739 23.9971 22.4857C23.9971 23.0974 24.493 23.5934 25.1048 23.5934Z" stroke="#6430E8" stroke-width="1.5" stroke-miterlimit="10" stroke-linecap="round" stroke-linejoin="round"/>
<path d="M25.7897 16.7891L20.6729 23.5939" stroke="#6430E8" stroke-width="1.5" stroke-miterlimit="10" stroke-linecap="round" stroke-linejoin="round"/>
</svg>
