<svg width="40" height="40" viewBox="0 0 40 40" fill="none" xmlns="http://www.w3.org/2000/svg">
<path d="M24.5816 28.358H14.8637C14.2487 28.358 13.7504 27.8596 13.7504 27.2447C13.7504 24.8654 12.8397 22.5846 11.1866 20.8228C9.17635 18.6808 8.04504 15.8815 8.00132 12.9408C7.95434 9.78735 9.16151 6.79715 11.4 4.52049C13.6266 2.25623 16.5741 1.00579 19.6998 1H19.7229C22.8424 1 25.7775 2.21504 27.9896 4.42304C30.2179 6.64701 31.4452 9.60849 31.4452 12.7617C31.4452 15.7855 30.3037 18.6586 28.2311 20.852C26.5953 22.5832 25.6949 24.8532 25.6949 27.2447C25.6949 27.8594 25.1962 28.358 24.5816 28.358ZM15.923 26.1314H23.5211C23.7646 23.5828 24.8408 21.1983 26.6125 19.3231C28.2932 17.5444 29.2183 15.2143 29.2183 12.7617C29.2183 10.204 28.2233 7.802 26.4166 5.99878C24.6251 4.21085 22.2484 3.22656 19.7226 3.22656H19.7041C17.1789 3.23116 14.7935 4.24536 12.9879 6.08168C11.1698 7.93018 10.1896 10.3542 10.2279 12.9074C10.2632 15.2923 11.1803 17.5624 12.8102 19.299C14.5934 21.1994 15.6771 23.5923 15.923 26.1314ZM24.4361 31.9054H15.0088C14.3939 31.9054 13.8956 31.4071 13.8956 30.7921C13.8956 30.1772 14.3939 29.6789 15.0088 29.6789H24.4361C25.051 29.6789 25.5494 30.1772 25.5494 30.7921C25.5494 31.4071 25.051 31.9054 24.4361 31.9054ZM24.4361 35.4526H15.0088C14.3939 35.4526 13.8956 34.9542 13.8956 34.3393C13.8956 33.7247 14.3939 33.226 15.0088 33.226H24.4361C25.051 33.226 25.5494 33.7247 25.5494 34.3393C25.5494 34.9542 25.051 35.4526 24.4361 35.4526ZM22.7015 39H16.7435C16.1288 39 15.6302 38.5013 15.6302 37.8867C15.6302 37.2718 16.1288 36.7734 16.7435 36.7734H22.7015C23.3164 36.7734 23.8148 37.2718 23.8148 37.8867C23.8148 38.5013 23.3164 39 22.7015 39Z" fill="#6430E8"/>
</svg>
