<svg width="40" height="40" viewBox="0 0 40 40" fill="none" xmlns="http://www.w3.org/2000/svg">
<g clip-path="url(#clip0_193_281)">
<path d="M19.5597 1.34961C15.9597 1.34961 12.4397 2.41961 9.43971 4.41961C6.44971 6.41961 4.10971 9.25961 2.73971 12.5896C1.35971 15.9196 0.999714 19.5796 1.69971 23.1096C2.39971 26.6396 4.13971 29.8896 6.67971 32.4296C9.22971 34.9796 12.4697 36.7096 15.9997 37.4096C19.5297 38.1096 23.1897 37.7496 26.5197 36.3696C29.8497 34.9896 32.6897 32.6596 34.6897 29.6596C36.6897 26.6696 37.7597 23.1496 37.7597 19.5396C37.7597 14.7096 35.8297 10.0796 32.4197 6.66961C29.0097 3.27961 24.3897 1.35961 19.5597 1.34961ZM19.5597 36.1796C16.2697 36.1796 13.0597 35.1996 10.3197 33.3796C7.58971 31.5496 5.45971 28.9596 4.19971 25.9196C2.93971 22.8796 2.60971 19.5396 3.24971 16.3096C3.88971 13.0796 5.46971 10.1196 7.79971 7.79961C10.1297 5.46961 13.0897 3.88961 16.3097 3.24961C19.5297 2.60961 22.8797 2.93961 25.9197 4.19961C28.9597 5.45961 31.5497 7.58961 33.3797 10.3196C35.2097 13.0496 36.1797 16.2696 36.1797 19.5596C36.1797 23.9696 34.4197 28.1896 31.3097 31.3096C28.1897 34.4296 23.9697 36.1796 19.5597 36.1796ZM8.95971 19.7296C8.81971 19.6196 8.64971 19.5596 8.46971 19.5596C8.28971 19.5596 8.11971 19.6196 7.97971 19.7296C7.52971 20.0796 5.29971 21.8996 5.29971 23.5196C5.29971 24.3596 5.62971 25.1696 6.22971 25.7596C6.81971 26.3496 7.62971 26.6896 8.46971 26.6896C9.30971 26.6896 10.1197 26.3596 10.7097 25.7596C11.2997 25.1696 11.6397 24.3596 11.6397 23.5196C11.6397 21.8996 9.40971 20.0796 8.95971 19.7296ZM8.46971 25.0996C8.04971 25.0996 7.64971 24.9296 7.34971 24.6396C7.04971 24.3396 6.88971 23.9396 6.88971 23.5196C6.88971 23.0596 7.63971 22.1396 8.46971 21.3896C9.29971 22.1396 10.0497 23.0596 10.0497 23.5196C10.0497 23.9396 9.87971 24.3396 9.58971 24.6396C9.28971 24.9396 8.88971 25.0996 8.46971 25.0996ZM28.1097 28.5896C28.1697 28.6696 28.2197 28.7696 28.2397 28.8696C28.2697 28.9696 28.2697 29.0796 28.2597 29.1796C28.2497 29.2796 28.2097 29.3796 28.1597 29.4696C28.1097 29.5596 28.0397 29.6396 27.9497 29.6996C27.8697 29.7596 27.7697 29.8096 27.6697 29.8296C27.5697 29.8596 27.4597 29.8596 27.3597 29.8496C27.2597 29.8396 27.1597 29.7996 27.0697 29.7496C26.9797 29.6996 26.8997 29.6296 26.8397 29.5396C26.7497 29.4296 24.5997 26.6896 19.5597 26.6896C14.5197 26.6896 12.2997 29.5096 12.2797 29.5396C12.1497 29.7096 11.9697 29.8196 11.7597 29.8496C11.5497 29.8796 11.3397 29.8296 11.1697 29.6996C10.9997 29.5696 10.8897 29.3896 10.8597 29.1796C10.8297 28.9696 10.8797 28.7596 11.0097 28.5896C11.1197 28.4496 13.6897 25.1096 19.5597 25.1096C25.4297 25.1096 27.9997 28.4496 28.1097 28.5896Z" fill="#6430E8" stroke="#6430E8" stroke-width="0.7" stroke-miterlimit="10"/>
<path d="M14.5948 9.32037L8.16026 11.7839C7.78374 11.9281 7.59538 12.3501 7.73953 12.7267L7.77171 12.8107C7.91586 13.1872 8.33795 13.3756 8.71446 13.2314L15.149 10.7679C15.5255 10.6237 15.7139 10.2017 15.5697 9.82514L15.5375 9.74109C15.3934 9.36458 14.9713 9.17621 14.5948 9.32037Z" fill="#6430E8" stroke="#6430E8" stroke-width="0.8" stroke-miterlimit="10"/>
<path d="M23.9746 10.7598L30.4091 13.2234C30.7856 13.3675 31.2077 13.1791 31.3518 12.8026L31.384 12.7186C31.5282 12.3421 31.3398 11.92 30.9633 11.7758L24.5288 9.31229C24.1522 9.16813 23.7302 9.3565 23.586 9.73301L23.5538 9.81706C23.4097 10.1936 23.598 10.6157 23.9746 10.7598Z" fill="#6430E8" stroke="#6430E8" stroke-width="0.8" stroke-miterlimit="10"/>
<path fill-rule="evenodd" clip-rule="evenodd" d="M12.75 20C14.5449 20 16 18.5449 16 16.75C16 14.9551 14.5449 13.5 12.75 13.5C10.9551 13.5 9.5 14.9551 9.5 16.75C9.5 18.5449 10.9551 20 12.75 20ZM12.75 18C13.4404 18 14 17.4404 14 16.75C14 16.0596 13.4404 15.5 12.75 15.5C12.0596 15.5 11.5 16.0596 11.5 16.75C11.5 17.4404 12.0596 18 12.75 18Z" fill="#6430E8"/>
<path fill-rule="evenodd" clip-rule="evenodd" d="M26.25 20C28.0449 20 29.5 18.5449 29.5 16.75C29.5 14.9551 28.0449 13.5 26.25 13.5C24.4551 13.5 23 14.9551 23 16.75C23 18.5449 24.4551 20 26.25 20ZM26.25 18C26.9404 18 27.5 17.4404 27.5 16.75C27.5 16.0596 26.9404 15.5 26.25 15.5C25.5596 15.5 25 16.0596 25 16.75C25 17.4404 25.5596 18 26.25 18Z" fill="#6430E8"/>
</g>
<defs>
<clipPath id="clip0_193_281">
<rect width="37.12" height="37.12" fill="white" transform="translate(1 1)"/>
</clipPath>
</defs>
</svg>
