<svg width="40" height="40" viewBox="0 0 40 40" fill="none" xmlns="http://www.w3.org/2000/svg">
<g clip-path="url(#clip0_193_304)">
<path d="M20.0002 35.9102C20.0002 33.3506 17.9257 31.276 15.3661 31.276H12.0449V29.4679C13.8445 28.8315 15.1344 27.1145 15.1344 25.0972V22.0077C15.1344 21.6385 15.0911 21.2794 15.01 20.9357" stroke="#6430E8" stroke-width="2" stroke-miterlimit="10" stroke-linecap="round" stroke-linejoin="round"/>
<path d="M7.41113 31.2764L8.95585 39" stroke="#6430E8" stroke-width="2" stroke-miterlimit="10" stroke-linecap="round" stroke-linejoin="round"/>
<path d="M13.5896 31.2764L12.0449 39" stroke="#6430E8" stroke-width="2" stroke-miterlimit="10" stroke-linecap="round" stroke-linejoin="round"/>
<path d="M4.08984 35.9106V39" stroke="#6430E8" stroke-width="2" stroke-miterlimit="10" stroke-linecap="round" stroke-linejoin="round"/>
<path d="M16.9102 39V35.9106" stroke="#6430E8" stroke-width="2" stroke-miterlimit="10" stroke-linecap="round" stroke-linejoin="round"/>
<path d="M7.41097 18.554C8.23121 17.8211 9.31328 17.3746 10.5004 17.3746H12.9503C13.1658 17.3746 13.3797 17.3615 13.5906 17.336V17.3353C14.7595 17.1928 15.8469 16.6628 16.6793 15.8299V17.3746C16.6793 18.8066 16.0305 20.0864 15.0102 20.9368C14.2069 21.6056 13.1728 22.0088 12.0451 22.0088C9.27775 22.0088 7.48666 20.5653 6.53125 19.616" stroke="#6430E8" stroke-width="2" stroke-miterlimit="10" stroke-linecap="round" stroke-linejoin="round"/>
<path d="M34.1341 25.0976C34.1341 27.115 32.8443 28.8319 31.0447 29.4683V31.2764H34.3659C36.9254 31.2764 39 33.351 39 35.9106V39H1V35.9106C1 33.351 3.07455 31.2764 5.63415 31.2764H8.95528V29.4683C7.15569 28.8319 5.86585 27.1157 5.86585 25.0983V22.0081C5.86585 21.1323 6.10915 20.3136 6.53085 19.6154C6.77028 19.2184 7.06764 18.8608 7.41057 18.5541" stroke="#6430E8" stroke-width="2" stroke-miterlimit="10" stroke-linecap="round" stroke-linejoin="round"/>
<path d="M24.8662 23.5527H26.0464C28.1634 23.5527 30.0982 22.3564 31.0451 20.4633C31.0451 22.1694 32.4284 23.5527 34.1345 23.5527" stroke="#6430E8" stroke-width="2" stroke-miterlimit="10" stroke-linecap="round" stroke-linejoin="round"/>
<path d="M20 39V35.9106C20 33.351 22.0746 31.2764 24.6341 31.2764H27.9553V29.4683C26.1557 28.8319 24.8659 27.1157 24.8659 25.0983" stroke="#6430E8" stroke-width="2" stroke-miterlimit="10" stroke-linecap="round" stroke-linejoin="round"/>
<path d="M26.4109 18.5544C25.4632 19.4025 24.8662 20.6359 24.8662 22.0084V25.0986" stroke="#6430E8" stroke-width="2" stroke-miterlimit="10" stroke-linecap="round" stroke-linejoin="round"/>
<path d="M32.59 18.5537C31.7698 17.8207 30.6877 17.3743 29.5006 17.3743C28.3134 17.3743 27.2314 17.8207 26.4111 18.5537" stroke="#6430E8" stroke-width="2" stroke-miterlimit="10" stroke-linecap="round" stroke-linejoin="round"/>
<path d="M34.1346 25.0977V22.0082C34.1346 20.6357 33.5375 19.4023 32.5898 18.5542" stroke="#6430E8" stroke-width="2" stroke-miterlimit="10" stroke-linecap="round" stroke-linejoin="round"/>
<path d="M26.4111 31.2764L27.9558 39" stroke="#6430E8" stroke-width="2" stroke-miterlimit="10" stroke-linecap="round" stroke-linejoin="round"/>
<path d="M32.5896 31.2764L31.0449 39" stroke="#6430E8" stroke-width="2" stroke-miterlimit="10" stroke-linecap="round" stroke-linejoin="round"/>
<path d="M23.0898 35.9106V39" stroke="#6430E8" stroke-width="2" stroke-miterlimit="10" stroke-linecap="round" stroke-linejoin="round"/>
<path d="M35.9102 39V35.9106" stroke="#6430E8" stroke-width="2" stroke-miterlimit="10" stroke-linecap="round" stroke-linejoin="round"/>
<path d="M31.0445 31.2766L29.4998 32.8213L27.9551 31.2766" stroke="#6430E8" stroke-width="2" stroke-miterlimit="10" stroke-linecap="round" stroke-linejoin="round"/>
<path d="M8.95508 31.2766L10.4998 32.8213L12.0445 31.2766" stroke="#6430E8" stroke-width="2" stroke-miterlimit="10" stroke-linecap="round" stroke-linejoin="round"/>
<path d="M7.41005 12.2803C7.28434 12.2803 7.18241 12.3822 7.18241 12.5079C7.18241 12.6336 7.28434 12.7356 7.41005 12.7356C7.53576 12.7356 7.6377 12.6336 7.6377 12.5079C7.6377 12.3822 7.53576 12.2803 7.41005 12.2803Z" fill="#6430E8" stroke="#6430E8" stroke-width="2"/>
<path d="M7.41113 18.5537V15.9833" stroke="#6430E8" stroke-width="2" stroke-miterlimit="10" stroke-linecap="round" stroke-linejoin="round"/>
<path d="M7.41072 9.03284V7.17919H4.32129L10.5002 1.00032L16.679 7.17919H13.5896V17.3311" stroke="#6430E8" stroke-width="2" stroke-miterlimit="10" stroke-linecap="round" stroke-linejoin="round"/>
</g>
<defs>
<clipPath id="clip0_193_304">
<rect width="40" height="40" fill="white"/>
</clipPath>
</defs>
</svg>
