<svg width="40" height="36" viewBox="0 0 40 36" fill="none" xmlns="http://www.w3.org/2000/svg">
<g clip-path="url(#clip0_193_292)">
<path d="M36.886 0.404407H26.4539C26.0319 0.404407 25.6895 0.745076 25.6895 1.16497V1.76708C24.8135 1.20458 23.8658 0.752998 22.8625 0.436097C22.7828 0.412329 22.7112 0.396484 22.6315 0.396484H7.66835C7.58075 0.396484 7.49316 0.412329 7.40556 0.44402C6.21106 0.879759 5.26341 1.79877 4.79358 2.97131C4.45911 3.83486 4.40337 4.7618 4.62635 5.63328C3.70259 5.91057 2.89033 6.5206 2.38864 7.37624C1.79935 8.3824 1.95065 9.63416 2.34882 10.6562C1.15432 11.496 0.469467 12.5497 0.397797 13.6905C0.318163 14.9739 1.16228 16.091 2.08603 16.907C1.22599 17.9053 0.612807 19.268 1.14635 20.5435C1.75157 22.0092 3.20887 22.9282 4.78561 22.8489C7.73206 23.0629 10.7104 23.0074 13.6488 22.6905C12.4782 24.79 12.1278 27.2539 12.6853 29.6544L12.7092 29.7495C13.2507 31.2389 14.1824 32.8076 15.4645 34.3921C16.1812 35.2794 17.2562 35.6042 18.2835 35.6042C18.7374 35.6042 19.1675 35.5409 19.5736 35.4458C19.8682 35.3982 20.1231 35.2398 20.3142 34.9942C20.7442 34.4317 21.007 33.2909 20.1151 28.7354C20.0594 28.4423 20.0036 28.1491 20.0116 28.0541C20.0116 28.0224 20.0992 27.8718 20.1708 27.7372C20.2345 27.6183 20.3142 27.4678 20.4177 27.2776C23.4199 21.3595 24.5507 19.9968 24.9329 19.6879L25.6974 19.3789V22.0012C25.6974 22.4211 26.0398 22.7618 26.4619 22.7618H36.8939C38.3831 22.7618 39.5935 21.5576 39.5935 20.0761V3.09015C39.5776 1.60863 38.3592 0.404407 36.878 0.404407H36.886ZM24.2481 18.2935C24.1923 18.3173 24.1525 18.341 24.1047 18.3727C23.4517 18.8164 22.2971 20.1553 19.04 26.5725C18.9524 26.7389 18.8808 26.8736 18.8171 26.9924C18.403 27.753 18.403 27.959 18.61 29.0127C19.3028 32.562 19.2073 33.6553 19.1197 33.9722C18.3074 34.1544 17.2244 34.1227 16.651 33.4335C15.4804 31.9916 14.6443 30.5893 14.1585 29.2662C13.5931 26.7706 14.1983 24.2037 15.8149 22.2072C16.014 21.9616 16.0379 21.621 15.8865 21.3516C15.7352 21.0743 15.4167 20.9317 15.1141 20.9792C11.7217 21.4704 8.27357 21.5972 4.84932 21.3437H4.7458C3.79815 21.3991 2.92218 20.8525 2.56383 19.981C2.26122 19.2363 2.91422 18.135 3.73445 17.4299C3.90964 17.2794 4.0052 17.0576 3.99724 16.8199C3.99724 16.5901 3.87779 16.3762 3.68667 16.2416C2.53994 15.3859 1.90287 14.4986 1.94269 13.7856C2.0064 12.7319 3.08942 11.9713 3.73445 11.6148C4.10076 11.4088 4.22818 10.9493 4.02909 10.5849C3.615 9.84015 3.36017 8.79437 3.73445 8.14472C4.14058 7.45546 4.88914 7.0118 5.7014 7.00388C5.97215 7.00388 6.21106 6.86127 6.34643 6.63152C6.48181 6.40177 6.48977 6.12448 6.37032 5.89472C5.98808 5.16585 5.9403 4.30229 6.24291 3.53381C6.52959 2.80493 7.10295 2.22659 7.82762 1.93346H22.5041C23.6588 2.31374 24.7339 2.89208 25.6815 3.65265V17.7151L24.2481 18.2935ZM38.0566 20.0444C38.0566 20.6861 37.531 21.209 36.886 21.209H27.2184V1.92553H36.886C37.531 1.92553 38.0566 2.44842 38.0566 3.09015V20.0444ZM34.1067 15.4572C32.7689 15.4572 31.6699 16.5347 31.6699 17.8736C31.6699 19.2125 32.753 20.2979 34.1067 20.2979C35.4605 20.2979 36.5435 19.2204 36.5435 17.8736C36.5435 16.5268 35.4525 15.4572 34.1067 15.4572ZM34.1067 18.7688C33.613 18.7688 33.2069 18.3648 33.2069 17.8736C33.2069 17.3824 33.613 16.9863 34.1067 16.9863C34.6005 16.9863 35.0066 17.3903 35.0066 17.8736C35.0066 18.3569 34.5925 18.7688 34.1067 18.7688Z" fill="#6430E8" stroke="#6430E8" stroke-miterlimit="10"/>
</g>
<defs>
<clipPath id="clip0_193_292">
<rect width="40" height="36" fill="white"/>
</clipPath>
</defs>
</svg>
