<svg width="206" height="65" viewBox="0 0 206 65" fill="none" xmlns="http://www.w3.org/2000/svg">
<path d="M1.11383 0.0559218C0.686229 0.200639 0.398952 0.467039 0.185147 0.911059L0.0481959 1.19721L0.0247999 1.88789C-0.00526256 2.67067 -0.00860261 34.8699 0.0181195 34.7944C0.151744 34.4325 0.76641 32.9558 0.986881 32.4757C2.2162 29.7819 3.80629 27.3382 5.73712 25.174C6.21482 24.6378 7.66461 23.2138 8.19576 22.7566C10.1733 21.0628 12.0508 19.8492 14.633 18.5861L15.6953 18.0698L15.692 12.9718C15.6886 10.1663 15.6786 6.29844 15.6652 4.37109L15.6419 0.868303L15.5684 0.6874C15.5283 0.588737 15.4513 0.453887 15.3979 0.388112C15.2509 0.213791 14.9469 0.0657895 14.653 0.0296032C14.506 0.00986777 11.8035 0 7.845 0C1.7051 0 1.27083 0.00329864 1.11383 0.0559218Z" fill="#0088CB"/>
<path d="M58.3007 11.1884C58.0623 11.2251 57.8496 11.342 57.7401 11.4988C57.537 11.7892 57.55 11.2518 57.55 19.3695C57.55 26.6361 57.55 26.7729 57.6144 26.9832C57.6853 27.2236 57.8367 27.4005 58.0493 27.5007C58.1718 27.5574 58.5036 27.5607 64.7192 27.5707C70.4223 27.5774 71.3308 27.5741 71.8078 27.5274C72.5102 27.4606 73.0451 27.3704 73.6121 27.2203C75.4712 26.7297 76.5539 25.8584 76.9856 24.5066C77.1404 24.026 77.1564 23.859 77.1564 22.7208C77.1564 21.7227 77.1532 21.6327 77.0823 21.3556C76.9503 20.8182 76.6764 20.3042 76.3025 19.887C76.0352 19.5932 75.9546 19.3729 76.048 19.1893C76.0705 19.1493 76.1866 19.0057 76.3091 18.8722C76.6764 18.4717 76.9471 17.961 77.0791 17.4269C77.1436 17.1766 77.1532 17.0363 77.1629 16.0917C77.1757 15.2306 77.1693 14.9836 77.1274 14.7299C77.0147 14.0624 76.7247 13.4783 76.2381 12.9474C75.7709 12.4368 75.3004 12.0897 74.6979 11.8093C73.8215 11.402 73.0128 11.2518 71.3727 11.1884C70.4029 11.1517 58.5455 11.1517 58.3007 11.1884ZM72.0011 13.6718C72.5585 13.7586 73.0772 13.9022 73.3866 14.059C73.8054 14.266 74.1405 14.6231 74.2437 14.9669C74.292 15.1238 74.3725 16.7527 74.3403 16.9029C74.2662 17.2333 73.9955 17.5237 73.5476 17.7474C73.0419 18.0011 72.4779 18.1312 71.6145 18.1979C71.3374 18.218 69.085 18.2313 65.8242 18.2313H60.482V15.9115V13.5883L66.0498 13.6017C71.1987 13.6117 71.6434 13.6151 72.0011 13.6718ZM71.6466 20.7014C73.0676 20.8082 73.9117 21.1586 74.1986 21.7628L74.2888 21.9531V22.821V23.6888L74.1824 23.8924C73.9117 24.4098 73.2737 24.8037 72.4039 24.9873C71.6949 25.1375 71.5145 25.1408 65.8146 25.1408H60.4176V22.9044V20.668H65.8082C69.1012 20.668 71.3695 20.6814 71.6466 20.7014Z" fill="white"/>
<path d="M81.8312 11.1864C81.4887 11.2465 81.2269 11.4702 81.1428 11.7773C81.0783 12.001 81.0751 26.7502 81.1396 26.9639C81.1978 27.1676 81.3658 27.3746 81.5501 27.4713C81.7083 27.5581 81.7149 27.5581 82.5194 27.5581C83.2724 27.5581 83.337 27.5548 83.4727 27.488C83.6568 27.398 83.7861 27.2643 83.8734 27.0741C83.9413 26.9273 83.9413 26.8872 83.9509 24.2932C83.9574 22.4002 83.9702 21.6658 83.9961 21.6658C84.0318 21.6658 85.2273 22.1866 86.2355 22.6406C86.5198 22.7708 86.8269 22.9043 86.914 22.9411C87.0046 22.9778 87.2728 23.0947 87.5119 23.2015C87.751 23.3117 88.924 23.8292 90.1131 24.3533C91.3055 24.8774 92.5333 25.4216 92.8435 25.5584C93.1538 25.6986 93.6417 25.9124 93.9261 26.0392C94.2104 26.1661 95.0732 26.5466 95.8423 26.8872L97.2414 27.5047L97.7003 27.5414C98.3078 27.5849 99.0672 27.5849 99.2804 27.5381C99.7295 27.438 99.9363 27.191 99.9751 26.7101C100.007 26.3029 99.8329 25.9391 99.5033 25.7253C99.4388 25.682 99.0154 25.4883 98.563 25.288C98.1106 25.0911 97.4935 24.8207 97.1896 24.687C96.8892 24.5536 96.356 24.3199 96.0102 24.1696C94.7823 23.6322 92.766 22.7508 92.0842 22.4503C91.5575 22.22 90.3166 21.6791 89.8061 21.4588C89.6736 21.402 89.5509 21.342 89.5347 21.3253C89.5152 21.312 90.6495 21.2986 92.0551 21.2986C94.7306 21.2986 95.5061 21.2719 96.2526 21.1617C97.4287 20.9881 98.479 20.6108 99.2254 20.1C99.9557 19.5993 100.379 19.0285 100.621 18.2105L100.712 17.9101V16.2909C100.712 14.7284 100.709 14.6618 100.641 14.4147C100.405 13.5534 99.9654 12.9325 99.2449 12.4349C98.2883 11.7773 97.0119 11.3901 95.2025 11.2131C94.7048 11.1631 82.0994 11.1397 81.8312 11.1864ZM94.8793 13.6202C96.3464 13.7369 97.2253 14.0341 97.6226 14.5549C97.8489 14.852 97.8553 14.9088 97.8456 16.3643L97.836 17.643L97.739 17.8199C97.4935 18.2773 96.886 18.6078 96.0425 18.7414C95.3188 18.8548 94.9924 18.8615 89.4765 18.8615H83.9574V16.2242V13.5868H89.2018C92.4687 13.5868 94.6079 13.6001 94.8793 13.6202Z" fill="white"/>
<path d="M117.206 11.1818C116.82 11.2386 116.556 11.4423 116.463 11.7495C116.393 11.9865 116.386 12.6878 116.453 12.9516C116.489 13.0952 116.536 13.1687 116.67 13.3023C116.763 13.3957 116.9 13.4926 116.973 13.5193C117.086 13.5594 117.643 13.5694 120.582 13.5794L124.061 13.5861L124.067 20.2412L124.077 26.8929L124.154 27.0632C124.247 27.267 124.394 27.4172 124.578 27.5007C124.688 27.5474 124.831 27.5608 125.428 27.5708C126.255 27.5842 126.466 27.5541 126.676 27.3938C126.852 27.2603 126.949 27.0799 126.992 26.8095C127.016 26.6625 127.029 24.4887 127.029 20.0908V13.5861L130.525 13.5794L134.017 13.5694L134.187 13.4926C134.397 13.3957 134.541 13.2522 134.64 13.0351C134.711 12.8848 134.717 12.8181 134.717 12.3673C134.717 11.9164 134.711 11.8497 134.64 11.6994C134.537 11.4723 134.39 11.3287 134.17 11.2386L133.984 11.1651L125.678 11.1618C121.112 11.1584 117.3 11.1685 117.206 11.1818Z" fill="white"/>
<path d="M168.106 11.2053C167.745 11.2956 167.555 11.4695 167.463 11.8072C167.416 11.9911 167.409 12.5697 167.419 18.0641L167.43 24.117L167.507 24.3811C167.785 25.3242 168.463 26.0098 169.671 26.5817C170.349 26.9026 171.476 27.2404 172.414 27.4077C173.331 27.5715 173.717 27.5849 177.124 27.5682C179.128 27.5582 180.421 27.5381 180.635 27.5147C183.523 27.197 185.09 26.2806 185.575 24.6253C185.724 24.1203 185.737 23.7859 185.721 20.8732C185.707 17.8935 185.714 17.9805 185.49 17.4119C184.939 15.9941 183.455 15.1614 180.94 14.8537C180.161 14.7567 179.081 14.7367 174.685 14.7367H170.257V13.3589C170.257 12.1985 170.247 11.951 170.202 11.7905C170.108 11.4594 169.898 11.2755 169.519 11.1952C169.281 11.1451 168.323 11.1518 168.106 11.2053ZM180.347 17.188C180.905 17.2548 181.257 17.3251 181.562 17.4288C182.155 17.626 182.552 17.9137 182.734 18.2715L182.836 18.4654L182.845 21.0906C182.852 22.8864 182.843 23.7692 182.819 23.8896C182.734 24.2809 182.474 24.6354 182.105 24.846C181.776 25.0367 181.085 25.1504 179.917 25.2038C178.962 25.2474 174.838 25.2474 174.134 25.2038C172.857 25.1237 171.831 24.8962 171.083 24.525C170.734 24.3511 170.497 24.1572 170.365 23.9398L170.273 23.7825L170.264 20.4886C170.259 18.6794 170.264 17.1745 170.273 17.1511C170.287 17.1144 171.103 17.1077 175.089 17.1211C179.253 17.1344 179.95 17.1411 180.347 17.188Z" fill="white"/>
<path d="M135.442 15.1218C135.153 15.1735 134.942 15.3221 134.825 15.5611C134.716 15.7873 134.71 16.0294 134.722 20.2383C134.731 24.0594 134.738 24.3921 134.788 24.6149C135.005 25.5613 135.59 26.2751 136.555 26.7726C137.257 27.1344 138.379 27.4154 139.57 27.5284C140.202 27.5898 146.164 27.5866 146.724 27.5284C147.57 27.438 148.182 27.3088 148.924 27.0633C150.444 26.5627 151.321 25.7875 151.638 24.6731C151.704 24.4373 151.704 24.4148 151.718 20.1736C151.726 16.3008 151.72 15.8905 151.676 15.7097C151.606 15.4449 151.463 15.2737 151.226 15.18C151.059 15.1121 150.997 15.1057 150.402 15.1025C149.853 15.1025 149.733 15.1121 149.591 15.1639C149.371 15.2414 149.233 15.3674 149.141 15.5772L149.066 15.7484L149.051 19.9476L149.034 24.1466L148.941 24.321C148.827 24.5342 148.674 24.6731 148.362 24.8379C147.988 25.0381 147.428 25.1705 146.582 25.2642C146.082 25.3159 141.488 25.3417 140.554 25.2964C138.696 25.2061 137.804 24.9056 137.46 24.2597C137.404 24.1498 137.402 23.9981 137.385 19.9637L137.37 15.7807L137.295 15.6095C137.203 15.4028 136.995 15.2058 136.81 15.1509C136.643 15.1025 135.662 15.0798 135.442 15.1218Z" fill="white"/>
<path d="M161.171 15.1196C159.849 15.1938 158.81 15.423 157.886 15.8425C156.748 16.362 156.053 17.0913 155.776 18.0724C155.71 18.3047 155.698 18.45 155.675 19.4761C155.634 21.1412 155.634 26.8242 155.675 26.9629C155.74 27.1921 155.892 27.3696 156.105 27.4663C156.297 27.56 156.308 27.56 157.001 27.5696C157.572 27.5793 157.739 27.5696 157.891 27.5277C158.12 27.4663 158.33 27.2954 158.428 27.0921C158.499 26.9468 158.499 26.921 158.515 22.8161L158.534 18.6855L158.61 18.5016C158.799 18.053 159.25 17.74 159.936 17.5754C160.521 17.4366 160.883 17.4075 162.151 17.3915C163.04 17.3786 163.416 17.3624 163.538 17.3301C163.764 17.2688 163.964 17.1011 164.066 16.888C164.137 16.7331 164.147 16.6718 164.147 16.2651C164.147 15.7198 164.092 15.5359 163.886 15.3423C163.659 15.1325 163.531 15.11 162.524 15.1002C162.039 15.097 161.431 15.1066 161.171 15.1196Z" fill="white"/>
<path d="M194.636 15.118C192.514 15.231 190.919 15.8442 189.897 16.945C189.495 17.3775 189.23 17.839 189.08 18.3683C189.012 18.6169 189.012 18.6589 188.999 21.2347C188.992 23.0713 188.999 23.9267 189.024 24.1041C189.125 24.8046 189.449 25.4244 190.003 25.9828C190.816 26.7993 191.989 27.2835 193.699 27.503C194.021 27.545 194.636 27.558 197.255 27.5676C200.477 27.5837 201.037 27.5708 201.79 27.4611C203.182 27.261 204.359 26.7445 205.069 26.0312C205.351 25.7471 205.464 25.589 205.645 25.2338C205.808 24.9047 205.925 24.5076 205.967 24.1139C206.011 23.72 206.011 19.1011 205.969 18.6524C205.928 18.2425 205.832 17.8552 205.683 17.5065C205.118 16.1896 203.683 15.402 201.42 15.1632C200.99 15.118 200.44 15.1084 198.011 15.1018C196.42 15.0954 194.902 15.105 194.636 15.118ZM200.551 17.4097C201.77 17.4904 202.465 17.7003 202.887 18.1199C203.23 18.462 203.208 18.22 203.198 21.3509L203.189 24.0429L203.101 24.1913C202.799 24.7046 202.053 25.0466 200.793 25.2436C200.458 25.2952 200.16 25.3016 197.577 25.3016C194.539 25.3016 194.472 25.2984 193.623 25.1338C192.671 24.9531 192.067 24.627 191.829 24.1719L191.743 24.0106V21.396V18.7816L191.851 18.5782C192.106 18.107 192.752 17.7519 193.713 17.555C194.079 17.4808 194.553 17.4194 194.909 17.4001C195.368 17.3742 200.127 17.3839 200.551 17.4097Z" fill="white"/>
<path d="M22.367 17.7594C20.6536 17.8958 19.7577 18.0421 18.1653 18.4376C13.967 19.4816 9.92559 21.9119 6.90765 25.2032C4.14801 28.2121 2.23849 31.8126 1.27718 35.8122C1.02214 36.8727 0.783451 38.4386 0.688629 39.682C0.642853 40.2738 0.642853 42.4315 0.688629 43.0233C0.937131 46.2748 1.72513 49.1571 3.17689 52.1062C3.5431 52.8508 3.63138 53.0104 3.66736 52.9738C3.70659 52.934 3.93547 48.6651 4.0728 45.417C4.24936 41.3111 4.43247 37.767 4.51748 36.9558C4.56326 36.4871 4.69404 35.739 4.80849 35.2769C5.51802 32.4176 7.01882 29.768 9.21935 27.4839C10.4945 26.1674 11.9005 25.0569 13.5386 24.0828C15.1736 23.1121 16.7594 22.4305 18.6001 21.9119C19.7577 21.5861 20.6569 21.4099 22.0236 21.2436C22.7691 21.1538 24.3582 21.1206 25.2606 21.1772C26.938 21.2802 28.0432 21.4664 29.6388 21.9153C30.4039 22.1279 30.8355 22.2809 30.901 22.3608C30.9434 22.4106 30.8649 22.6234 30.3287 23.9233C30.2143 24.1958 29.9886 24.7512 29.8219 25.1534C29.3903 26.2106 28.6251 28.0592 28.1477 29.2095C28.004 29.5552 27.8569 29.9109 27.8208 29.9973C27.7423 30.1869 27.726 30.1902 27.1864 30.0905C25.9898 29.8644 25.3915 29.8079 24.1162 29.8113C23.1549 29.8113 22.9326 29.8211 22.465 29.8843C19.6596 30.27 17.4754 31.3372 15.7098 33.189C14.4018 34.5621 13.5224 36.1812 13.0384 38.1195C12.7932 39.1035 12.8095 38.5051 12.6231 52.5151C12.5512 58.0473 12.5218 60.893 12.5316 61.4383L12.5414 62.0168L13.1626 62.3426C15.2945 63.463 17.5441 64.2343 19.8328 64.6333C21.265 64.8826 22.0857 64.9625 23.4459 64.989C28.4322 65.0855 33.2486 63.5793 37.2998 60.6536C37.8393 60.2648 38.5521 59.7029 38.9935 59.3206C39.4905 58.8883 41.2725 57.0598 41.6714 56.5711C43.9536 53.7817 45.6375 50.4238 46.4321 47.0727C46.9487 44.8884 47.0861 43.6682 47.0861 41.2612C47.0861 39.1834 46.9651 38.053 46.5433 36.1313C45.7782 32.6505 44.2153 29.3658 41.9657 26.5132C41.4557 25.8649 41.0697 25.4327 40.285 24.6382C39.2747 23.6107 38.6437 23.0522 37.6693 22.3242C35.6845 20.838 33.4742 19.6712 31.2279 18.9231C30.3156 18.6205 30.0737 18.5507 29.2497 18.3546C28.1152 18.0852 27.4677 17.9722 26.4051 17.8592C25.2868 17.7362 23.2726 17.6864 22.367 17.7594ZM25.3096 33.5348C26.9543 33.7742 28.5271 34.5721 29.7042 35.7589C31.4862 37.5608 32.3036 40.1175 31.895 42.6243C31.7739 43.3723 31.6236 43.8876 31.3195 44.5825C30.901 45.5466 30.4072 46.2581 29.606 47.0461C28.5402 48.0933 27.2879 48.7715 25.8165 49.0973C25.3947 49.1904 25.3816 49.1904 24.247 49.1904C23.1158 49.1904 23.0961 49.1904 22.6775 49.0973C21.9418 48.9345 21.0362 48.5919 20.4575 48.2529C19.058 47.4383 17.9528 46.2415 17.2661 44.802C17.0046 44.26 16.8771 43.9076 16.7267 43.3058C16.5338 42.5445 16.4977 42.2319 16.4977 41.3609C16.4977 40.4898 16.5338 40.1774 16.7267 39.4161C16.8803 38.8042 17.0078 38.4585 17.2825 37.8866C18.1947 35.9817 19.8328 34.5322 21.8242 33.8638C22.1184 33.7642 22.5468 33.6445 22.779 33.5947C23.4623 33.4516 24.5642 33.4284 25.3096 33.5348Z" fill="#0088CB"/>
<path d="M68.3496 37.4795C68.3166 37.5415 67.4228 39.7386 67.2446 40.1996C67.1853 40.3532 66.9313 40.9777 66.684 41.5891C66.4334 42.2005 66.1827 42.825 66.1233 42.9787C66.0178 43.2467 65.1471 45.4079 64.7513 46.3788C64.3489 47.3694 64.0751 48.0463 63.8938 48.504C63.7915 48.7655 62.6174 51.6688 61.2882 54.9612C59.9589 58.2534 58.864 60.9703 58.8575 61.003C58.8409 61.0554 62.0962 61.0586 127.007 61.052L195.178 61.0423L199.933 49.256C202.551 42.7727 204.692 37.4598 204.692 37.4434C204.692 37.4303 174.022 37.4206 136.536 37.4206C71.4465 37.4206 68.3792 37.4238 68.3496 37.4795ZM176.223 42.5046C176.625 42.5994 176.981 42.8446 177.097 43.1028C177.14 43.2009 177.36 43.5181 178.585 45.2346C179.052 45.8917 179.652 46.7287 179.914 47.0981C180.174 47.4676 180.553 47.9973 180.75 48.2751C180.952 48.553 181.193 48.893 181.289 49.0271C181.381 49.1611 181.896 49.8837 182.43 50.6291C182.96 51.3746 183.482 52.1036 183.584 52.2475C183.687 52.3914 183.917 52.715 184.095 52.9668C184.643 53.735 185.101 54.3791 185.513 54.9612L185.91 55.5137V55.8276C185.91 55.9975 185.89 56.197 185.864 56.2689C185.758 56.5926 185.445 56.9065 185.094 57.047C184.838 57.1484 184.323 57.1484 184.102 57.047C183.835 56.9228 183.584 56.6482 183.073 55.9125C182.809 55.5332 182.262 54.7453 181.855 54.1601L181.121 53.0976L175.612 53.0877L170.107 53.0812L169.725 53.6272C168.809 54.9513 168.082 56.004 167.849 56.3506C167.591 56.7332 167.476 56.8411 167.235 56.9261C166.866 57.0568 166.288 56.8934 165.985 56.573C165.79 56.367 165.708 56.1839 165.708 55.9551C165.708 55.7784 165.718 55.7556 166.009 55.3175C166.177 55.0691 166.517 54.5524 166.763 54.1765C167.011 53.7972 167.495 53.0615 167.839 52.5417C172.938 44.8128 173.986 43.2304 174.109 43.0701C174.345 42.7628 174.665 42.5634 175.084 42.4686C175.332 42.413 175.915 42.4327 176.223 42.5046ZM94.0884 42.619C94.9856 42.6779 95.7903 42.802 96.3872 42.9753C98.0132 43.4428 98.9203 44.2047 99.2764 45.398C99.3588 45.6759 99.3754 48.1706 99.2995 48.5498C99.039 49.8314 97.8714 50.7403 95.942 51.1653C94.9955 51.3746 94.316 51.4138 91.5488 51.4138L89.3721 51.417L89.6854 51.5478C90.3977 51.8486 92.0865 52.5581 93.2968 53.0649C93.7157 53.2414 94.3094 53.4899 94.6161 53.6206C94.9261 53.7515 95.5561 54.0163 96.0178 54.2092C98.2935 55.1605 98.2177 55.1246 98.4156 55.3143C98.6234 55.5104 98.6993 55.7164 98.6827 56.0237C98.6728 56.1577 98.6432 56.3147 98.6135 56.3702C98.531 56.5304 98.3629 56.671 98.1649 56.7495C97.9935 56.8181 97.9341 56.8214 97.3206 56.8149C96.2389 56.8018 96.3906 56.8443 94.5303 56.0564C93.6333 55.6771 92.6504 55.2586 92.3404 55.1246C92.0336 54.9906 91.7369 54.8663 91.6808 54.8466C91.628 54.827 91.3806 54.7225 91.1366 54.6178C90.8925 54.5132 90.0086 54.1373 89.1742 53.7842C88.3397 53.4311 87.4064 53.0354 87.0963 52.9047C85.9089 52.3946 85.566 52.2507 85.1668 52.084C84.9393 51.9892 84.6523 51.8649 84.5237 51.8127L84.2928 51.7146L84.2764 53.9574L84.2598 56.2035L84.1709 56.3899C83.9961 56.7594 83.686 56.8573 82.7955 56.8345C82.3535 56.8214 82.2579 56.8084 82.1127 56.7463C81.9049 56.6579 81.7961 56.55 81.6971 56.3343L81.6213 56.1708V49.779C81.6213 46.2644 81.6345 43.3187 81.6477 43.237C81.6971 42.946 81.8984 42.7301 82.2117 42.6321C82.3833 42.5798 93.3001 42.5667 94.0884 42.619ZM104.296 42.6908C104.494 42.7858 104.596 42.9002 104.685 43.1192C104.738 43.2467 104.742 43.6521 104.758 48.1607C104.771 51.7439 104.784 53.0943 104.814 53.1694C105.051 53.83 105.668 54.2745 106.605 54.4674C107.364 54.621 107.489 54.6276 110.629 54.6407C113.653 54.6571 114.257 54.6407 115.015 54.5328C115.698 54.438 116.278 54.2027 116.638 53.8724C116.852 53.6763 116.955 53.5193 117.067 53.2251L117.143 53.0322L117.159 48.1117C117.176 43.2108 117.176 43.1912 117.245 43.0441C117.327 42.8708 117.502 42.7073 117.677 42.6484C117.766 42.6157 117.993 42.6026 118.478 42.6026C119.247 42.6026 119.385 42.6321 119.567 42.8348C119.801 43.0996 119.781 42.6484 119.791 48.079C119.798 51.3189 119.788 53.0681 119.768 53.2643C119.676 54.062 119.375 54.6833 118.828 55.2227C117.937 56.0988 116.529 56.5795 114.257 56.7822C113.587 56.8411 108.224 56.8411 107.495 56.7822C105.78 56.6416 104.745 56.4095 103.818 55.9583C103.007 55.5659 102.505 55.0233 102.288 54.3072C102.1 53.6892 102.11 53.9901 102.096 48.4582C102.083 42.874 102.073 43.1486 102.274 42.8871C102.472 42.6288 102.647 42.5863 103.472 42.5961C104.098 42.6026 104.118 42.6059 104.296 42.6908ZM130.728 42.6418C130.866 42.6811 130.962 42.7334 131.064 42.8282C131.249 43.008 131.308 43.2075 131.308 43.6652C131.308 44.221 131.196 44.4662 130.87 44.6363L130.698 44.7277L129.296 44.7473C127.779 44.7703 127.281 44.8127 126.724 44.9567C126.074 45.1266 125.599 45.4372 125.434 45.8002C125.358 45.9636 125.355 46.0029 125.355 46.6894C125.355 47.3532 125.362 47.4186 125.424 47.5558C125.526 47.7717 125.748 47.9678 126.048 48.1117C126.74 48.4418 127.545 48.5007 131.539 48.504C132.69 48.504 133.769 48.5203 133.98 48.5367C134.854 48.6184 135.978 48.8538 136.568 49.0827C137.746 49.5437 138.451 50.1355 138.781 50.9364C138.98 51.4236 139 51.6034 138.983 52.8425C138.973 53.843 138.964 53.9737 138.897 54.2223C138.663 55.1246 138.218 55.6935 137.433 56.1054C136.79 56.4422 135.925 56.6351 134.392 56.779C133.858 56.8312 123.782 56.8607 123.468 56.8116C123.172 56.7659 122.984 56.6448 122.852 56.416C122.749 56.2362 122.749 56.233 122.749 55.7457C122.749 55.2586 122.749 55.2554 122.852 55.0756C122.974 54.8631 123.162 54.7322 123.422 54.6833C123.538 54.6636 125.335 54.6505 128.551 54.6505C131.615 54.6505 133.653 54.6375 133.897 54.6178C135.239 54.5034 136.014 54.2059 136.262 53.7089C136.335 53.5586 136.337 53.529 136.337 52.7215V51.8879L136.245 51.7015C136.002 51.2045 135.381 50.9299 134.168 50.7729C133.841 50.7305 133.195 50.7142 130.78 50.6945C128.439 50.6749 127.703 50.6585 127.367 50.6193C126.034 50.4624 125.226 50.2596 124.465 49.8968C123.584 49.4783 123.026 48.8637 122.792 48.0594C122.72 47.8109 122.716 47.752 122.716 46.7058C122.72 45.6203 122.72 45.6073 122.809 45.2868C123.224 43.7665 124.478 42.9557 126.796 42.7007C127.535 42.619 128.083 42.5961 129.359 42.5895C130.365 42.5863 130.556 42.5929 130.728 42.6418ZM149.877 42.6714C150.237 42.8381 150.351 43.0865 150.351 43.6815C150.348 44.1262 150.288 44.3256 150.098 44.5088C149.877 44.7212 149.871 44.7245 148.326 44.7473C147.555 44.7604 146.794 44.7866 146.628 44.8062C145.417 44.9533 144.762 45.2509 144.504 45.7642L144.401 45.9636V46.6862C144.401 47.3171 144.412 47.4251 144.465 47.5427C144.702 48.0594 145.355 48.3373 146.579 48.4418C146.806 48.4582 148.373 48.4876 150.059 48.504C153.293 48.5334 153.363 48.5367 154.194 48.7001C155.046 48.8669 155.566 49.0369 156.192 49.3442C156.652 49.5698 156.919 49.7562 157.232 50.0701C157.529 50.3676 157.69 50.5996 157.829 50.9396C158.02 51.417 158.037 51.5544 158.037 52.6888C158.039 53.7874 158.02 53.9868 157.868 54.4707C157.716 54.9481 157.552 55.2194 157.182 55.5855C156.869 55.8962 156.83 55.9256 156.407 56.1315C155.817 56.4194 155.263 56.5631 154.237 56.6906C153.231 56.8181 152.97 56.8246 147.668 56.8246C141.87 56.8246 142.291 56.8443 142.027 56.5795C141.829 56.3866 141.781 56.2166 141.781 55.7457C141.781 55.275 141.829 55.105 142.024 54.9121C142.11 54.8304 142.236 54.7421 142.308 54.716C142.419 54.6767 143.231 54.6668 147.733 54.6505C153.317 54.6276 153.178 54.6341 153.934 54.487C154.622 54.3498 155.135 54.0522 155.306 53.686C155.381 53.529 155.385 53.4931 155.385 52.7346C155.385 51.78 155.371 51.7211 155.075 51.4269C154.757 51.1163 154.382 50.9658 153.568 50.8286C152.934 50.7207 152.212 50.6945 149.811 50.6945C147.044 50.6945 146.447 50.6618 145.27 50.4493C144.088 50.2368 143.122 49.8085 142.545 49.2461C142.304 49.0108 142.179 48.8375 142.017 48.5171C141.796 48.0822 141.757 47.8665 141.74 46.9771C141.721 46.1107 141.757 45.6236 141.865 45.2346C142.192 44.0608 143.093 43.2957 144.596 42.9099C145.029 42.7988 146.031 42.6648 146.744 42.6222C147.008 42.6059 147.786 42.5961 148.475 42.5994C149.672 42.6026 149.735 42.6059 149.877 42.6714ZM163.086 42.6615C163.252 42.7366 163.387 42.8609 163.476 43.0277L163.548 43.1585L163.558 49.5992C163.565 54.232 163.558 56.0891 163.531 56.21C163.478 56.4519 163.334 56.6317 163.11 56.7364C162.924 56.8214 162.908 56.8246 162.245 56.8246H161.569L161.378 56.7299C161.147 56.6187 161.012 56.4487 160.959 56.21C160.933 56.0891 160.926 54.232 160.933 49.5992L160.943 43.1585L161.015 43.0245C161.137 42.7988 161.304 42.6811 161.602 42.6059C161.638 42.5994 161.959 42.5929 162.311 42.5994C162.845 42.6026 162.977 42.6157 163.086 42.6615Z" fill="#0088CB"/>
<path d="M175.696 46.2543C175.399 46.7973 174.65 48.1641 174.026 49.2987C173.407 50.4297 172.842 51.4594 172.775 51.5793C172.706 51.7029 172.648 51.8152 172.648 51.8338C172.648 51.8489 174.267 51.8637 176.248 51.8637H179.843L179.529 51.2909C179.358 50.9801 178.558 49.5084 177.748 48.0255C176.942 46.5427 176.271 45.3143 176.259 45.2994C176.248 45.2806 175.994 45.7112 175.696 46.2543Z" fill="#0088CB"/>
<path d="M83.708 47.5965V49.8943L88.7919 49.881C94.3469 49.8676 94.159 49.8743 94.9301 49.6715C95.5725 49.5052 95.9713 49.2225 96.0766 48.8601C96.1525 48.5975 96.1525 46.6621 96.0766 46.3994C95.9679 46.0337 95.477 45.6912 94.8081 45.5215C94.0207 45.3187 94.1064 45.3221 88.6765 45.3121L83.708 45.2988V47.5965Z" fill="#0088CB"/>
</svg>
