<svg width="121" height="57" viewBox="0 0 121 57" fill="none" xmlns="http://www.w3.org/2000/svg">
<g clip-path="url(#clip0_193_512)">
<path fill-rule="evenodd" clip-rule="evenodd" d="M52.588 5.35645C57.055 5.35645 60.8259 7.10313 63.8429 10.5966L67.3815 7.45248V0.698718H61.8702V1.57205C61.8702 1.86335 61.9284 2.67836 61.9861 2.85311C60.0138 0.931677 55.4886 0 52.6462 0C41.2754 0 31.6455 9.31554 31.6455 20.8434C31.6455 32.4878 41.0435 42.1622 52.6462 42.1622C58.9115 42.1622 64.1906 39.6492 68.4258 34.9332L64.0169 31.4396C60.9418 34.9915 57.1132 36.7961 52.588 36.7961C44.176 36.7961 37.5045 29.2274 37.5045 20.9018C37.5045 12.6927 44.176 5.35645 52.588 5.35645ZM52.5303 24.6862C50.4416 24.6862 48.7594 22.9978 48.7594 20.9018C48.7594 18.8058 50.4416 17.1174 52.5303 17.1174C53.6322 17.1174 54.6184 17.5247 55.3728 18.398L59.3758 14.9049C57.5771 12.8672 55.3146 11.8193 52.588 11.8193C47.6569 11.8193 43.5379 15.8947 43.5379 20.9018C43.5379 25.6759 47.5989 30.2169 52.5303 29.9842V24.6862ZM108.338 0.698718L94.9955 14.672L81.5367 0.698718H69.76V6.05516H73.6468V29.6934H79.5064V12.6343C79.5064 10.8292 79.39 8.67515 79.1583 6.22978C80.7243 8.15121 82.1166 9.72329 83.3927 11.0622L94.9955 23.1142L106.541 11.0622C107.875 9.72329 109.267 8.09287 110.775 6.22978C110.543 8.67515 110.428 10.8292 110.428 12.6343V29.6934H116.287V6.05516H120.173V0.698718H108.338ZM120.289 36.0974V41.4539H98.3605V28.1792L104.219 21.6584V36.0974H120.289ZM69.6437 36.0974V41.4539H91.5729V28.1792L85.7131 21.6584V36.0974H69.6437Z" fill="white"/>
<path fill-rule="evenodd" clip-rule="evenodd" d="M23.3955 1.31494V43.629H25.0728V1.31494H23.3955Z" fill="white"/>
<path fill-rule="evenodd" clip-rule="evenodd" d="M17.2432 1.31494V43.629H19.7592V1.31494H17.2432Z" fill="white"/>
<path fill-rule="evenodd" clip-rule="evenodd" d="M9.98242 1.31494V43.629H13.3372V1.31494H9.98242Z" fill="white"/>
<path fill-rule="evenodd" clip-rule="evenodd" d="M0.823242 1.31494V43.629H5.85546V1.31494H0.823242Z" fill="white"/>
<path d="M6.61802 51.0418V52.3371L8.19843 52.0859V51.4118C8.19843 51.1211 8.19843 50.4866 7.82966 50.1298C7.50041 49.8125 6.94727 49.7993 6.51266 49.7993H2.45628C2.02166 49.7993 1.46852 49.8125 1.13927 50.1298C0.770508 50.4866 0.770508 51.1211 0.770508 51.4118V55.007C0.770508 55.2978 0.770508 55.9322 1.13927 56.2891C1.46852 56.6063 2.02166 56.6195 2.45628 56.6195H6.51266C6.94727 56.6195 7.50041 56.6063 7.82966 56.2891C8.19843 55.9322 8.19843 55.2978 8.19843 55.007V54.2271L6.61802 53.8967V55.3771H2.35092V51.0418H6.61802ZM14.2801 52.0198H16.98V51.0285H10.2369V52.0198H12.9368V56.6195H14.2801V52.0198ZM19.9448 51.0285L16.6391 56.6195H17.9956L18.6937 55.3903H22.3813L23.0793 56.6195H24.607L21.2486 51.0285H19.9448ZM19.2205 54.399L20.5375 52.0727L21.8413 54.399H19.2205ZM28.0112 51.0285L24.9031 56.6195H26.3123L28.6039 52.1784L30.8955 56.6195H32.4759L29.3151 51.0285H28.0112ZM35.1979 51.0285H33.8545V56.6195H38.4904C39.0435 56.6195 39.3728 56.5402 39.5967 56.4477C40.1367 56.2097 40.2157 55.8264 40.2157 55.5224V54.1214C40.2157 53.7513 40.0708 53.5266 39.9259 53.3812C39.5572 53.0111 39.0699 53.0508 38.6484 53.0508H35.1979V51.0285ZM38.3455 53.976C38.4772 53.976 38.688 53.976 38.8197 54.095C38.9382 54.2007 38.9514 54.3329 38.9514 54.4386V55.1524C38.9514 55.2713 38.9382 55.4035 38.8197 55.5092C38.7011 55.615 38.4904 55.6282 38.306 55.6282H35.1979V53.976H38.3455ZM41.5572 53.7778H44.6258V52.4164H41.5572V53.7778ZM54.6229 49.7993L51.4884 53.9231L48.2881 49.7993H46.9974V56.6195H48.2881V52.4031L48.2486 51.6762C48.3276 51.8744 48.4198 52.0595 48.6569 52.3767L51.2119 55.8H51.5279L54.0829 52.3899C54.1488 52.3106 54.3463 52.0066 54.478 51.6762C54.4254 52.0727 54.4254 52.2974 54.4254 52.4031V56.6195H55.8741V49.7993H54.6229ZM61.1656 51.0285L57.8599 56.6195H59.2164L59.9144 55.3903H63.602L64.3 56.6195H65.8278L62.4694 51.0285H61.1656ZM60.4412 54.399L61.7582 52.0727L63.0621 54.399H60.4412ZM68.5604 51.0285H67.217V56.6195H68.5604V54.095L72.0636 56.6195H74.2103L69.9301 53.6191L73.7757 51.0285H71.8134L68.5604 53.2887V51.0285ZM81.6141 54.6501L80.2707 54.3725V55.5621H76.5699V52.0859H80.2707V53.1169L81.6141 52.9186V52.3503C81.6141 51.9934 81.6009 51.5572 81.298 51.2929C81.1268 51.1343 80.7975 51.0285 80.1522 51.0285H76.6753C76.109 51.0285 75.7534 51.1078 75.5427 51.2929C75.2398 51.5572 75.2266 51.9934 75.2266 52.3503V55.2977C75.2266 55.6414 75.2529 56.0776 75.5295 56.3419C75.7797 56.5666 76.2143 56.6195 76.6753 56.6195H80.1522C80.7975 56.6195 81.1268 56.5137 81.298 56.3551C81.6009 56.0908 81.6141 55.6546 81.6141 55.2977V54.6501ZM83.8341 51.0285V56.6195H84.9141L89.7211 52.5485V56.6195H91.0645V51.0285H89.9846L85.1775 55.0995V51.0285H83.8341ZM94.65 51.0285H93.5569V56.6195H94.65V52.8658L97.1655 55.9454H97.4289L99.9181 52.7732V56.6195H101.182V51.0285H100.089L97.3763 54.3461L94.65 51.0285ZM104.852 54.8616L103.509 55.0863V55.3903C103.509 55.919 103.667 56.2097 103.825 56.3551C103.956 56.4741 104.233 56.6195 104.97 56.6195H108.724C109.185 56.6195 109.619 56.5666 109.87 56.3419C110.159 56.0776 110.173 55.6414 110.173 55.2977V51.0285H108.829V53.3416H104.852V51.0285H103.509V53.1301C103.509 53.5398 103.627 53.8967 103.825 54.0685C103.956 54.1875 104.233 54.3329 104.97 54.3329H108.829V55.5621H104.852V54.8616ZM113.749 51.0285H112.656V56.6195H113.749V52.8658L116.265 55.9454H116.528L119.017 52.7732V56.6195H120.281V51.0285H119.188L116.475 54.3461L113.749 51.0285Z" fill="white"/>
</g>
<defs>
<clipPath id="clip0_193_512">
<rect width="121" height="57" fill="white"/>
</clipPath>
</defs>
</svg>
