<svg width="145" height="44" viewBox="0 0 145 44" fill="none" xmlns="http://www.w3.org/2000/svg">
<g clip-path="url(#clip0_193_842)">
<path d="M16 0H7.93035L0 44H6.30846L12.1791 5.37103H16V0Z" fill="white"/>
<path d="M16 0H24.0697L32 44H25.6915L19.8209 5.37103H16V0Z" fill="white"/>
<path d="M23.2173 29H16V34H25V29H23.2173Z" fill="white"/>
<path d="M10 34L11.3909 29H16V34H10Z" fill="white"/>
<path d="M67 23H64.3293V12.2965H59.6809V23H57V10H67V23Z" fill="white"/>
<path d="M79 14.0568C79 15.4529 78.5584 16.5253 77.6857 17.2638C76.8131 18.0023 75.5619 18.3767 73.9533 18.3767H72.7652V23H70V10H74.1636C75.7407 10 76.9498 10.344 77.7699 11.0218C78.59 11.6996 79 12.7113 79 14.0568ZM72.7652 16.1206H73.6799C74.5315 16.1206 75.1624 15.9486 75.5829 15.6148C76.0035 15.2809 76.2138 14.7953 76.2138 14.1479C76.2138 13.5004 76.035 13.0249 75.6881 12.7113C75.3306 12.4078 74.7839 12.2459 74.0269 12.2459H72.7652V16.1004V16.1206Z" fill="white"/>
<path d="M92 16.5C92 18.5946 91.4814 20.1974 90.4441 21.3185C89.4068 22.4395 87.9322 23 86 23C84.0678 23 82.5831 22.4395 81.5559 21.3185C80.5186 20.1974 80 18.5847 80 16.4803C80 14.3759 80.5186 12.7731 81.5559 11.6619C82.5932 10.5507 84.078 10 86.0203 10C87.9627 10 89.4373 10.5605 90.4644 11.6815C91.4915 12.8026 92 14.4054 92 16.5ZM82.8068 16.5C82.8068 17.916 83.0712 18.9781 83.6102 19.6861C84.1491 20.4039 84.9424 20.7579 86.0102 20.7579C88.1458 20.7579 89.2034 19.3419 89.2034 16.5C89.2034 13.6581 88.1458 12.2322 86.0203 12.2322C84.9525 12.2322 84.1593 12.5862 83.6102 13.3041C83.0712 14.0219 82.7966 15.084 82.7966 16.5H82.8068Z" fill="white"/>
<path d="M99.3478 23V21.0529H99.163C98.1421 21.0529 97.2476 20.8661 96.4794 20.4826C95.7113 20.0991 95.1085 19.5386 94.6612 18.7814C94.2139 18.0242 94 17.1884 94 16.264C94 15.3396 94.1945 14.5628 94.5931 13.8449C94.982 13.1271 95.5557 12.5666 96.2947 12.1634C97.0337 11.7602 97.9087 11.5537 98.92 11.5537H99.3575V10H101.652V11.5537H102.09C103.091 11.5537 103.957 11.7602 104.705 12.1634C105.444 12.5666 106.018 13.1271 106.407 13.8449C106.806 14.5628 107 15.3691 107 16.264C107 17.1588 106.776 18.0242 106.339 18.7814C105.901 19.5386 105.289 20.0991 104.521 20.4826C103.752 20.8563 102.858 21.0529 101.837 21.0529H101.652V23H99.3575H99.3478ZM99.3478 13.6581H99.0075C98.2004 13.6581 97.5587 13.8941 97.092 14.3661C96.6253 14.8381 96.3919 15.4675 96.3919 16.2542C96.3919 17.0802 96.635 17.7489 97.1309 18.2405C97.6268 18.7322 98.3269 18.9879 99.2214 18.9879H99.3381V13.6581H99.3478ZM101.642 18.9879H101.759C102.644 18.9879 103.334 18.7421 103.84 18.2602C104.346 17.7685 104.598 17.1097 104.598 16.2542C104.598 15.4675 104.365 14.8381 103.898 14.3661C103.432 13.8941 102.79 13.6483 101.983 13.6483H101.642V18.9781V18.9879Z" fill="white"/>
<path d="M109.01 10H111.334V16.2825L111.304 17.9619L111.226 19.8739H111.275L116.908 10H120V23H117.696V16.758C117.696 15.9183 117.745 14.684 117.843 13.0451H117.774L112.112 23H109V10H109.01Z" fill="white"/>
<path d="M132.98 22.82H130.414V12.2565H127.446L127.319 13.4346C126.976 16.42 126.672 18.5267 126.408 19.7348C126.143 20.9429 125.761 21.7916 125.262 22.2808C124.762 22.7701 124.077 23.0097 123.224 22.9997C122.764 22.9997 122.353 22.9398 122 22.81V20.5835C122.323 20.7033 122.627 20.7632 122.901 20.7632C123.175 20.7632 123.43 20.6234 123.597 20.3339C123.763 20.0543 123.93 19.5251 124.086 18.7563C124.243 17.9875 124.439 16.7295 124.694 14.9722C124.948 13.225 125.164 11.5676 125.34 10H133V22.83L132.98 22.82Z" fill="white"/>
<path d="M145 18.9331C145 21.6444 143.237 23 139.722 23H136V10H138.711V14.9875H139.773C141.443 14.9875 142.732 15.3315 143.639 16.0195C144.546 16.7074 145 17.6786 145 18.9331ZM138.711 20.7339H139.619C140.536 20.7339 141.206 20.5821 141.629 20.2887C142.052 19.9953 142.268 19.5401 142.268 18.9331C142.268 18.3261 142.052 17.9012 141.619 17.6381C141.186 17.3751 140.443 17.2436 139.402 17.2436H138.711V20.7339Z" fill="white"/>
<path d="M64.1729 44L63.2707 40.9163H58.7393L57.8371 44H55L59.381 31H62.599L67 44H64.1629H64.1729ZM62.6391 38.6186C61.807 35.8271 61.3358 34.245 61.2356 33.8822C61.1353 33.5194 61.0551 33.2271 61.015 33.0155C60.8246 33.7713 60.2932 35.6357 59.411 38.6186H62.6491H62.6391Z" fill="white"/>
<path d="M77 35.0568C77 36.4529 76.5584 37.5253 75.6857 38.2638C74.8131 39.0023 73.5619 39.3767 71.9533 39.3767H70.7652V44H68V31H72.1636C73.7407 31 74.9498 31.344 75.7699 32.0218C76.59 32.6996 77 33.7113 77 35.0568ZM70.7652 37.1206H71.6799C72.5315 37.1206 73.1624 36.9486 73.5829 36.6148C74.0035 36.2809 74.2138 35.7953 74.2138 35.1479C74.2138 34.5004 74.035 34.0249 73.6881 33.7113C73.3306 33.4078 72.7839 33.2459 72.0269 33.2459H70.7652V37.1004V37.1206Z" fill="white"/>
<path d="M84.1509 44L81.2272 33.8023H81.1487C81.2566 35.8763 81.3057 37.2623 81.3057 37.9502V44H79V31H82.5125L85.3872 40.9448H85.4362L88.4875 31H92V44H89.5962V37.849C89.5962 37.5556 89.5962 37.2218 89.606 36.8475C89.606 36.463 89.6551 35.4615 89.714 33.8226H89.6355L86.4958 44H84.1313H84.1509Z" fill="white"/>
<path d="M103.173 44L102.271 40.9163H97.7393L96.8371 44H94L98.381 31H101.599L106 44H103.163H103.173ZM101.639 38.6186C100.807 35.8271 100.336 34.245 100.236 33.8822C100.135 33.5194 100.055 33.2271 100.015 33.0155C99.8246 33.7713 99.2932 35.6357 98.411 38.6186H101.649H101.639Z" fill="white"/>
</g>
<defs>
<clipPath id="clip0_193_842">
<rect width="145" height="44" fill="white"/>
</clipPath>
</defs>
</svg>
