<svg width="142" height="55" viewBox="0 0 142 55" fill="none" xmlns="http://www.w3.org/2000/svg">
<g clip-path="url(#clip0_193_713)">
<path d="M22.2533 19.6993C29.249 10.1789 48.4294 3.34648 71.0074 3.34648C93.5853 3.34648 112.526 10.0937 119.63 19.5211H139.004C130.17 8.22676 103.075 0 71.0074 0C38.9396 0 11.5589 8.31197 2.87207 19.6993H22.2533Z" fill="white"/>
<path d="M120.874 21.4111C121.801 23.0611 122.372 24.7731 122.542 26.5393H141.992C141.838 24.7809 141.259 23.0689 140.286 21.4111H120.866H120.874Z" fill="white"/>
<path d="M142 28.4219H122.565C122.442 30.312 121.87 32.1479 120.874 33.9141H140.101C141.19 32.1479 141.846 30.312 142 28.4219Z" fill="white"/>
<path d="M119.631 35.8047C112.527 45.2322 93.4392 51.9793 71.008 51.9793C48.5767 51.9793 29.7206 45.3174 22.5087 35.9829H3.4209C12.6559 47.0216 39.4267 55.0005 71.008 55.0005C102.589 55.0005 129.653 46.9286 138.749 35.8047H119.631Z" fill="white"/>
<path d="M19.4588 28.6074H0.03125C0.22429 30.4898 0.90379 32.3257 2.03114 34.0997H21.2502C20.2309 32.3412 19.6132 30.5053 19.4588 28.6074Z" fill="white"/>
<path d="M0 26.718H19.4584C19.6051 24.9518 20.1302 23.2398 21.0336 21.5898H1.62153C0.6795 23.2476 0.123545 24.9596 0 26.718Z" fill="white"/>
<path d="M34.8398 42.3345L69.78 9.85352H95.4775C98.6819 9.85352 101.825 11.1084 103.971 13.4944C105.585 15.2915 106.875 17.8944 106.728 21.5894C106.597 24.9437 105.315 27.4303 103.724 29.2352C101.246 32.0472 97.5932 33.5345 93.8559 33.5345H89.7017L95.1068 42.3345H79.9416L70.1121 25.2303L92.2267 25.0211C93.5394 25.0366 94.6049 22.8908 94.6049 21.6669C94.6049 20.1176 93.771 18.1345 91.8715 18.119L75.7952 18.0493L50.1749 42.3422H34.8398V42.3345Z" fill="white"/>
<path d="M73.7718 36.8967L69.0771 29.1348L61.1084 36.8967H73.7718Z" fill="white"/>
<path d="M74.6983 38.415H59.5485L54.877 42.97H77.4549L74.6983 38.415Z" fill="white"/>
</g>
<defs>
<clipPath id="clip0_193_713">
<rect width="142" height="55" fill="white"/>
</clipPath>
</defs>
</svg>
