<svg width="63" height="70" viewBox="0 0 63 70" fill="none" xmlns="http://www.w3.org/2000/svg">
<g clip-path="url(#clip0_193_778)">
<path d="M5.60704 -6.44159e-05H57.1876C57.1876 -6.44159e-05 63.1362 -0.311124 62.9997 7.05063C62.886 13.1797 62.9997 58.3986 62.9997 58.3986C62.9997 58.3986 62.9997 64.0668 57.3355 64.1359H50.7728V69.9999L31.8466 60.6105L50.6477 51.0944V57.4769H55.4702C55.7887 57.4769 56.0503 57.2119 56.0503 56.8893V7.90316C56.0503 7.58058 55.7887 7.3156 55.4702 7.3156H7.85907C7.5406 7.3156 7.279 7.58058 7.279 7.90316V56.3824C7.279 56.705 7.5406 56.97 7.85907 56.97H12.4314V50.7142L30.4476 60.3571L12.5451 69.9999V63.4792H6.14161C6.14161 63.4792 -0.00029218 63.7557 -0.00029218 57.6728C-0.00029218 53.099 -0.00029218 5.91007 -0.00029218 5.91007C-0.00029218 5.91007 -0.341509 -6.44159e-05 5.60704 -6.44159e-05Z" fill="white"/>
<path d="M12.8756 44.4587V12.2813C12.8756 12.0048 13.1031 11.7744 13.3761 11.7744H22.2363C22.4411 11.7744 22.6231 11.9011 22.7027 12.097L31.3923 34.5394C31.5629 34.9657 32.1544 34.9657 32.325 34.5394L41.4241 12.0855C41.5037 11.8896 41.6857 11.7744 41.8904 11.7744H50.3185C50.5915 11.7744 50.8189 12.0048 50.8189 12.2813V45.0463C50.8189 45.3228 50.5915 45.5532 50.3185 45.5532H45.2571C44.9841 45.5532 44.7566 45.3228 44.7566 45.0463L44.9045 20.4495C44.9045 19.885 44.1311 19.7352 43.9377 20.2652L34.8272 45.2191C34.759 45.415 34.5656 45.5532 34.3609 45.5532H29.1744C28.9583 45.5532 28.7763 45.415 28.6967 45.2076L20.1663 20.2882C19.9843 19.7468 19.1881 19.885 19.1881 20.4495L19.1085 44.4472C19.1085 45.0463 18.6194 45.5417 18.028 45.5417H13.9448C13.342 45.5417 12.8643 45.0463 12.8643 44.4472L12.8756 44.4587Z" fill="white"/>
</g>
<defs>
<clipPath id="clip0_193_778">
<rect width="63" height="70" fill="white"/>
</clipPath>
</defs>
</svg>
