<svg width="95" height="70" viewBox="0 0 95 70" fill="none" xmlns="http://www.w3.org/2000/svg">
<g clip-path="url(#clip0_193_579)">
<path d="M32.3442 0H5.6263H4.44477H0V49.7H5.6263V5.6H32.3442V0Z" fill="white"/>
<path d="M70.3426 59.5142V64.4002V65.5762V70.0002H20.4092V64.4002H64.7163V59.5142H70.3426Z" fill="white"/>
<path d="M0 59.5142V64.4002V65.5762V70.0002H10.5423V64.4002H5.6263V59.5142H0Z" fill="white"/>
<path d="M70.3431 10.486V5.6V4.424V0H59.8008V5.6H64.7168V10.486H70.3431Z" fill="white"/>
<path d="M23.1033 29.9672H22.1468L17.1535 24.8712V29.9672H16.4502V19.9712H17.1535V24.8082L22.0062 19.9712H22.9345L18.0537 24.8082L23.1033 29.9602V29.9672Z" fill="white"/>
<path d="M30.4947 26.2434C30.4947 27.4544 30.1993 28.3994 29.6015 29.0854C29.0108 29.7644 28.1879 30.1074 27.14 30.1074C26.4789 30.1074 25.9022 29.9534 25.4029 29.6384C24.9036 29.3234 24.5168 28.8754 24.2495 28.2874C23.9823 27.6994 23.8486 27.0204 23.8486 26.2504C23.8486 25.0394 24.144 24.0944 24.7418 23.4154C25.3326 22.7364 26.1484 22.4004 27.1822 22.4004C28.216 22.4004 29.0248 22.7434 29.6086 23.4294C30.1923 24.1154 30.4877 25.0534 30.4877 26.2504L30.4947 26.2434ZM24.573 26.2434C24.573 27.2654 24.7981 28.0634 25.2552 28.6304C25.7123 29.1974 26.3523 29.4914 27.1752 29.4914C27.998 29.4914 28.645 29.2044 29.0952 28.6304C29.5453 28.0564 29.7773 27.2654 29.7773 26.2434C29.7773 25.2214 29.5453 24.4234 29.0881 23.8564C28.631 23.2894 27.984 23.0094 27.1611 23.0094C26.3383 23.0094 25.6983 23.2894 25.2482 23.8564C24.7981 24.4164 24.573 25.2144 24.573 26.2434Z" fill="white"/>
<path d="M35.7128 30.1072C34.5595 30.1072 33.7155 29.6802 33.188 28.8192H33.1388L33.1599 29.3932C33.181 29.7292 33.188 30.1002 33.188 30.4992V33.3272H32.5059V22.5332H33.0896L33.2232 23.5902H33.2654C33.7788 22.7852 34.6017 22.3862 35.7339 22.3862C36.7467 22.3862 37.5203 22.7152 38.0478 23.3732C38.5752 24.0312 38.8425 24.9902 38.8425 26.2502C38.8425 27.5102 38.5612 28.4202 38.0056 29.0922C37.45 29.7642 36.6834 30.1002 35.7199 30.1002L35.7128 30.1072ZM35.6988 29.5052C36.4654 29.5052 37.0632 29.2252 37.4851 28.6582C37.9071 28.0912 38.1181 27.3002 38.1181 26.2852C38.1181 24.1012 37.3234 23.0092 35.7269 23.0092C34.8548 23.0092 34.2078 23.2472 33.7999 23.7232C33.392 24.1992 33.188 24.9762 33.188 26.0542V26.2712C33.188 27.4332 33.385 28.2662 33.7788 28.7562C34.1726 29.2462 34.8126 29.4982 35.6988 29.4982V29.5052Z" fill="white"/>
<path d="M41.5298 29.9672H40.8477V22.5332H46.8326V29.9672H46.1504V23.1772H41.5298V29.9672Z" fill="white"/>
<path d="M55.483 26.2434C55.483 27.4544 55.1876 28.3994 54.5898 29.0854C53.999 29.7644 53.1762 30.1074 52.1283 30.1074C51.4672 30.1074 50.8905 29.9534 50.3912 29.6384C49.8918 29.3234 49.505 28.8754 49.2378 28.2874C48.9705 27.6994 48.8369 27.0204 48.8369 26.2504C48.8369 25.0394 49.1323 24.0944 49.7301 23.4154C50.3208 22.7364 51.1367 22.4004 52.1705 22.4004C53.2043 22.4004 54.0131 22.7434 54.5968 23.4294C55.1806 24.1154 55.4759 25.0534 55.4759 26.2504L55.483 26.2434ZM49.5613 26.2434C49.5613 27.2654 49.7864 28.0634 50.2435 28.6304C50.7006 29.1974 51.3406 29.4914 52.1635 29.4914C52.9863 29.4914 53.6333 29.2044 54.0834 28.6304C54.5335 28.0564 54.7656 27.2654 54.7656 26.2434C54.7656 25.2214 54.5335 24.4234 54.0764 23.8564C53.6193 23.2894 52.9722 23.0094 52.1494 23.0094C51.3265 23.0094 50.6866 23.2894 50.2365 23.8564C49.7863 24.4164 49.5613 25.2144 49.5613 26.2434Z" fill="white"/>
<path d="M60.7011 30.1072C59.5477 30.1072 58.7038 29.6802 58.1763 28.8192H58.1271L58.1482 29.3932C58.1693 29.7292 58.1763 30.1002 58.1763 30.4992V33.3272H57.4941V22.5332H58.0779L58.2115 23.5902H58.2537C58.7671 22.7852 59.5899 22.3862 60.7222 22.3862C61.735 22.3862 62.5086 22.7152 63.036 23.3732C63.5635 24.0312 63.8308 24.9902 63.8308 26.2502C63.8308 27.5102 63.5494 28.4202 62.9938 29.0922C62.4382 29.7642 61.6717 30.1002 60.7082 30.1002L60.7011 30.1072ZM60.6871 29.5052C61.4536 29.5052 62.0514 29.2252 62.4734 28.6582C62.8954 28.0912 63.1064 27.3002 63.1064 26.2852C63.1064 24.1012 62.3117 23.0092 60.7152 23.0092C59.8431 23.0092 59.1961 23.2472 58.7882 23.7232C58.3803 24.1992 58.1763 24.9762 58.1763 26.0542V26.2712C58.1763 27.4332 58.3732 28.2662 58.7671 28.7562C59.1609 29.2462 59.8009 29.4982 60.6871 29.4982V29.5052Z" fill="white"/>
<path d="M70.385 29.9674L70.2092 28.7914H70.1529C69.7731 29.2674 69.3863 29.6104 68.9925 29.8064C68.5916 30.0024 68.1204 30.1004 67.5789 30.1004C66.8404 30.1004 66.2707 29.9114 65.8628 29.5404C65.4549 29.1694 65.251 28.6514 65.251 27.9864C65.251 27.2584 65.5534 26.6984 66.1653 26.2994C66.7771 25.9004 67.6562 25.6834 68.8096 25.6624L70.2373 25.6204V25.1304C70.2373 24.4234 70.0896 23.8914 69.8012 23.5274C69.5129 23.1704 69.0417 22.9884 68.4017 22.9884C67.7055 22.9884 66.9881 23.1774 66.2426 23.5624L65.9894 22.9744C66.8123 22.5894 67.6281 22.4004 68.4298 22.4004C69.2316 22.4004 69.8716 22.6104 70.2795 23.0374C70.6874 23.4644 70.8913 24.1224 70.8913 25.0184V29.9604H70.385V29.9674ZM67.6211 29.4914C68.4228 29.4914 69.0558 29.2674 69.5129 28.8124C69.9771 28.3574 70.2092 27.7274 70.2092 26.9224V26.1944L68.894 26.2504C67.8391 26.2994 67.0866 26.4604 66.6365 26.7404C66.1863 27.0134 65.9613 27.4474 65.9613 28.0284C65.9613 28.4904 66.109 28.8544 66.3903 29.1134C66.6787 29.3724 67.0866 29.4984 67.607 29.4984L67.6211 29.4914Z" fill="white"/>
<path d="M80.0981 32.4872H79.4159V29.9672H73.248V22.5332H73.9302V29.3232H78.4102V22.5332H79.0853V29.3232H80.091V32.4872H80.0981Z" fill="white"/>
<path d="M82.2712 22.54V27.916L82.229 29.316L86.6809 22.54H87.5881V29.974H86.934V24.633L86.9622 23.198L82.5104 29.974H81.6172V22.54H82.2642H82.2712Z" fill="white"/>
<path d="M89.9295 29.967H89.0645L91.329 26.761C90.6398 26.635 90.1405 26.397 89.8381 26.047C89.5286 25.704 89.3809 25.256 89.3809 24.717C89.3809 24.045 89.613 23.513 90.0702 23.121C90.5273 22.729 91.1462 22.54 91.9198 22.54H95.0143V29.974H94.3391V26.852H92.0464L89.9436 29.974L89.9295 29.967ZM90.0983 24.689C90.0983 25.2 90.2671 25.578 90.5976 25.83C90.9282 26.082 91.4345 26.201 92.1097 26.201H94.3321V23.177H91.8987C91.329 23.177 90.886 23.303 90.5695 23.562C90.253 23.821 90.0983 24.192 90.0983 24.689Z" fill="white"/>
<path d="M27.2314 43.687C27.2314 45.675 26.7321 47.201 25.7264 48.265C24.7207 49.329 23.2789 49.868 21.4082 49.868C19.5374 49.868 18.0957 49.336 17.09 48.265C16.0843 47.194 15.585 45.668 15.585 43.673C15.585 41.678 16.0913 40.152 17.097 39.102C18.1027 38.052 19.5515 37.52 21.4293 37.52C23.3071 37.52 24.7488 38.052 25.7475 39.109C26.7461 40.173 27.2384 41.699 27.2384 43.687H27.2314ZM18.2996 43.687C18.2996 45.024 18.5599 46.039 19.0803 46.711C19.6007 47.383 20.3743 47.726 21.4082 47.726C23.4758 47.726 24.5167 46.375 24.5167 43.68C24.5167 40.985 23.4899 39.627 21.4293 39.627C20.3954 39.627 19.6148 39.97 19.0944 40.649C18.5739 41.328 18.3067 42.343 18.3067 43.68L18.2996 43.687Z" fill="white"/>
<path d="M39.6652 49.7H36.7184L32.2807 43.624V49.7H29.6855V37.709H32.2807V43.519L36.6692 37.709H39.4331L34.9672 43.47L39.6652 49.707V49.7Z" fill="white"/>
<path d="M52.2333 43.687C52.2333 45.675 51.734 47.201 50.7283 48.265C49.7226 49.329 48.2809 49.868 46.4101 49.868C44.5394 49.868 43.0976 49.336 42.0919 48.265C41.0862 47.194 40.5869 45.668 40.5869 43.673C40.5869 41.678 41.0933 40.152 42.099 39.102C43.1047 38.052 44.5535 37.52 46.4312 37.52C48.309 37.52 49.7507 38.052 50.7494 39.109C51.7481 40.173 52.2404 41.699 52.2404 43.687H52.2333ZM43.3016 43.687C43.3016 45.024 43.5618 46.039 44.0823 46.711C44.6027 47.383 45.3763 47.726 46.4101 47.726C48.4778 47.726 49.5187 46.375 49.5187 43.68C49.5187 40.985 48.4919 39.627 46.4312 39.627C45.3974 39.627 44.6167 39.97 44.0963 40.649C43.5759 41.328 43.3086 42.343 43.3086 43.68L43.3016 43.687Z" fill="white"/>
<path d="M64.7095 49.7H62.1214V44.527H57.2758V49.7H54.6807V37.709H57.2758V42.406H62.1214V37.709H64.7095V49.7Z" fill="white"/>
</g>
<defs>
<clipPath id="clip0_193_579">
<rect width="95" height="70" fill="white"/>
</clipPath>
</defs>
</svg>
