<svg width="194" height="48" viewBox="0 0 194 48" fill="none" xmlns="http://www.w3.org/2000/svg">
<g clip-path="url(#clip0_193_652)">
<path fill-rule="evenodd" clip-rule="evenodd" d="M49.9248 23.9962C49.9248 37.249 38.7488 47.9924 24.9624 47.9924C11.1761 47.9924 0 37.249 0 23.9962C0 10.7435 11.1761 0 24.9624 0C38.7488 0 49.9248 10.7435 49.9248 23.9962ZM48.6723 23.9659C48.6723 35.618 38.8673 45.0638 26.7722 45.0638C14.6771 45.0638 4.87207 35.618 4.87207 23.9659C4.87207 12.3139 14.6771 2.86804 26.7722 2.86804C38.8673 2.86804 48.6723 12.3139 48.6723 23.9659Z" fill="white"/>
<path d="M76.9831 37.1558L74.8333 29.7776H66.6053L64.5019 37.1558H60.79L68.8402 10.4883H72.6681L80.7182 37.1558H76.9754H76.9831ZM73.9054 26.0393L71.887 18.8124C71.7401 18.3281 71.539 17.5638 71.2761 16.5271C71.0132 15.4903 70.8353 14.726 70.7348 14.2417C70.4719 15.7325 70.0852 17.3595 69.5748 19.1302L67.6338 26.0544H73.9054V26.0393Z" fill="white"/>
<path d="M96.1687 22.2103C96.1687 24.5864 95.0938 26.0167 92.944 26.5161V26.6599C94.1504 26.8415 95.0706 27.3334 95.7047 28.128C96.3389 28.9226 96.6636 29.9593 96.6636 31.2382C96.6636 33.1376 96.0991 34.6057 94.9778 35.6273C93.8565 36.6489 92.2248 37.1635 90.0828 37.1635H82.6436V17.0645H90.0596C94.1349 17.0645 96.1765 18.7747 96.1765 22.2027L96.1687 22.2103ZM92.859 22.5735C92.859 21.7714 92.6192 21.1963 92.1321 20.8406C91.6449 20.4849 90.9257 20.3033 89.9668 20.3033H85.9533V25.1389H89.4796C90.5854 25.1389 91.4283 24.9572 92.0006 24.5864C92.5728 24.2156 92.859 23.5497 92.859 22.5811V22.5735ZM93.2688 30.9809C93.2688 30.0123 92.975 29.3236 92.395 28.9226C91.815 28.5139 90.9412 28.3172 89.7735 28.3172H85.9533V34.0003H89.8585C92.1321 34.0003 93.2688 32.9938 93.2688 30.9809Z" fill="white"/>
<path d="M110.398 37.1558L109.64 34.3559H109.508C108.65 35.5818 107.784 36.4142 106.91 36.8532C106.036 37.2921 104.923 37.5191 103.554 37.5191C101.799 37.5191 100.43 36.9894 99.4477 35.9224C98.4656 34.8554 97.9707 33.3494 97.9707 31.3971C97.9707 29.3236 98.6512 27.7647 100.02 26.7128C101.389 25.661 103.469 25.0858 106.268 24.9875L109.354 24.8815V23.807C109.354 22.5205 109.091 21.567 108.557 20.9238C108.024 20.2806 107.212 20.1897 106.09 20.1897C105.178 20.1897 104.204 20.1519 103.461 20.6438C102.402 21.3476 101.969 22.5205 101.783 24.0945H98.2878C98.4038 20.7876 100.816 17.632 102.989 17.1476C104.149 16.8904 105.224 16.7012 106.253 16.7012C108.526 16.7012 110.235 17.2612 111.395 18.3736C112.555 19.486 113.128 21.234 113.128 23.6253V37.1558H110.413H110.398ZM104.745 34.25C106.121 34.25 107.227 33.8186 108.062 32.9484C108.898 32.0857 109.315 30.8673 109.315 29.3085V27.568L107.026 27.6739C105.24 27.7496 103.941 28.0825 103.129 28.6804C102.317 29.2782 101.907 30.1938 101.907 31.4349C101.907 32.3278 102.147 33.024 102.618 33.5159C103.09 34.0078 103.801 34.25 104.745 34.25Z" fill="white"/>
<path d="M155.853 37.1402L155.095 34.3403H154.964C154.105 35.5662 153.239 36.3986 152.365 36.8375C151.491 37.2764 150.378 37.5035 149.009 37.5035C147.254 37.5035 145.885 36.9737 144.903 35.9067C143.921 34.8397 143.426 33.3338 143.426 31.3814C143.426 29.308 144.106 27.7491 145.475 26.6972C146.844 25.6453 148.924 25.0702 151.723 24.9718L154.809 24.8659V23.7913C154.809 22.5049 154.546 21.5514 154.012 20.9082C153.479 20.2649 152.667 20.1741 151.546 20.1741C150.633 20.1741 149.659 20.1363 148.916 20.6282C147.857 21.3319 147.424 22.5049 147.238 24.0789H143.743C143.859 20.7719 146.272 17.6163 148.445 17.132C149.605 16.8747 150.679 16.6855 151.708 16.6855C153.981 16.6855 155.69 17.2455 156.85 18.3579C158.01 19.4703 158.583 21.2184 158.583 23.6097V37.1402H155.868H155.853ZM150.2 34.2343C151.576 34.2343 152.682 33.803 153.517 32.9328C154.353 32.0701 154.77 30.8517 154.77 29.2928V27.5523L152.481 27.6583C150.695 27.7339 149.396 28.0669 148.584 28.6647C147.772 29.2626 147.362 30.1782 147.362 31.4193C147.362 32.3122 147.602 33.0084 148.073 33.5003C148.545 33.9922 149.257 34.2343 150.2 34.2343Z" fill="white"/>
<path d="M119.392 17.0645V25.1313H126.777V17.0645H130.102V37.1559H126.777V28.4912H119.392V37.1559H116.059V17.0645H119.392Z" fill="white"/>
<path d="M143.418 17.0645V20.4092H136.466V37.1559H133.063V17.0645H143.418Z" fill="white"/>
<path d="M169.355 37.5191C167.298 37.5191 165.697 36.6034 164.56 34.7797H164.351C164.491 36.4748 164.56 37.5039 164.56 37.8672V46.0929H161.104V17.0644H163.895C163.972 17.4428 164.135 18.3357 164.382 19.7508H164.56C165.635 17.7152 167.259 16.7012 169.409 16.7012C171.435 16.7012 173.02 17.6093 174.149 19.4254C175.278 21.2416 175.851 23.7918 175.851 27.0761C175.851 30.3603 175.278 32.9181 174.126 34.757C172.974 36.5959 171.381 37.5191 169.355 37.5191ZM168.52 20.1897C167.151 20.1897 166.145 20.6892 165.511 21.6805C164.877 22.6718 164.56 24.261 164.56 26.4404V27.0761C164.56 29.5203 164.87 31.2911 165.504 32.3884C166.13 33.4857 167.159 34.0305 168.574 34.0305C169.772 34.0305 170.693 33.4251 171.334 32.2143C171.976 31.0036 172.301 29.2782 172.301 27.0382C172.301 24.7983 171.976 23.0805 171.334 21.9227C170.693 20.7649 169.749 20.1897 168.504 20.1897H168.52Z" fill="white"/>
<path d="M194 44.2614H190.606V37.1556H178.867V44.2614H175.503V33.8487H176.895C178.117 31.8055 179.083 29.331 179.795 26.4251C180.506 23.5192 180.939 20.4014 181.071 17.0566H191.479V33.8411H193.985V44.2539L194 44.2614ZM187.915 33.8487V20.3333H184.226C184.033 22.8306 183.623 25.29 182.996 27.7115C182.37 30.1331 181.612 32.1839 180.715 33.8487H187.915Z" fill="white"/>
<path d="M28.3496 16.2698V11.0635C28.3496 11.0635 37.8613 19.7811 40.9159 19.4709C40.9159 19.4709 32.2935 23.527 28.6821 30.3376L28.4192 23.3151C28.4192 23.3151 21.7146 21.393 22.2172 27.8782C22.2172 27.8782 21.9621 33.0392 30.4066 38.4877C30.4066 38.4877 16.3865 35.0673 14.7935 26.0167C13.3551 17.8439 28.3573 16.2698 28.3573 16.2698H28.3496Z" fill="white"/>
<path d="M28.3494 16.2698V11.0635C28.3494 11.0635 35.6959 17.7379 39.5547 19.2211C39.5547 19.2211 29.9502 24.4729 28.5814 28.1128L28.3494 21.4308C28.3494 21.4308 19.3868 20.1141 19.874 27.4242C19.874 27.4242 20.4385 33.0922 28.071 37.7461C28.071 37.7461 14.7392 34.5678 14.1592 24.7907C13.5792 15.0137 28.3572 16.2698 28.3572 16.2698H28.3494Z" fill="white"/>
</g>
<defs>
<clipPath id="clip0_193_652">
<rect width="194" height="48" fill="white"/>
</clipPath>
</defs>
</svg>
