<svg width="206" height="84" viewBox="0 0 206 84" fill="none" xmlns="http://www.w3.org/2000/svg">
<mask id="mask0_52_260" style="mask-type:luminance" maskUnits="userSpaceOnUse" x="0" y="0" width="206" height="84">
<path d="M206 0H0V84H206V0Z" fill="white"/>
</mask>
<g mask="url(#mask0_52_260)">
<path fill-rule="evenodd" clip-rule="evenodd" d="M153.501 0.924005H140.391C139.459 0.924005 138.625 1.74019 138.625 2.68796V3.94799C138.625 4.98655 139.575 5.71194 140.643 5.71194H154.256V6.63594C153.606 6.78755 153.037 6.70198 152.744 7.13998C153.02 7.51656 153.728 7.55995 154.256 7.55995V8.56792C153.577 8.56792 153.163 8.80638 152.744 8.90393C152.76 9.09288 152.578 9.18589 153.299 9.35702C153.569 9.42104 153.972 9.49192 154.256 9.49192V10.4999C153.655 10.4999 153.001 10.5688 152.744 10.9198C152.997 11.2978 153.768 11.3832 154.256 11.4239V12.1799C151.468 12.1799 151.829 12.0013 151.818 12.8497L151.302 18.8026C151.248 19.3194 151.161 19.9147 151.147 20.4961C151.142 20.7289 151.097 21.1283 151.006 21.2786L145.168 25.6918C143.463 26.9707 144.343 26.5439 140.475 26.5439C139.363 26.5439 137.618 26.2368 137.618 27.4679V35.364C137.618 36.6104 139.739 36.288 141.063 36.288V48.972C141.445 48.8702 141.743 48.1991 142.492 47.628L143.992 46.3558C144.525 45.9575 145.037 45.5681 145.627 45.2182L146.91 44.4844C148.105 43.7702 150.009 43.1032 151.467 42.739C152.187 42.5588 152.928 42.4048 153.787 42.2864C154.218 42.2272 154.677 42.164 155.095 42.1656C155.685 42.1678 155.955 42.0773 156.442 42.0773L159.023 42.2758C161.403 42.571 163.357 43.2698 165.433 44.1845C166.752 44.7659 168.471 46.0487 169.588 46.9201C169.957 47.2084 171.108 48.2476 171.397 48.6383C171.558 48.8533 171.533 48.8951 171.82 48.972V36.288C173.145 36.288 175.266 36.6104 175.266 35.364V27.4679C175.266 26.9638 174.865 26.6098 174.419 26.5507C173.623 26.4455 169.474 26.6779 168.901 26.5218C168.682 26.4624 168.07 25.9207 167.845 25.7294L162.733 21.6829C162.107 21.1904 162.248 21.4126 162.12 20.4473C161.936 19.0519 161.331 12.9661 161.148 12.1798H158.627V11.3398C159.179 11.3398 159.664 11.2527 159.888 10.9198C159.689 10.6499 158.97 10.5285 158.627 10.4999V9.49192C159.161 9.36749 159.615 9.39407 159.888 8.98788C158.651 8.16001 158.627 9.42689 158.627 7.55984C159.107 7.54918 159.673 7.43231 159.888 7.13988C159.666 6.83788 159.146 6.7199 158.627 6.7199V5.71194H172.241C173.308 5.71194 174.257 4.98655 174.257 3.94799V2.68796C174.257 1.74019 173.424 0.924005 172.492 0.924005H159.384V0H153.501V0.924005Z" fill="#FEFEFE"/>
<path fill-rule="evenodd" clip-rule="evenodd" d="M154.425 79.632C154.425 78.9154 154.454 78.3321 155.074 77.761C155.708 77.1768 156.793 77.0316 157.537 77.3615C157.95 77.5445 158.342 77.9367 158.573 78.3423C159.34 79.6948 158.265 81.6236 156.611 81.6268C155.545 81.6289 154.425 80.7143 154.425 79.632ZM157.417 84H155.565C154.186 83.9382 152.798 83.7385 151.417 83.3955C146.041 82.0603 141.588 78.5765 138.768 73.8627C138.158 72.8443 137.595 71.6224 137.187 70.4868C136.199 67.7397 136.021 65.7821 136.021 62.8321C136.021 60.1079 136.998 56.7466 137.925 54.9075C138.219 54.3226 138.46 53.8719 138.766 53.3112L141.923 49.1589L143.259 47.976C143.734 47.5938 144.09 47.2588 144.626 46.9055L146.1 45.9432C146.606 45.6407 147.159 45.3821 147.701 45.1079C149.487 44.2071 152.844 43.1763 155.517 43.1763H157.367C161.402 43.1763 165.093 44.7983 168.309 46.9387L170.961 49.1589C171.747 49.9621 173.13 51.6918 173.705 52.6321C175.459 55.5043 176.862 59.0631 176.862 62.8323V64.3443C176.862 67.1083 175.86 70.4841 174.931 72.3246C173.665 74.8306 172.709 76.1818 170.833 78.0573C167.161 81.7276 162.405 83.7742 157.417 84ZM145.349 77.112C144.124 77.112 143.163 76.171 143.163 74.676C143.163 73.0043 145.547 71.8973 146.967 73.3108C148.321 74.6583 147.354 77.112 145.349 77.112ZM167.87 76.944H167.366C166.428 76.944 165.433 75.9499 165.433 75.0119V74.5079C165.433 73.57 166.428 72.5759 167.366 72.5759C168.095 72.5759 168.722 72.6183 169.278 73.2696C170.631 74.8547 169.335 76.944 167.87 76.944ZM145.853 64.1759C145.853 61.5593 146.226 59.5763 147.737 57.4913C148.155 56.9139 148.408 56.6238 148.899 56.133C149.111 55.9215 149.27 55.7448 149.486 55.5439C149.705 55.3402 149.949 55.1829 150.199 54.9954C151.609 53.9322 153.895 53.0039 155.685 53.0039C158.532 53.0039 159.404 53.1243 161.876 54.4603C164.683 55.9782 167.031 59.7118 167.031 62.9999C167.031 65.3529 166.971 65.9685 166.046 68.1485L165.111 69.7333C164.453 70.624 163.541 71.5756 162.627 72.2065C162.33 72.411 162.19 72.5148 161.868 72.7077C159.803 73.9428 158.322 74.1719 155.853 74.1719C154.32 74.1719 152.995 73.6616 151.879 73.1886C150.903 72.7747 149.674 71.8165 148.941 71.085C147.172 69.3183 145.853 66.7319 145.853 64.1759ZM138.374 63.5039C138.374 62.9531 138.74 62.2759 139.023 61.9689C140.176 60.7178 142.828 61.2565 142.828 63.5879C142.828 64.9422 141.606 65.7895 140.566 65.7585C139.368 65.7227 138.374 64.6362 138.374 63.5039ZM172.492 65.6039C171.748 65.6039 171.169 65.547 170.63 64.9456C169.322 63.4851 170.436 61.2358 171.988 61.2358C172.792 61.2358 173.271 61.247 173.903 61.9264C175.272 63.3994 174.031 65.6039 172.492 65.6039ZM143.08 52.3319C143.08 49.438 147.534 49.4525 147.534 52.3319C147.534 52.9512 147.227 53.5701 146.924 53.9059C145.719 55.2371 143.08 54.5346 143.08 52.3319ZM165.265 52.3319C165.265 51.0835 166.263 50.0639 167.619 50.0639C168.634 50.0639 169.719 50.9704 169.719 52.3319C169.719 54.2567 167.403 55.2111 165.96 53.9059C165.668 53.6417 165.265 52.8484 165.265 52.3319ZM154.256 48.0479C154.256 47.0333 154.528 46.1542 155.549 45.7271C157.119 45.0693 158.627 46.3117 158.627 47.5439V48.0479C158.627 49.077 157.651 49.9799 156.273 49.9799C155.31 49.9799 154.256 49.0111 154.256 48.0479Z" fill="#FEFEFE"/>
<path fill-rule="evenodd" clip-rule="evenodd" d="M147.702 58.5484C147.702 59.433 150.03 61.6781 150.895 62.2457C154.297 64.4787 158.517 64.4998 161.939 62.2793C162.844 61.6924 165.182 59.3888 165.182 58.6324C165.182 58.0847 162.82 55.9906 161.931 55.4979C157.535 53.0635 152.578 53.592 148.972 57.0449L148.394 57.6444C148.303 57.7421 147.702 58.4939 147.702 58.5484Z" fill="#FEFEFE"/>
<path d="M18.2738 71.2581H9.4838L7.93068 75.2879H0L10.1116 52.1665H17.7779L27.8896 75.2879H19.8268L18.2738 71.2581ZM16.1258 65.6429L13.8788 59.8295L11.6318 65.6429H16.1258ZM41.1735 52.1665C43.3105 52.1665 45.172 52.5188 46.7582 53.2235C48.3442 53.9281 49.5668 54.9411 50.426 56.2622C51.2851 57.5834 51.7147 59.1248 51.7147 60.8864C51.7147 62.6481 51.2851 64.1895 50.426 65.5107C49.5668 66.8319 48.3441 67.8449 46.7582 68.5495C45.172 69.2541 43.3105 69.6065 41.1735 69.6065H37.8361V75.2877H30.0376V52.1665H41.1735ZM40.6778 63.5949C41.7354 63.5949 42.5283 63.3582 43.0571 62.8848C43.5858 62.4114 43.8502 61.7453 43.8502 60.8864C43.8502 60.0277 43.5858 59.3615 43.0571 58.8881C42.5283 58.4147 41.7354 58.1779 40.6778 58.1779H37.836V63.5948L40.6778 63.5949ZM74.7137 75.2877L74.6477 64.751L69.6249 73.2068H66.1883L61.1655 65.1144V75.2877H54.0609V52.1665H60.4714L68.0056 64.4869L75.3415 52.1665H81.7522L81.8182 75.2877H74.7137ZM102.207 71.258H93.4169L91.8638 75.2877H83.9331L94.0447 52.1665H101.711L111.823 75.2877H103.76L102.207 71.258ZM100.059 65.6429L97.8119 59.8293L95.5648 65.6429H100.059ZM130.13 63.3968L136.97 75.2877H128.18L123.752 66.9311H121.571V75.2877H113.772V52.1665H121.571V60.7874H123.95L128.873 52.1665H137.003L130.13 63.3968ZM198.895 75.2877L198.83 64.751L193.806 73.2068H190.37L185.347 65.1144V75.2877H178.243V52.1665H184.653L192.187 64.4869L199.523 52.1665H205.934L206 75.2877H198.895Z" fill="#FEFEFE"/>
<path d="M6.82051 8.33447V16.0641H5.72258V13.0053C4.90191 13.3219 4.14408 13.4802 3.44909 13.4802C2.50273 13.4802 1.76707 13.2519 1.24214 12.7956C0.724592 12.3392 0.46582 11.6876 0.46582 10.8411V8.33447H1.55266V10.7196C1.55266 11.2938 1.72641 11.7355 2.0739 12.0447C2.42878 12.3538 2.92785 12.5084 3.57108 12.5084C4.28825 12.5084 5.00541 12.3465 5.72258 12.0226V8.33447H6.82051Z" fill="white"/>
<path d="M14.4317 15.1034V16.0641H8.79785V8.33447H14.2764V9.29514H9.90687V11.6692H13.7995V12.6079H9.90687V15.1034H14.4317Z" fill="white"/>
<path d="M22.0734 8.33447V16.0641H20.9865V9.29514H17.5486L17.471 11.5588C17.4339 12.6262 17.3452 13.4912 17.2047 14.1537C17.0716 14.8162 16.8573 15.3169 16.5616 15.6555C16.2657 15.9867 15.8665 16.1524 15.3638 16.1524C15.1345 16.1524 14.9017 16.1229 14.665 16.0641L14.7428 15.0813C14.861 15.1107 14.9793 15.1255 15.0976 15.1255C15.4155 15.1255 15.6706 15.0003 15.8628 14.75C16.0551 14.4924 16.1993 14.1096 16.2953 13.6016C16.3915 13.0936 16.4544 12.4238 16.4839 11.5919L16.6059 8.33447H22.0734Z" fill="white"/>
<path d="M29.7374 8.33447V16.0641H28.6505V13.8115H26.5101C26.3771 13.8115 26.2772 13.8078 26.2107 13.8004L24.6581 16.0641H23.4824L25.2014 13.6126C24.6469 13.4287 24.2219 13.1232 23.926 12.6962C23.6303 12.2618 23.4824 11.7355 23.4824 11.1171C23.4824 10.2411 23.7634 9.56016 24.3253 9.07431C24.8946 8.58108 25.6599 8.33447 26.621 8.33447H29.7374ZM24.6026 11.1061C24.6026 11.6803 24.769 12.122 25.1017 12.4311C25.4417 12.733 25.9408 12.8839 26.5988 12.8839H28.6505V9.29514H26.6654C25.9999 9.29514 25.4898 9.44974 25.135 9.75892C24.78 10.0681 24.6026 10.5172 24.6026 11.1061Z" fill="white"/>
<path d="M31.7168 8.33447H37.5725V9.27306H32.8148V11.4815H35.2325C36.1566 11.4815 36.859 11.6729 37.3396 12.0558C37.8201 12.4386 38.0604 12.9907 38.0604 13.7121C38.0604 14.4703 37.798 15.0519 37.273 15.4568C36.7555 15.8617 36.0125 16.0641 35.0439 16.0641H31.7168V8.33447ZM34.9995 15.1917C35.6353 15.1917 36.1197 15.0703 36.4524 14.8273C36.7851 14.5844 36.9515 14.2274 36.9515 13.7563C36.9515 12.8214 36.3008 12.3538 34.9995 12.3538H32.8148V15.1917H34.9995Z" fill="white"/>
<path d="M39.3848 8.33447H40.4827V14.2974L45.074 8.33447H46.0943V16.0641H45.0075V10.1123L40.4051 16.0641H39.3848V8.33447Z" fill="white"/>
<path d="M54.7466 8.33447V16.0641H53.6377V12.6189H49.1794V16.0641H48.0703V8.33447H49.1794V11.6582H53.6377V8.33447H54.7466Z" fill="white"/>
<path d="M60.1961 16.1534C59.4198 16.1534 58.7174 15.9841 58.0889 15.6454C57.4679 15.2995 56.9799 14.8282 56.625 14.2319C56.2701 13.6283 56.0928 12.9511 56.0928 12.2002C56.0928 11.4493 56.2701 10.7758 56.625 10.1795C56.9799 9.57583 57.4717 9.1047 58.1001 8.76606C58.7285 8.42007 59.4309 8.24707 60.2071 8.24707C60.8134 8.24707 61.3679 8.35014 61.8707 8.55626C62.3735 8.75502 62.8023 9.05316 63.1571 9.45068L62.4364 10.1463C61.8523 9.53534 61.124 9.22983 60.2516 9.22983C59.6749 9.22983 59.1537 9.35867 58.6878 9.61632C58.222 9.87397 57.8561 10.231 57.5899 10.6874C57.3312 11.1365 57.2017 11.6407 57.2017 12.2002C57.2017 12.7597 57.3312 13.2676 57.5899 13.7241C57.8561 14.1731 58.222 14.5264 58.6878 14.7841C59.1537 15.0418 59.6749 15.1706 60.2516 15.1706C61.1165 15.1706 61.8448 14.8615 62.4364 14.243L63.1571 14.9387C62.8023 15.3362 62.3698 15.6381 61.8596 15.8441C61.3569 16.0503 60.8024 16.1534 60.1961 16.1534Z" fill="white"/>
<path d="M66.9472 12.6631H65.3281V16.0641H64.2412V8.33447H65.3281V11.6913H66.9694L69.4093 8.33447H70.596L67.8233 12.0778L70.729 16.0641H69.4647L66.9472 12.6631Z" fill="white"/>
<path d="M71.4229 8.33447H72.5208V14.2974L77.1122 8.33447H78.1325V16.0641H77.0456V10.1123L72.4431 16.0641H71.4229V8.33447Z" fill="white"/>
<path d="M80.1094 8.33413H81.2073V14.297L85.7987 8.33413H86.819V16.0638H85.7321V10.1119L81.1297 16.0638H80.1094V8.33413ZM83.4475 7.79307C82.8413 7.79307 82.3718 7.66423 82.0391 7.40658C81.7138 7.14156 81.5474 6.76613 81.54 6.28027H82.3273C82.3348 6.56736 82.4347 6.79189 82.6269 6.95385C82.8264 7.10844 83.1 7.18573 83.4475 7.18573C83.7802 7.18573 84.0464 7.10844 84.246 6.95385C84.453 6.79189 84.5602 6.56736 84.5676 6.28027H85.3439C85.3365 6.75876 85.1665 7.13052 84.8338 7.39554C84.5084 7.66055 84.0464 7.79307 83.4475 7.79307Z" fill="white"/>
<path d="M95.0447 12.035C95.5328 12.1675 95.9135 12.3993 96.1871 12.7307C96.4606 13.0545 96.5974 13.4447 96.5974 13.9011C96.5974 14.3575 96.4496 14.7588 96.1538 15.1047C95.8655 15.4434 95.4773 15.7047 94.9893 15.8887C94.5088 16.0655 93.9838 16.1538 93.4146 16.1538C92.8969 16.1538 92.3831 16.0765 91.8729 15.9218C91.3628 15.7673 90.897 15.5354 90.4756 15.2262L90.8637 14.4091C91.2039 14.6741 91.5846 14.8729 92.0061 15.0054C92.4274 15.1379 92.8526 15.2041 93.2814 15.2041C93.9025 15.2041 94.4237 15.0753 94.8452 14.8176C95.2665 14.5526 95.4773 14.1919 95.4773 13.7355C95.4773 13.3453 95.3183 13.0472 95.0004 12.8411C94.6825 12.6276 94.2352 12.5209 93.6585 12.5209H91.9284V11.6264H93.5809C94.0763 11.6264 94.4607 11.527 94.7343 11.3283C95.0153 11.1222 95.1556 10.8387 95.1556 10.478C95.1556 10.0731 94.9745 9.75291 94.6122 9.51734C94.2499 9.28178 93.7916 9.16399 93.2371 9.16399C92.8748 9.16399 92.505 9.21552 92.128 9.31858C91.7584 9.42164 91.4071 9.57624 91.0744 9.78236L90.7195 8.87689C91.1114 8.65604 91.5255 8.49042 91.9617 8.37999C92.3979 8.26957 92.8342 8.21436 93.2704 8.21436C93.8175 8.21436 94.3202 8.29902 94.7786 8.46832C95.2369 8.63764 95.5992 8.88426 95.8655 9.20816C96.139 9.53206 96.2758 9.91118 96.2758 10.3455C96.2758 10.7357 96.1649 11.078 95.9431 11.3724C95.7287 11.6669 95.4293 11.8877 95.0447 12.035Z" fill="white"/>
<path d="M103.048 14.1316H98.9221L98.0681 16.0641H96.9258L100.441 8.33447H101.539L105.066 16.0641H103.902L103.048 14.1316ZM102.659 13.2483L100.985 9.46078L99.3102 13.2483H102.659Z" fill="white"/>
<path d="M110.797 12.0558C111.322 12.1809 111.718 12.4054 111.984 12.7293C112.257 13.0459 112.394 13.4544 112.394 13.955C112.394 14.6248 112.147 15.1438 111.651 15.512C111.163 15.88 110.45 16.0641 109.511 16.0641H105.962V8.33447H109.3C110.15 8.33447 110.812 8.50746 111.285 8.85346C111.766 9.19209 112.006 9.68163 112.006 10.3221C112.006 10.7417 111.899 11.0987 111.685 11.3932C111.477 11.6876 111.182 11.9085 110.797 12.0558ZM107.06 11.7355H109.222C109.762 11.7355 110.173 11.6287 110.453 11.4153C110.742 11.2018 110.886 10.8889 110.886 10.4767C110.886 10.0644 110.742 9.75156 110.453 9.53808C110.165 9.31724 109.755 9.20681 109.222 9.20681H107.06V11.7355ZM109.489 15.1917C110.679 15.1917 111.274 14.75 111.274 13.8667C111.274 13.425 111.123 13.1011 110.819 12.8949C110.524 12.6814 110.08 12.5748 109.489 12.5748H107.06V15.1917H109.489Z" fill="white"/>
<path d="M117.298 16.1534C116.514 16.1534 115.808 15.9841 115.18 15.6454C114.551 15.2995 114.056 14.8246 113.693 14.2209C113.339 13.6173 113.161 12.9437 113.161 12.2002C113.161 11.4567 113.339 10.7831 113.693 10.1795C114.056 9.57583 114.551 9.1047 115.18 8.76606C115.808 8.42007 116.514 8.24707 117.298 8.24707C118.074 8.24707 118.776 8.42007 119.405 8.76606C120.034 9.1047 120.525 9.57583 120.879 10.1795C121.235 10.7758 121.412 11.4493 121.412 12.2002C121.412 12.9511 121.235 13.6283 120.879 14.2319C120.525 14.8282 120.034 15.2995 119.405 15.6454C118.776 15.9841 118.074 16.1534 117.298 16.1534ZM117.298 15.1706C117.867 15.1706 118.377 15.0418 118.828 14.7841C119.287 14.5264 119.645 14.1731 119.904 13.7241C120.17 13.2676 120.303 12.7597 120.303 12.2002C120.303 11.6407 120.17 11.1365 119.904 10.6874C119.645 10.231 119.287 9.87397 118.828 9.61632C118.377 9.35867 117.867 9.22983 117.298 9.22983C116.728 9.22983 116.211 9.35867 115.745 9.61632C115.287 9.87397 114.924 10.231 114.658 10.6874C114.4 11.1365 114.27 11.6407 114.27 12.2002C114.27 12.7597 114.4 13.2676 114.658 13.7241C114.924 14.1731 115.287 14.5264 115.745 14.7841C116.211 15.0418 116.728 15.1706 117.298 15.1706Z" fill="white"/>
<path d="M129.941 15.1034V17.7536H128.91V16.0641H122.521L122.511 17.7536H121.479L121.49 15.1034H121.868C122.355 15.074 122.699 14.6912 122.899 13.955C123.099 13.2115 123.22 12.1662 123.265 10.819L123.342 8.33447H128.798V15.1034H129.941ZM124.24 10.9184C124.204 12.0079 124.114 12.9097 123.974 13.6237C123.841 14.3378 123.623 14.831 123.32 15.1034H127.7V9.29514H124.296L124.24 10.9184Z" fill="white"/>
<path d="M6.41077 22.6385H3.74912V29.4073H2.66228V22.6385H0.0117188V21.6777H6.41077V22.6385Z" fill="white"/>
<path d="M10.3421 21.6777C11.3476 21.6777 12.1387 21.917 12.7154 22.3955C13.292 22.874 13.5804 23.5328 13.5804 24.3721C13.5804 25.2113 13.292 25.8702 12.7154 26.3486C12.1387 26.8272 11.3476 27.0663 10.3421 27.0663H8.42346V29.4073H7.31445V21.6777H10.3421ZM10.3088 26.1057C11.0112 26.1057 11.5472 25.9585 11.9169 25.664C12.2866 25.3622 12.4714 24.9315 12.4714 24.3721C12.4714 23.8125 12.2866 23.3856 11.9169 23.0911C11.5472 22.7893 11.0112 22.6385 10.3088 22.6385H8.42346V26.1057H10.3088Z" fill="white"/>
<path d="M20.8607 21.6777L17.4116 28.0491C17.1381 28.5571 16.8165 28.9362 16.4468 29.1865C16.0772 29.4368 15.6741 29.562 15.2379 29.562C14.8978 29.562 14.5504 29.4846 14.1955 29.33L14.4838 28.4467C14.7573 28.5423 15.0014 28.5902 15.2158 28.5902C15.7037 28.5902 16.1067 28.3326 16.4246 27.8173L16.6021 27.5412L13.4746 21.6777H14.6613L17.1788 26.5805L19.7628 21.6777H20.8607Z" fill="white"/>
<path d="M21.5684 21.6777H27.424V22.6164H22.6663V24.8247H25.084C26.0081 24.8247 26.7106 25.0161 27.1911 25.3989C27.6717 25.7817 27.912 26.3339 27.912 27.0553C27.912 27.8136 27.6496 28.3951 27.1246 28.8C26.607 29.2049 25.8639 29.4073 24.8954 29.4073H21.5684V21.6777ZM24.8511 28.535C25.4869 28.535 25.9711 28.4136 26.3038 28.1706C26.6366 27.9277 26.8029 27.5706 26.8029 27.0995C26.8029 26.1645 26.1523 25.6971 24.8511 25.6971H22.6663V28.535H24.8511Z" fill="white"/>
<path d="M32.7304 29.4956C31.9466 29.4956 31.2406 29.3262 30.6122 28.9877C29.9836 28.6416 29.4883 28.1668 29.126 27.5632C28.7711 26.9596 28.5938 26.286 28.5938 25.5425C28.5938 24.799 28.7711 24.1254 29.126 23.5217C29.4883 22.9181 29.9836 22.447 30.6122 22.1084C31.2406 21.7623 31.9466 21.5894 32.7304 21.5894C33.5067 21.5894 34.209 21.7623 34.8375 22.1084C35.466 22.447 35.9577 22.9181 36.3125 23.5217C36.6674 24.118 36.8449 24.7916 36.8449 25.5425C36.8449 26.2934 36.6674 26.9706 36.3125 27.5742C35.9577 28.1705 35.466 28.6416 34.8375 28.9877C34.209 29.3262 33.5067 29.4956 32.7304 29.4956ZM32.7304 28.5129C33.2997 28.5129 33.8099 28.384 34.2608 28.1264C34.7193 27.8687 35.0778 27.5153 35.3365 27.0663C35.6028 26.6099 35.7358 26.102 35.7358 25.5425C35.7358 24.983 35.6028 24.4787 35.3365 24.0297C35.0778 23.5733 34.7193 23.2162 34.2608 22.9586C33.8099 22.7009 33.2997 22.572 32.7304 22.572C32.161 22.572 31.6435 22.7009 31.1777 22.9586C30.7194 23.2162 30.3571 23.5733 30.0908 24.0297C29.8321 24.4787 29.7027 24.983 29.7027 25.5425C29.7027 26.102 29.8321 26.6099 30.0908 27.0663C30.3571 27.5153 30.7194 27.8687 31.1777 28.1264C31.6435 28.384 32.161 28.5129 32.7304 28.5129Z" fill="white"/>
<path d="M44.8807 21.6777V29.4073H43.7939V22.6385H39.2913V29.4073H38.1934V21.6777H44.8807Z" fill="white"/>
<path d="M49.8861 21.6777C50.8916 21.6777 51.6828 21.917 52.2594 22.3955C52.8361 22.874 53.1244 23.5328 53.1244 24.3721C53.1244 25.2113 52.8361 25.8702 52.2594 26.3486C51.6828 26.8272 50.8916 27.0663 49.8861 27.0663H47.9674V29.4073H46.8584V21.6777H49.8861ZM49.8528 26.1057C50.5551 26.1057 51.0912 25.9585 51.4609 25.664C51.8305 25.3622 52.0153 24.9315 52.0153 24.3721C52.0153 23.8125 51.8305 23.3856 51.4609 23.0911C51.0912 22.7893 50.5551 22.6385 49.8528 22.6385H47.9674V26.1057H49.8528Z" fill="white"/>
<path d="M57.8251 29.4956C57.0415 29.4956 56.3355 29.3262 55.7069 28.9877C55.0785 28.6416 54.5831 28.1668 54.2208 27.5632C53.866 26.9596 53.6885 26.286 53.6885 25.5425C53.6885 24.799 53.866 24.1254 54.2208 23.5217C54.5831 22.9181 55.0785 22.447 55.7069 22.1084C56.3355 21.7623 57.0415 21.5894 57.8251 21.5894C58.6015 21.5894 59.3039 21.7623 59.9323 22.1084C60.5607 22.447 61.0524 22.9181 61.4074 23.5217C61.7622 24.118 61.9396 24.7916 61.9396 25.5425C61.9396 26.2934 61.7622 26.9706 61.4074 27.5742C61.0524 28.1705 60.5607 28.6416 59.9323 28.9877C59.3039 29.3262 58.6015 29.4956 57.8251 29.4956ZM57.8251 28.5129C58.3945 28.5129 58.9046 28.384 59.3556 28.1264C59.814 27.8687 60.1726 27.5153 60.4314 27.0663C60.6975 26.6099 60.8307 26.102 60.8307 25.5425C60.8307 24.983 60.6975 24.4787 60.4314 24.0297C60.1726 23.5733 59.814 23.2162 59.3556 22.9586C58.9046 22.7009 58.3945 22.572 57.8251 22.572C57.2559 22.572 56.7384 22.7009 56.2726 22.9586C55.8141 23.2162 55.4519 23.5733 55.1857 24.0297C54.927 24.4787 54.7975 24.983 54.7975 25.5425C54.7975 26.102 54.927 26.6099 55.1857 27.0663C55.4519 27.5153 55.8141 27.8687 56.2726 28.1264C56.7384 28.384 57.2559 28.5129 57.8251 28.5129Z" fill="white"/>
<path d="M68.1233 25.3989C68.6483 25.5241 69.0439 25.7486 69.31 26.0726C69.5835 26.3891 69.7203 26.7977 69.7203 27.2983C69.7203 27.9681 69.4726 28.4871 68.9773 28.8552C68.4893 29.2233 67.7759 29.4073 66.8369 29.4073H63.2881V21.6777H66.6261C67.4765 21.6777 68.1382 21.8508 68.6114 22.1967C69.0919 22.5354 69.3322 23.0249 69.3322 23.6653C69.3322 24.0849 69.225 24.4419 69.0106 24.7364C68.8036 25.0309 68.5078 25.2517 68.1233 25.3989ZM64.386 25.0788H66.5485C67.0883 25.0788 67.4986 24.972 67.7796 24.7585C68.0679 24.545 68.2121 24.2322 68.2121 23.82C68.2121 23.4077 68.0679 23.0948 67.7796 22.8813C67.4912 22.6605 67.0809 22.55 66.5485 22.55H64.386V25.0788ZM66.8148 28.535C68.005 28.535 68.6002 28.0933 68.6002 27.2099C68.6002 26.7683 68.4486 26.4444 68.1455 26.2382C67.8498 26.0247 67.4062 25.9179 66.8148 25.9179H64.386V28.535H66.8148Z" fill="white"/>
<path d="M74.624 29.4956C73.8402 29.4956 73.1342 29.3262 72.5057 28.9877C71.8773 28.6416 71.382 28.1668 71.0197 27.5632C70.6648 26.9596 70.4873 26.286 70.4873 25.5425C70.4873 24.799 70.6648 24.1254 71.0197 23.5217C71.382 22.9181 71.8773 22.447 72.5057 22.1084C73.1342 21.7623 73.8402 21.5894 74.624 21.5894C75.4003 21.5894 76.1026 21.7623 76.7311 22.1084C77.3596 22.447 77.8512 22.9181 78.2061 23.5217C78.5609 24.118 78.7384 24.7916 78.7384 25.5425C78.7384 26.2934 78.5609 26.9706 78.2061 27.5742C77.8512 28.1705 77.3596 28.6416 76.7311 28.9877C76.1026 29.3262 75.4003 29.4956 74.624 29.4956ZM74.624 28.5129C75.1932 28.5129 75.7034 28.384 76.1545 28.1264C76.6128 27.8687 76.9714 27.5153 77.2302 27.0663C77.4963 26.6099 77.6294 26.102 77.6294 25.5425C77.6294 24.983 77.4963 24.4787 77.2302 24.0297C76.9714 23.5733 76.6128 23.2162 76.1545 22.9586C75.7034 22.7009 75.1932 22.572 74.624 22.572C74.0547 22.572 73.5371 22.7009 73.0713 22.9586C72.6129 23.2162 72.2506 23.5733 71.9845 24.0297C71.7257 24.4787 71.5963 24.983 71.5963 25.5425C71.5963 26.102 71.7257 26.6099 71.9845 27.0663C72.2506 27.5153 72.6129 27.8687 73.0713 28.1264C73.5371 28.384 74.0547 28.5129 74.624 28.5129Z" fill="white"/>
<path d="M87.2675 28.4467V31.0968H86.2361V29.4073H79.8481L79.8371 31.0968H78.8057L78.8168 28.4467H79.1938C79.6818 28.4172 80.0256 28.0344 80.2253 27.2983C80.4248 26.5548 80.5468 25.5095 80.5912 24.1622L80.6688 21.6777H86.1252V28.4467H87.2675ZM81.5671 24.2616C81.5301 25.3512 81.4414 26.253 81.301 26.967C81.1678 27.6811 80.9497 28.1743 80.6466 28.4467H85.0273V22.6385H81.6226L81.5671 24.2616Z" fill="white"/>
<path d="M95.017 21.6777V29.4073H93.9081V25.9621H89.4497V29.4073H88.3408V21.6777H89.4497V25.0015H93.9081V21.6777H95.017Z" fill="white"/>
<path d="M100.487 29.4956C99.7036 29.4956 98.9975 29.3262 98.369 28.9877C97.7406 28.6416 97.2453 28.1668 96.883 27.5632C96.5281 26.9596 96.3506 26.286 96.3506 25.5425C96.3506 24.799 96.5281 24.1254 96.883 23.5217C97.2453 22.9181 97.7406 22.447 98.369 22.1084C98.9975 21.7623 99.7036 21.5894 100.487 21.5894C101.264 21.5894 101.966 21.7623 102.594 22.1084C103.223 22.447 103.714 22.9181 104.069 23.5217C104.424 24.118 104.602 24.7916 104.602 25.5425C104.602 26.2934 104.424 26.9706 104.069 27.5742C103.714 28.1705 103.223 28.6416 102.594 28.9877C101.966 29.3262 101.264 29.4956 100.487 29.4956ZM100.487 28.5129C101.056 28.5129 101.567 28.384 102.018 28.1264C102.476 27.8687 102.835 27.5153 103.094 27.0663C103.36 26.6099 103.493 26.102 103.493 25.5425C103.493 24.983 103.36 24.4787 103.094 24.0297C102.835 23.5733 102.476 23.2162 102.018 22.9586C101.567 22.7009 101.056 22.572 100.487 22.572C99.918 22.572 99.4005 22.7009 98.9346 22.9586C98.4762 23.2162 98.1139 23.5733 97.8478 24.0297C97.589 24.4787 97.4596 24.983 97.4596 25.5425C97.4596 26.102 97.589 26.6099 97.8478 27.0663C98.1139 27.5153 98.4762 27.8687 98.9346 28.1264C99.4005 28.384 99.918 28.5129 100.487 28.5129Z" fill="white"/>
<path d="M105.951 21.6784H107.049V27.6412L111.64 21.6784H112.661V29.408H111.574V23.4562L106.971 29.408H105.951V21.6784ZM109.289 21.1374C108.683 21.1374 108.214 21.0085 107.881 20.7508C107.556 20.4859 107.389 20.1104 107.382 19.6245H108.169C108.177 19.9117 108.276 20.1362 108.469 20.2982C108.668 20.4528 108.942 20.53 109.289 20.53C109.622 20.53 109.888 20.4528 110.088 20.2982C110.295 20.1362 110.402 19.9117 110.41 19.6245H111.186C111.178 20.1031 111.008 20.4748 110.676 20.7398C110.35 21.0049 109.888 21.1374 109.289 21.1374Z" fill="white"/>
<path d="M6.12181 40.8177H1.99624L1.14229 42.7501H0L3.51559 35.0205H4.61353L8.14022 42.7501H6.97575L6.12181 40.8177ZM5.73364 39.9343L4.05902 36.1468L2.3844 39.9343H5.73364Z" fill="white"/>
<path d="M12.0637 35.0205C13.0693 35.0205 13.8604 35.2597 14.437 35.7382C15.0137 36.2167 15.3021 36.8756 15.3021 37.7147C15.3021 38.554 15.0137 39.2128 14.437 39.6914C13.8604 40.1698 13.0693 40.4091 12.0637 40.4091H10.1451V42.7501H9.03613V35.0205H12.0637ZM12.0304 39.4484C12.7329 39.4484 13.269 39.3011 13.6386 39.0067C14.0083 38.7049 14.1931 38.2743 14.1931 37.7147C14.1931 37.1553 14.0083 36.7283 13.6386 36.4339C13.269 36.1321 12.7329 35.9811 12.0304 35.9811H10.1451V39.4484H12.0304Z" fill="white"/>
<path d="M23.5989 42.7501L23.5879 37.1185L20.7821 41.8114H20.2719L17.4661 37.1516V42.7501H16.4014V35.0205H17.3108L20.5492 40.4533L23.7431 35.0205H24.6525L24.6636 42.7501H23.5989Z" fill="white"/>
<path d="M31.6823 40.8177H27.5568L26.7029 42.7501H25.5605L29.0762 35.0205H30.1741L33.7008 42.7501H32.5363L31.6823 40.8177ZM31.2942 39.9343L29.6196 36.1468L27.945 39.9343H31.2942Z" fill="white"/>
<path d="M39.5426 35.9811H36.881V42.7501H35.7941V35.9811H33.1436V35.0205H39.5426V35.9811Z" fill="white"/>
<path d="M46.4652 35.0205L43.0161 41.3919C42.7425 41.8997 42.421 42.2789 42.0512 42.5293C41.6815 42.7795 41.2786 42.9046 40.8424 42.9046C40.5023 42.9046 40.1549 42.8273 39.8 42.6728L40.0883 41.7893C40.3618 41.8851 40.6058 41.933 40.8203 41.933C41.3082 41.933 41.7111 41.6752 42.0291 41.1599L42.2065 40.8839L39.0791 35.0205H40.2658L42.7831 39.9232L45.3672 35.0205H46.4652Z" fill="white"/>
<path d="M50.1995 35.0205C51.205 35.0205 51.9961 35.2597 52.5728 35.7382C53.1495 36.2167 53.4379 36.8756 53.4379 37.7147C53.4379 38.554 53.1495 39.2128 52.5728 39.6914C51.9961 40.1698 51.205 40.4091 50.1995 40.4091H48.2809V42.7501H47.1719V35.0205H50.1995ZM50.1662 39.4484C50.8686 39.4484 51.4046 39.3011 51.7743 39.0067C52.144 38.7049 52.3288 38.2743 52.3288 37.7147C52.3288 37.1553 52.144 36.7283 51.7743 36.4339C51.4046 36.1321 50.8686 35.9811 50.1662 35.9811H48.2809V39.4484H50.1662Z" fill="white"/>
<path d="M57.9419 37.7147C58.866 37.7147 59.5721 37.9209 60.0601 38.3331C60.5554 38.7454 60.8031 39.3527 60.8031 40.1551C60.8031 41.0017 60.537 41.6458 60.0046 42.0875C59.4797 42.5293 58.7255 42.7501 57.7422 42.7501H54.5371V35.0205H55.635V37.7147H57.9419ZM57.6979 41.8777C58.341 41.8777 58.8328 41.7341 59.1728 41.4471C59.5204 41.1526 59.6941 40.7293 59.6941 40.1771C59.6941 39.1172 59.0286 38.5871 57.6979 38.5871H55.635V41.8777H57.6979ZM62.0341 35.0205H63.1321V42.7501H62.0341V35.0205Z" fill="white"/>
</g>
</svg>
